<svg style="position: absolute; width: 0; height: 0; overflow: hidden;" version="1.1" xmlns="http://www.w3.org/2000/svg">
	<defs>
		<symbol id="users" viewBox="0 0 39 39" fill="none">
			<path d="M27.625 34.125V30.875C27.625 29.1511 26.9402 27.4978 25.7212 26.2788C24.5022 25.0598 22.8489 24.375 21.125 24.375H8.125C6.40109 24.375 4.74779 25.0598 3.52881 26.2788C2.30982 27.4978 1.625 29.1511 1.625 30.875V34.125" stroke="#454545" stroke-width="3" stroke-linecap="round" stroke-linejoin="round" />
			<path d="M14.625 17.875C18.2149 17.875 21.125 14.9649 21.125 11.375C21.125 7.78515 18.2149 4.875 14.625 4.875C11.0351 4.875 8.125 7.78515 8.125 11.375C8.125 14.9649 11.0351 17.875 14.625 17.875Z" stroke="#454545" stroke-width="3" stroke-linecap="round" stroke-linejoin="round" />
			<path d="M37.375 34.1252V30.8752C37.3739 29.435 36.8946 28.0359 36.0122 26.8977C35.1299 25.7594 33.8945 24.9465 32.5 24.5864" stroke="#454545" stroke-width="3" stroke-linecap="round" stroke-linejoin="round" />
			<path d="M26 5.08643C27.3982 5.44441 28.6374 6.25756 29.5224 7.39768C30.4074 8.5378 30.8877 9.94002 30.8877 11.3833C30.8877 12.8266 30.4074 14.2288 29.5224 15.3689C28.6374 16.509 27.3982 17.3222 26 17.6802" stroke="#454545" stroke-width="3" stroke-linecap="round" stroke-linejoin="round" />
		</symbol>
		<symbol id="shopping" viewBox="0 0 36 36" fill="none">
			<path d="M9 3L4.5 9V30C4.5 30.7957 4.81607 31.5587 5.37868 32.1213C5.94129 32.6839 6.70435 33 7.5 33H28.5C29.2956 33 30.0587 32.6839 30.6213 32.1213C31.1839 31.5587 31.5 30.7957 31.5 30V9L27 3H9Z" stroke="#454545" stroke-width="3" stroke-linecap="round" stroke-linejoin="round" />
			<path d="M4.5 9H31.5" stroke="#454545" stroke-width="3" stroke-linecap="round" stroke-linejoin="round" />
			<path d="M24 15C24 16.5913 23.3679 18.1174 22.2426 19.2426C21.1174 20.3679 19.5913 21 18 21C16.4087 21 14.8826 20.3679 13.7574 19.2426C12.6321 18.1174 12 16.5913 12 15" stroke="#454545" stroke-width="3" stroke-linecap="round" stroke-linejoin="round" />
		</symbol>
		<symbol id="smartphone" viewBox="0 0 39 39" fill="none">
			<path d="M27.625 3.25H11.375C9.58007 3.25 8.125 4.70507 8.125 6.5V32.5C8.125 34.2949 9.58007 35.75 11.375 35.75H27.625C29.4199 35.75 30.875 34.2949 30.875 32.5V6.5C30.875 4.70507 29.4199 3.25 27.625 3.25Z" stroke="#454545" stroke-width="3" stroke-linecap="round" stroke-linejoin="round" />
			<path d="M19.5 29.25H19.5171" stroke="#454545" stroke-width="3" stroke-linecap="round" stroke-linejoin="round" />
		</symbol>
		<symbol id="calendar" viewBox="0 0 37 36" fill="none">
			<path d="M29.2917 6H7.70833C6.00546 6 4.625 7.34315 4.625 9V30C4.625 31.6569 6.00546 33 7.70833 33H29.2917C30.9945 33 32.375 31.6569 32.375 30V9C32.375 7.34315 30.9945 6 29.2917 6Z" stroke="#454545" stroke-width="3" stroke-linecap="round" stroke-linejoin="round" />
			<path d="M24.6665 3V9" stroke="#454545" stroke-width="3" stroke-linecap="round" stroke-linejoin="round" />
			<path d="M12.3335 3V9" stroke="#454545" stroke-width="3" stroke-linecap="round" stroke-linejoin="round" />
			<path d="M4.625 15H32.375" stroke="#454545" stroke-width="3" stroke-linecap="round" stroke-linejoin="round" />
		</symbol>
		<symbol id="social-linkedin" viewBox="0 0 24 25" fill="none">
			<path d="M16 8.98633C17.5913 8.98633 19.1174 9.61847 20.2426 10.7437C21.3679 11.8689 22 13.395 22 14.9863V21.9863H18V14.9863C18 14.4559 17.7893 13.9472 17.4142 13.5721C17.0391 13.197 16.5304 12.9863 16 12.9863C15.4696 12.9863 14.9609 13.197 14.5858 13.5721C14.2107 13.9472 14 14.4559 14 14.9863V21.9863H10V14.9863C10 13.395 10.6321 11.8689 11.7574 10.7437C12.8826 9.61847 14.4087 8.98633 16 8.98633V8.98633Z" stroke="#C4C4C4" stroke-width="2" stroke-linecap="round" stroke-linejoin="round" />
			<path d="M6 9.98633H2V21.9863H6V9.98633Z" stroke="#C4C4C4" stroke-width="2" stroke-linecap="round" stroke-linejoin="round" />
			<path d="M4 6.98633C5.10457 6.98633 6 6.0909 6 4.98633C6 3.88176 5.10457 2.98633 4 2.98633C2.89543 2.98633 2 3.88176 2 4.98633C2 6.0909 2.89543 6.98633 4 6.98633Z" stroke="#C4C4C4" stroke-width="2" stroke-linecap="round" stroke-linejoin="round" />
		</symbol>
		<symbol id="social-facebook" viewBox="0 0 24 25" fill="none">
			<path d="M18 2.98633H15C13.6739 2.98633 12.4021 3.51311 11.4645 4.45079C10.5268 5.38848 10 6.66025 10 7.98633V10.9863H7V14.9863H10V22.9863H14V14.9863H17L18 10.9863H14V7.98633C14 7.72111 14.1054 7.46676 14.2929 7.27922C14.4804 7.09169 14.7348 6.98633 15 6.98633H18V2.98633Z" stroke="#C4C4C4" stroke-width="2" stroke-linecap="round" stroke-linejoin="round" />
		</symbol>
		<symbol id="social-instagram" viewBox="0 0 24 25" fill="none">
			<path d="M17 2.98633H7C4.23858 2.98633 2 5.2249 2 7.98633V17.9863C2 20.7478 4.23858 22.9863 7 22.9863H17C19.7614 22.9863 22 20.7478 22 17.9863V7.98633C22 5.2249 19.7614 2.98633 17 2.98633Z" stroke="#C4C4C4" stroke-width="2" stroke-linecap="round" stroke-linejoin="round" />
			<path d="M16.0002 12.3561C16.1236 13.1884 15.9815 14.0384 15.594 14.7852C15.2065 15.532 14.5933 16.1376 13.8418 16.5158C13.0903 16.8941 12.2386 17.0257 11.408 16.8921C10.5773 16.7584 9.80996 16.3662 9.21503 15.7713C8.62011 15.1764 8.22793 14.409 8.09426 13.5784C7.9606 12.7477 8.09226 11.896 8.47052 11.1445C8.84878 10.393 9.45438 9.77988 10.2012 9.39238C10.948 9.00488 11.7979 8.86273 12.6302 8.98614C13.4791 9.11203 14.265 9.5076 14.8719 10.1144C15.4787 10.7213 15.8743 11.5072 16.0002 12.3561Z" stroke="#C4C4C4" stroke-width="2" stroke-linecap="round" stroke-linejoin="round" />
			<path d="M17.5 7.48633H17.51" stroke="#C4C4C4" stroke-width="2" stroke-linecap="round" stroke-linejoin="round" />
		</symbol>
		<symbol id="social-twitter" viewBox="0 0 25 25" fill="none">
			<g clip-path="url(#clip0)">
				<path d="M23.6992 3.98613C22.7416 4.66161 21.6813 5.17824 20.5592 5.51613C19.957 4.82364 19.1566 4.33282 18.2663 4.11006C17.376 3.88729 16.4387 3.94333 15.5813 4.27058C14.7239 4.59784 13.9877 5.18053 13.4722 5.93985C12.9567 6.69916 12.6869 7.59847 12.6992 8.51613V9.51613C10.9419 9.5617 9.20049 9.17194 7.63023 8.38158C6.05996 7.59121 4.70954 6.42477 3.69922 4.98613C3.69922 4.98613 -0.300781 13.9861 8.69922 17.9861C6.63975 19.3841 4.18638 20.0851 1.69922 19.9861C10.6992 24.9861 21.6992 19.9861 21.6992 8.48613C21.6983 8.20758 21.6715 7.92972 21.6192 7.65613C22.6398 6.64962 23.36 5.37884 23.6992 3.98613V3.98613Z" stroke="#C4C4C4" stroke-width="2" stroke-linecap="round" stroke-linejoin="round" />
			</g>
			<defs>
				<clipPath id="clip0">
					<rect width="24" height="24" fill="white" transform="translate(0.699219 0.986328)" />
				</clipPath>
			</defs>
		</symbol>
	</defs>
</svg>
