<svg style="position: absolute; width: 0; height: 0; overflow: hidden;" version="1.1"
    xmlns="http://www.w3.org/2000/svg">
    <defs>
        <symbol id="auth-clock" viewBox="0 0 17 17">
            <title>clock</title>
            <path d="M6.60864 0H10.3345C10.6337 0.246146 10.779 0.759687 10.3823 0.991667C9.94489 1.11385 9.48093 1.05719 9.03114 1.07135C9.03114 1.77615 9.03114 2.48271 9.03291 3.18927C10.3593 3.31677 11.6343 3.80021 12.7092 4.58823C12.8827 4.40406 13.0545 4.2199 13.2245 4.03396C13.3166 3.73823 13.2865 3.29552 13.6566 3.19281C14.2108 3.12906 14.6199 3.67271 14.866 4.10302C15.029 4.63958 14.4251 4.79719 14.0284 4.83792C13.8584 4.99375 13.6902 5.15135 13.522 5.30896C14.3596 6.26875 15.0201 7.4074 15.2627 8.67C15.7284 10.8304 15.0856 13.198 13.5609 14.8024C12.3762 16.0986 10.6798 16.8778 8.93375 17H8.06427C6.02072 16.8672 4.06395 15.7958 2.87927 14.1224C1.27489 11.9354 1.16156 8.78865 2.59947 6.4901C3.72572 4.60771 5.78875 3.37344 7.96687 3.18927C7.96864 2.48271 7.96864 1.77615 7.96864 1.07135C7.52062 1.05719 7.05843 1.11208 6.62104 0.993437C6.20843 0.765 6.42625 0.304583 6.60864 0ZM7.34354 4.36865C6.02072 4.64135 4.79708 5.38156 3.95416 6.43875C2.39229 8.31583 2.2276 11.1864 3.57697 13.2264C4.98302 15.5196 8.08375 16.5715 10.5824 15.5444C13.3236 14.5598 14.9865 11.3245 14.1223 8.52833C13.3821 5.66667 10.2389 3.70635 7.34354 4.36865Z"/>
            <path d="M5.42404 7.34185C5.62591 7.08154 6.07039 7.09216 6.26341 7.35779C7.07268 8.20247 7.82883 9.09852 8.62925 9.95206C8.77622 10.1628 9.04893 10.3416 9.03654 10.6267C9.08081 11.0801 8.41497 11.3723 8.12987 10.9986C7.28695 10.1309 6.50956 9.19945 5.68081 8.31758C5.43112 8.06435 5.12477 7.68008 5.42404 7.34185Z" />
        </symbol>
         <symbol id="auth-reload" viewBox="0 0 15 15">
            <title>reload</title>
            <path d="M11.5958 1.69368C13.0479 2.60408 14.1557 4.01449 14.6647 5.61564C15.0419 6.78327 15.0988 8.04339 14.8413 9.24281C14.5329 10.6937 13.7425 12.0434 12.6168 13.0521C11.7425 13.8411 10.6737 14.4249 9.52096 14.7341C8.93413 14.8931 8.32934 14.9769 7.72156 15H7.27844C6.10479 14.9625 4.93713 14.6648 3.90719 14.1185C3.0479 13.6648 2.28144 13.0492 1.66766 12.3122C1.37425 12.0058 1.38922 11.4769 1.71257 11.1966C1.99401 10.9191 2.49102 10.896 2.80539 11.1388C2.94611 11.2457 3.03892 11.396 3.16168 11.5203C3.9521 12.3758 5.01796 12.9885 6.17365 13.2457C7.34731 13.5116 8.60479 13.4162 9.71856 12.9711C10.9401 12.4885 11.976 11.5925 12.6108 10.4769C13.0299 9.7457 13.2754 8.92489 13.3234 8.08963C13.3892 7.04917 13.1467 5.99137 12.6257 5.07518C12.1796 4.28038 11.5269 3.59252 10.7515 3.08674C9.95808 2.5694 9.02695 2.2457 8.07485 2.15611C7.07784 2.05784 6.05389 2.2168 5.13772 2.60986C3.87126 3.15033 2.82036 4.13877 2.23054 5.34686C3.13473 5.34686 4.03892 5.34686 4.94611 5.34686C5.07784 5.34397 5.20958 5.36131 5.32934 5.41044C5.60479 5.52027 5.80539 5.78616 5.82934 6.07229C5.86826 6.40177 5.67066 6.73703 5.35928 6.87865C5.22455 6.94223 5.06886 6.96246 4.91916 6.95668C3.55689 6.95668 2.19461 6.95668 0.832335 6.95668C0.595808 6.95668 0.359281 6.85553 0.203593 6.68212C0.0868263 6.55206 0.0209581 6.38732 0 6.2168V1.26015C0.0239521 1.01738 0.158683 0.786166 0.371257 0.656109C0.646707 0.474028 1.03892 0.479808 1.31138 0.667669C1.52695 0.809288 1.66168 1.05206 1.66467 1.30351C1.66766 1.93934 1.66467 2.57229 1.66467 3.20813C2.58084 2.11565 3.83234 1.28328 5.22455 0.861311C6.35629 0.51449 7.57485 0.433565 8.7485 0.621426C9.76347 0.783276 10.7395 1.15033 11.5958 1.69368Z"/>
        </symbol>
    </defs>
</svg>