<svg style="position: absolute; width: 0; height: 0; overflow: hidden;" version="1.1" xmlns="http://www.w3.org/2000/svg">
	<defs>
		<symbol id="cart-1" viewBox="0 0 32 31">
			<title>
				cart-1
			</title>
			<path d="M26.5968 1.34629C27.175 0.769415 28.0018 0.46754 28.8143 0.499415C29.2731 0.511915 29.735 0.476915 30.1925 0.516915C30.7737 0.608165 31.1568 1.27879 30.9462 1.82754C30.8181 2.22192 30.4212 2.50379 30.0081 2.49942C29.5637 2.50254 29.1193 2.49754 28.6756 2.50004C28.3412 2.50504 28.0156 2.68567 27.8412 2.97192C27.7025 3.18192 27.6887 3.44004 27.6443 3.68067C26.5437 10.1525 25.4418 16.6257 24.3406 23.0982C24.2231 23.7025 24.1912 24.3413 23.8893 24.8925C23.405 25.8419 22.3793 26.4819 21.3131 26.4994C16.8737 26.5007 12.4343 26.5 7.99433 26.5C7.48683 26.5125 7.02808 26.08 7.00183 25.5744C6.94058 25.015 7.43371 24.4807 7.99746 24.4994C12.2893 24.5007 16.5812 24.5 20.8737 24.5C21.04 24.4988 21.2068 24.5088 21.3725 24.4888C21.7893 24.4288 22.1493 24.0825 22.2125 23.6638C22.3925 22.6094 22.5725 21.555 22.7506 20.5C17.8125 20.5007 12.8737 20.4988 7.93558 20.5007C6.95933 20.5182 5.97683 20.2482 5.15496 19.7188C4.10933 19.0563 3.32496 17.9938 3.01121 16.795C2.36121 14.1988 1.71371 11.6019 1.06371 9.00629C0.915585 8.44942 1.02183 7.83004 1.35371 7.35879C1.70246 6.84192 2.31121 6.51504 2.93371 6.50067C10.3337 6.49879 17.7337 6.50129 25.1337 6.49942C25.3306 5.33379 25.53 4.16817 25.7281 3.00254C25.8293 2.37629 26.1368 1.78379 26.5968 1.34629ZM2.99996 8.50004C3.65683 11.1 4.30308 13.7032 4.95621 16.3038C5.27808 17.5419 6.47121 18.4725 7.74808 18.4982C11.7481 18.5025 15.7481 18.4988 19.7481 18.5C20.865 18.4925 21.9825 18.515 23.0981 18.4888C23.6518 15.1575 24.2312 11.8307 24.7906 8.50067C17.5275 8.49942 10.2637 8.50004 2.99996 8.50004Z" />
			<path d="M7.71554 10.5399C8.35304 10.3206 9.06616 10.8949 9.00116 11.5624C8.99554 12.5656 9.00554 13.5693 8.99616 14.5724C8.97741 15.1299 8.41866 15.5806 7.87054 15.4924C7.38679 15.4412 6.99179 14.9937 7.00054 14.5074C6.99929 13.5037 7.00054 12.4993 6.99991 11.4949C6.99179 11.0643 7.29866 10.6518 7.71554 10.5399Z" />
			<path d="M13.7132 10.5405C14.35 10.3199 15.065 10.8924 15.0013 11.5599C14.9957 12.5649 15.0063 13.5699 14.9963 14.5743C14.9763 15.1318 14.4157 15.5818 13.8669 15.4918C13.3832 15.4393 12.9894 14.9893 13 14.503C12.9994 13.5843 13.0013 12.6655 12.9994 11.7468C13 11.5687 12.9863 11.3849 13.0407 11.2124C13.1294 10.8937 13.3944 10.6293 13.7132 10.5405Z" />
			<path d="M19.7111 10.5413C20.2974 10.3395 20.9798 10.8095 20.9973 11.4295C21.003 12.4551 20.9986 13.482 20.9998 14.5082C21.0017 14.872 20.7867 15.2288 20.4586 15.3895C20.1367 15.5607 19.723 15.5313 19.4255 15.3213C19.1624 15.1401 18.9986 14.8251 18.9999 14.5063C18.9992 13.5038 19.0005 12.5013 18.9992 11.4988C18.9899 11.0682 19.2955 10.6545 19.7111 10.5413Z" />
			<path d="M10.1544 27.5382C10.8832 27.3501 11.6994 27.8001 11.9238 28.5195C12.1032 29.0464 11.9644 29.6695 11.5644 30.0595C11.1876 30.4489 10.5882 30.597 10.0713 30.4382C9.46944 30.272 9.01881 29.6901 9.00006 29.067C8.95506 28.3664 9.46756 27.6851 10.1544 27.5382Z" />
			<path d="M20.1555 27.5376C20.883 27.3507 21.698 27.7994 21.923 28.5176C22.103 29.0444 21.9649 29.6688 21.5643 30.0588C21.188 30.4482 20.5899 30.5969 20.073 30.4388C19.5105 30.2832 19.0743 29.7651 19.0105 29.1851C18.9011 28.4482 19.4268 27.6907 20.1555 27.5376Z" />
		</symbol>
		<symbol id="cart-2" viewBox="0 0 23 31">
			<title>
				cart-2
			</title>
			<path d="M11.1205 0H11.9237C13.2068 0.0635742 14.4831 0.326074 15.6712 0.820312C17.724 1.66387 19.5062 3.15068 20.7024 5.02031C21.8625 6.80723 22.4695 8.94346 22.4367 11.0729C22.395 12.3553 22.0143 13.5967 21.5645 14.7889C20.6505 17.1685 19.4125 19.4072 18.1185 21.5975C16.5865 24.1521 14.935 26.6335 13.2027 29.0555C12.9888 29.3398 12.8104 29.6577 12.5321 29.886C12.0837 30.2572 11.4315 30.3509 10.8929 30.1342C10.5688 30.0139 10.3057 29.7719 10.1095 29.4923C8.00469 26.5631 5.99629 23.5594 4.19981 20.4306C3.11084 18.5131 2.08066 16.5512 1.31914 14.4778C0.908984 13.3396 0.57334 12.1529 0.561035 10.9348C0.562402 9.77676 0.741503 8.61807 1.10586 7.51816C1.82432 5.30947 3.27627 3.35029 5.17324 2.01113C6.90137 0.773828 8.99863 0.0786133 11.1205 0ZM9.85107 2.34473C7.84062 2.71934 5.98945 3.84248 4.70498 5.43047C3.5333 6.86328 2.8415 8.67754 2.75947 10.5267C2.69727 11.3128 2.86953 12.0928 3.0876 12.8434C3.45811 14.0896 3.98789 15.2811 4.55664 16.4479C5.68867 18.7373 7.00596 20.9289 8.38408 23.0768C9.38555 24.6306 10.4246 26.1604 11.4999 27.6644C13.1904 25.2964 14.801 22.8696 16.2933 20.3718C17.3959 18.5097 18.4445 16.6079 19.2792 14.6091C19.677 13.6329 20.0353 12.6314 20.1993 11.5869C20.2834 11.0763 20.2513 10.5561 20.2041 10.0434C20.0811 8.84023 19.7078 7.66104 19.1035 6.6124C18.1444 4.92461 16.6084 3.57041 14.8099 2.8376C13.252 2.19639 11.5054 2.02344 9.85107 2.34473Z" />
			<path d="M10.724 5.52108C11.7481 5.37547 12.8131 5.52245 13.7551 5.95038C15.0033 6.51161 16.0246 7.55956 16.5476 8.82421C17.0001 9.89676 17.0897 11.1156 16.8135 12.2456C16.5011 13.5431 15.6876 14.7079 14.585 15.4571C13.5726 16.1551 12.3175 16.4866 11.0918 16.3923C10.0227 16.3171 8.98019 15.9151 8.13663 15.2541C7.15499 14.4912 6.44337 13.3851 6.16924 12.1711C5.86504 10.8634 6.06055 9.44559 6.71885 8.27323C7.53097 6.80077 9.0547 5.7453 10.724 5.52108ZM10.923 7.70858C9.61867 7.9287 8.51876 9.01356 8.28019 10.3144C8.05255 11.4123 8.45792 12.6045 9.28849 13.353C10.0022 14.0147 11.0207 14.3347 11.9832 14.1808C12.8657 14.0537 13.6806 13.5403 14.1878 12.8089C14.6773 12.1184 14.881 11.2298 14.7347 10.3958C14.5939 9.53446 14.0866 8.74491 13.3702 8.24862C12.6702 7.75233 11.7665 7.55067 10.923 7.70858Z" />
		</symbol>
		<symbol id="cart-3" viewBox="0 0 31 25">
			<title>
				cart-3
			</title>
			<path d="M1.27754 1.36966C1.771 1.03242 2.37102 0.862887 2.9674 0.873785C11.364 0.876812 19.7607 0.873785 28.1579 0.875602C28.8706 0.887711 29.5778 1.17107 30.0906 1.66755C30.6349 2.16949 30.957 2.88818 31 3.62443V21.3792C30.9558 22.1003 30.647 22.8063 30.1196 23.3046C29.6038 23.818 28.8827 24.1129 28.1561 24.1244C19.7383 24.1262 11.3198 24.1238 2.90141 24.1256C2.48969 24.1256 2.07857 24.0372 1.70318 23.8689C0.731406 23.4372 0.0496484 22.44 0 21.3774V3.62261C0.0460156 2.72531 0.530996 1.86918 1.27754 1.36966ZM1.93811 3.78125C1.93689 4.75 1.9375 5.71875 1.9375 6.6875C10.979 6.6875 20.021 6.6875 29.0625 6.6875C29.0601 5.69695 29.0679 4.7058 29.0589 3.71525C29.0359 3.223 28.5878 2.80826 28.0968 2.8131C19.6995 2.81189 11.3023 2.8125 2.90564 2.8131C2.38797 2.80341 1.92842 3.26418 1.93811 3.78125ZM1.9375 8.625C1.9375 12.8233 1.9375 17.021 1.93811 21.2187C1.92781 21.7376 2.391 22.1966 2.90867 22.1875C11.3035 22.1875 19.6977 22.1875 28.0925 22.1869C28.6108 22.1978 29.0698 21.737 29.0619 21.22C29.0631 17.0216 29.0625 12.8233 29.0625 8.625C20.0204 8.625 10.979 8.625 1.9375 8.625Z" />
			<path d="M6.50559 12.5388C6.59339 12.5127 6.68542 12.5012 6.77745 12.5C10.3316 12.5 13.8857 12.5 17.4392 12.5C18.0047 12.4806 18.4921 13.0377 18.3982 13.5953C18.3486 14.0663 17.9096 14.4508 17.4355 14.4375C13.8832 14.4375 10.3316 14.4375 6.77927 14.4375C6.33001 14.4472 5.90739 14.1015 5.8305 13.6589C5.72151 13.1836 6.03575 12.6647 6.50559 12.5388Z" />
			<path d="M6.50877 16.4125C6.59657 16.3871 6.68799 16.3762 6.77881 16.3749C9.03963 16.3749 11.3005 16.3749 13.5613 16.3749C13.9663 16.3665 14.3556 16.6432 14.4804 17.0289C14.6414 17.4684 14.4265 18.0031 14.0057 18.2071C13.7956 18.3222 13.5504 18.3173 13.3185 18.3131C11.1394 18.3119 8.96032 18.3125 6.78063 18.3125C6.33076 18.3228 5.90754 17.977 5.83065 17.5332C5.72166 17.0573 6.03772 16.5378 6.50877 16.4125Z" />
		</symbol>
		<symbol id="trash" viewBox="0 0 17 18" fill="none">
			<title>
				trash
			</title>
			<path d="M0.625 4H2.375H16.375" stroke="#EC4B54" stroke-linecap="round" stroke-linejoin="round" />
			<path d="M5 4.00008V2.33341C5 1.89139 5.18437 1.46746 5.51256 1.1549C5.84075 0.842343 6.28587 0.666748 6.75 0.666748H10.25C10.7141 0.666748 11.1592 0.842343 11.4874 1.1549C11.8156 1.46746 12 1.89139 12 2.33341V4.00008M14.625 4.00008V15.6667C14.625 16.1088 14.4406 16.5327 14.1124 16.8453C13.7842 17.1578 13.3391 17.3334 12.875 17.3334H4.125C3.66087 17.3334 3.21575 17.1578 2.88756 16.8453C2.55937 16.5327 2.375 16.1088 2.375 15.6667V4.00008H14.625Z" stroke="#EC4B54" stroke-linecap="round" stroke-linejoin="round" />
			<path d="M6.75 8.16675V13.1667" stroke="#EC4B54" stroke-linecap="round" stroke-linejoin="round" />
			<path d="M10.25 8.16675V13.1667" stroke="#EC4B54" stroke-linecap="round" stroke-linejoin="round" />
		</symbol>
		<symbol id="arrow-left" viewBox="0 0 17 17" fill="none">
			<title>
				arrow-left
			</title>
			<path d="M8.49463 15.4946L1.49463 8.49463L8.49463 1.49463" stroke="white" stroke-width="2" stroke-linecap="round" stroke-linejoin="round" />
		</symbol>
		<symbol id="discount" viewBox="0 0 25 25" fill="none">
			<title>
				discount
			</title>
			<path d="M20.8333 12.5V22.9167H4.16663V12.5" stroke="#01D1B2" stroke-width="2" stroke-linecap="round" stroke-linejoin="round" />
			<path d="M22.9167 7.29175H2.08337V12.5001H22.9167V7.29175Z" stroke="#01D1B2" stroke-width="2" stroke-linecap="round" stroke-linejoin="round" />
			<path d="M12.5 22.9168V7.29175" stroke="#01D1B2" stroke-width="2" stroke-linecap="round" stroke-linejoin="round" />
			<path d="M12.5 7.29159H7.81254C7.12187 7.29159 6.45949 7.01722 5.97112 6.52884C5.48274 6.04047 5.20837 5.37809 5.20837 4.68742C5.20837 3.99675 5.48274 3.33437 5.97112 2.84599C6.45949 2.35762 7.12187 2.08325 7.81254 2.08325C11.4584 2.08325 12.5 7.29159 12.5 7.29159Z" stroke="#01D1B2" stroke-width="2" stroke-linecap="round" stroke-linejoin="round" />
			<path d="M12.5 7.29159H17.1875C17.8782 7.29159 18.5405 7.01722 19.0289 6.52884C19.5173 6.04047 19.7917 5.37809 19.7917 4.68742C19.7917 3.99675 19.5173 3.33437 19.0289 2.84599C18.5405 2.35762 17.8782 2.08325 17.1875 2.08325C13.5417 2.08325 12.5 7.29159 12.5 7.29159Z" stroke="#01D1B2" stroke-width="2" stroke-linecap="round" stroke-linejoin="round" />
		</symbol>
		<symbol id="close" viewBox="0 0 17 17" fill="none">
			<title>
				close
			</title>
			<path fill-rule="evenodd" clip-rule="evenodd" d="M2.46593 0L1.06073 1.4052L7.54617 7.89063L0.794922 14.6419L2.18218 16.0291L8.93343 9.27789L15.5946 15.9391L16.9998 14.5339L10.3386 7.8727L16.7161 1.49526L15.3288 0.108001L8.95136 6.48544L2.46593 0Z" fill="#ED4C67" />
		</symbol>
		<symbol id="btn-check" viewBox="0 0 24 24">
			<title>
				btn-check
			</title>
			<rect width="24" height="24" rx="5" fill="#01D1B2" />
			<path d="M10.0857 15.3286L7.26814 12.7028C6.97803 12.4324 6.50768 12.4324 6.21758 12.7028C5.92747 12.9731 5.92747 13.4115 6.21758 13.6818L9.56044 16.7972C9.85054 17.0676 10.3209 17.0676 10.611 16.7972L18.7824 9.18184C19.0725 8.91148 19.0725 8.47314 18.7824 8.20277C18.4923 7.93241 18.022 7.93241 17.7319 8.20277L10.0857 15.3286Z" fill="white" />
		</symbol>
		<symbol id="discount-mobile" viewBox="0 0 26 26">
			<title>
				discount-mobile
			</title>
			<g clip-path="url(#clip0)">
				<path d="M15.6878 0.918647C15.2988 0.464155 14.7692 0.0929438 14.1618 0.0254047C13.5271 -0.053814 12.9035 0.200092 12.3901 0.555561C11.7807 0.984663 11.245 1.5204 10.8235 2.13537C10.3898 2.75997 10.0541 3.44603 9.74996 4.14072C9.27465 3.05501 8.7125 1.96982 7.835 1.15173C7.30129 0.647983 6.68023 0.180288 5.94238 0.0447016C5.35991 -0.0695562 4.74394 0.106147 4.28234 0.47228C3.76132 0.875991 3.32511 1.45388 3.26011 2.12775C3.18698 2.79146 3.47136 3.43587 3.85577 3.96146C4.36003 4.65361 5.00698 5.23861 5.74128 5.67888C4.38542 5.66873 3.02905 5.67888 1.67268 5.6738C1.336 5.66669 0.996277 5.7581 0.717487 5.94853C0.301588 6.22021 0.0360012 6.69451 -5.34058e-05 7.1881V9.86224C0.0314312 10.1781 0.142641 10.4879 0.340689 10.7377C0.640299 11.1348 1.13186 11.3583 1.62444 11.3694C1.62546 13.5378 1.62495 15.7061 1.62495 17.874C1.62546 18.2036 1.72854 18.5326 1.9205 18.8008C2.21452 19.2278 2.7264 19.4909 3.24437 19.4878C6.76757 19.4863 10.2903 19.4899 13.8135 19.4873C14.0486 19.4878 14.2822 19.3832 14.4335 19.2019C14.6417 18.9622 14.6854 18.5971 14.5427 18.3143C14.4117 18.0411 14.1177 17.8577 13.8145 17.8628C12.7308 17.8613 11.6466 17.8628 10.563 17.8623C10.562 15.696 10.5625 13.5292 10.563 11.3628C12.4586 11.3623 14.3538 11.3623 16.2495 11.3628C16.2515 12.7227 16.2479 14.0827 16.251 15.4426C16.2439 15.8737 16.6369 16.251 17.066 16.2383C17.4921 16.247 17.8806 15.8717 17.8735 15.4426C17.877 14.0852 17.8735 12.7273 17.8755 11.3694C18.1888 11.3542 18.5052 11.277 18.7672 11.0983C19.2176 10.8113 19.502 10.2852 19.5 9.75154C19.4979 8.90349 19.504 8.05494 19.4969 7.20689C19.4746 6.38982 18.7438 5.67837 17.9268 5.67583C16.5374 5.67634 15.148 5.66974 13.7586 5.67888C14.5432 5.20763 15.2308 4.57236 15.7462 3.81521C16.0656 3.33634 16.2942 2.76607 16.2449 2.18107C16.2129 1.71083 15.9945 1.27005 15.6878 0.918647ZM14.1674 1.72353C14.3665 1.87892 14.597 2.06884 14.626 2.33646C14.597 2.64673 14.399 2.90775 14.2152 3.14794C13.9663 3.45314 13.6931 3.74259 13.3727 3.97466C12.6745 4.48705 11.8843 4.85724 11.084 5.1797C11.3988 4.39056 11.766 3.61412 12.2636 2.92248C12.5765 2.49287 12.9741 2.12673 13.4148 1.83169C13.6332 1.70119 13.9323 1.53919 14.1674 1.72353ZM6.4121 2.06935C6.71832 2.3197 7.00422 2.59798 7.23425 2.92095C7.73445 3.61208 8.10109 4.39005 8.41594 5.1797C7.60496 4.85216 6.80312 4.47689 6.09878 3.95283C5.69507 3.64712 5.34773 3.26626 5.06792 2.84529C4.94097 2.6315 4.78152 2.34611 4.95062 2.11099C5.10855 1.90279 5.30761 1.65701 5.58742 1.63619C5.90378 1.67732 6.16937 1.8774 6.4121 2.06935ZM17.8745 7.30033C17.875 8.11283 17.8755 8.92482 17.8745 9.73732C15.4375 9.73478 13 9.73884 10.563 9.73732C10.562 8.92482 10.5625 8.11232 10.563 7.30033C13 7.29982 15.4375 7.29982 17.8745 7.30033ZM8.93695 7.30033C8.93746 8.11283 8.93797 8.92482 8.93695 9.73732C6.49996 9.73884 4.06245 9.73478 1.62546 9.73732C1.62444 8.92482 1.62495 8.11283 1.62546 7.30033C4.06245 7.29982 6.49996 7.29982 8.93695 7.30033ZM8.93695 11.3628C8.93746 13.5292 8.93797 15.696 8.93695 17.8623C7.04129 17.8623 5.14613 17.8618 3.25046 17.8623C3.24944 15.696 3.24995 13.5292 3.25046 11.3628C5.14613 11.3623 7.04129 11.3623 8.93695 11.3628Z" fill="#01D1B2" />
				<path d="M26 18.6062C25.97 18.1975 25.6009 17.8511 25.1885 17.8628C23.2756 17.8618 21.3627 17.8628 19.4502 17.8623C18.4107 17.8684 17.3809 18.296 16.6461 19.0318C16.0707 19.5914 15.6782 20.3282 15.5147 21.1123C14.3889 21.1118 13.263 21.1123 12.1372 21.1118C11.0982 21.1194 10.0679 21.5455 9.33359 22.2818C8.64652 22.9501 8.21539 23.8723 8.13871 24.828C8.11789 25.0824 8.09555 25.3607 8.23621 25.5882C8.3723 25.836 8.64703 25.9695 8.91973 26H25.1773C25.5871 25.9898 25.9599 25.673 26 25.2591V18.6062ZM24.3745 19.4878C24.375 21.1123 24.3755 22.7373 24.3745 24.3623C19.5462 24.3618 14.7184 24.3633 9.89016 24.3618C10.1502 23.6305 10.7737 23.0395 11.5223 22.8313C12.0021 22.6875 12.5074 22.751 13.0005 22.7373C15.1668 22.7388 17.3327 22.7388 19.499 22.7373C19.8199 22.7429 20.1317 22.5377 20.2511 22.2396C20.3821 21.9345 20.3029 21.5536 20.0561 21.3302C19.8956 21.1748 19.6696 21.1021 19.4487 21.1113C18.6992 21.1133 17.9502 21.1123 17.2011 21.1118C17.5398 20.1459 18.5245 19.4538 19.5518 19.4868C21.159 19.4888 22.7668 19.4868 24.3745 19.4878Z" fill="#01D1B2" />
			</g>
			<defs>
				<clipPath id="clip0">
					<rect width="26" height="26" fill="white" transform="matrix(-1 0 0 1 26 0)" />
				</clipPath>
			</defs>
		</symbol>
		<symbol id="edit" viewBox="0 0 16 16">
			<title>
				edit
			</title>
			<path d="M12.7167 0H13.425C14.7517 0.155 15.8533 1.26167 16 2.59V3.23167C15.85 4.67833 14.5617 5.50667 13.665 6.49167C10.8983 9.22 8.18 12.0017 5.405 14.7183C3.82 15.1883 2.19833 15.5517 0.605 16H0.488333C0.37 15.8017 0.2 15.635 0 15.52V15.4417C0.366667 13.955 0.788333 12.4817 1.14667 10.9917C1.215 10.4767 1.68167 10.1917 2.00833 9.84333C4.95667 6.9 7.90333 3.95667 10.84 1.00333C11.3483 0.488333 12.005 0.135 12.7167 0ZM11.7983 1.48333C12.7033 2.395 13.61 3.30333 14.5233 4.20667C14.7483 3.84333 14.9783 3.45833 15 3.01833C15.0633 2.10833 14.3767 1.23833 13.4917 1.04833C12.89 0.88 12.2867 1.14667 11.7983 1.48333ZM10.42 2.9C11.3233 3.78667 12.2117 4.68667 13.1067 5.58167C13.3283 5.36 13.55 5.13667 13.7717 4.915C12.8733 4.02 11.98 3.12 11.08 2.22667C10.86 2.45 10.64 2.675 10.42 2.9ZM2.60833 10.7067C3.065 10.9 3.52 11.095 3.97667 11.2883C6.21 9.06333 8.43833 6.83167 10.6683 4.6C10.34 4.27667 10.0133 3.95167 9.68667 3.62833C7.325 5.985 4.965 8.34333 2.60833 10.7067ZM11.3983 5.33167C9.17167 7.56167 6.93833 9.785 4.71667 12.0183C4.91 12.475 5.105 12.9317 5.3 13.3883C7.65833 11.03 10.0167 8.675 12.3717 6.31333C12.0483 5.985 11.7233 5.65833 11.3983 5.33167ZM2.055 11.57C1.765 12.6433 1.49167 13.72 1.20667 14.7933C2.28 14.5083 3.35667 14.235 4.43 13.945C4.17833 13.3983 3.995 12.8167 3.68833 12.2967C3.16833 12.005 2.59667 11.8167 2.055 11.57Z" fill="#1ABC9C" />
		</symbol>
		<symbol id="remove" viewBox="0 0 16 16">
			<title>
				remove
			</title>
			<path d="M5.20668 1.21999C5.46335 0.774987 5.96668 0.489987 6.48168 0.504987C7.49002 0.49332 8.50002 0.496654 9.50835 0.501654C10.1517 0.47332 10.765 0.931654 10.94 1.54665C11.01 1.85999 10.9984 2.18165 11.0117 2.49999C12.345 2.50665 13.6767 2.48832 15.0084 2.50499C15.495 2.46332 15.7 3.18665 15.2817 3.42332C14.8717 3.58499 14.4 3.47165 13.9667 3.49999C13.6567 7.04999 13.3817 10.605 13.0684 14.155C13.025 14.935 12.285 15.5533 11.515 15.5C9.17335 15.5 6.83168 15.5 4.49002 15.5C3.72002 15.555 2.98002 14.94 2.93335 14.1617C2.61835 10.61 2.34502 7.05332 2.03335 3.49999C1.60002 3.47332 1.13335 3.58165 0.721684 3.42499C0.300018 3.19332 0.501684 2.46665 0.988351 2.50499C2.32002 2.48832 3.65502 2.50665 4.98835 2.49999C5.01335 2.06999 4.95668 1.59832 5.20668 1.21999ZM6.34002 1.52665C5.94168 1.68665 6.00168 2.15165 5.98502 2.49999C7.32835 2.49999 8.67168 2.49999 10.015 2.49999C9.99669 2.15165 10.06 1.68165 9.65502 1.52665C8.55335 1.47999 7.44168 1.47999 6.34002 1.52665ZM3.04168 3.49999C3.33835 6.95165 3.61835 10.405 3.90835 13.8567C3.88668 14.1967 4.12835 14.5417 4.49835 14.495C6.83502 14.5033 9.17335 14.5033 11.51 14.495C11.8767 14.5383 12.1117 14.1917 12.0917 13.8567C12.3817 10.4033 12.6617 6.95165 12.9584 3.49999C9.65335 3.49999 6.34668 3.49999 3.04168 3.49999Z" fill="#EC4B54" />
			<path d="M6.22178 6.07504C6.51845 5.83837 7.02512 6.10004 6.99512 6.48337C6.99512 8.20837 7.02345 9.93837 6.98012 11.6634C6.84179 12.19 5.96845 12.07 6.00512 11.5167C5.98678 9.95671 6.01178 8.39671 5.99512 6.83671C6.00345 6.57171 5.95345 6.23504 6.22178 6.07504Z" fill="#EC4B54" />
			<path d="M9.21648 6.07817C9.50981 5.8365 10.0198 6.0965 9.99481 6.4765C10.0048 8.15984 10.0048 9.84317 9.99481 11.5265C10.0215 12.0748 9.14981 12.1865 9.01981 11.6598C8.96648 10.1032 9.02148 8.54484 8.99481 6.98817C9.01981 6.68317 8.90814 6.27484 9.21648 6.07817Z" fill="#EC4B54" />
		</symbol>
		<symbol id="map-marker" viewBox="0 0 11 13">
			<title>
				map-marker
			</title>
			<path d="M5.3375 0H5.68174C6.23164 0.0272461 6.77861 0.139746 7.28779 0.351562C8.16758 0.713086 8.93135 1.35029 9.44404 2.15156C9.94121 2.91738 10.2014 3.83291 10.1873 4.74551C10.1694 5.29512 10.0062 5.82715 9.81348 6.33809C9.42178 7.35791 8.89121 8.31738 8.33662 9.25605C7.68008 10.3509 6.97227 11.4144 6.22988 12.4523C6.13818 12.5742 6.06172 12.7104 5.94248 12.8083C5.75029 12.9674 5.4708 13.0075 5.23994 12.9146C5.10107 12.8631 4.98828 12.7594 4.9042 12.6396C4.00215 11.3842 3.14141 10.0969 2.37148 8.75596C1.90479 7.93418 1.46328 7.09336 1.13691 6.20478C0.961133 5.71699 0.817285 5.2084 0.812012 4.68633C0.812598 4.19004 0.889355 3.69346 1.04551 3.22207C1.35342 2.27549 1.97568 1.43584 2.78867 0.861914C3.5293 0.331641 4.42812 0.0336914 5.3375 0ZM4.79346 1.00488C3.93184 1.16543 3.13848 1.64678 2.58799 2.32734C2.08584 2.94141 1.78936 3.71895 1.7542 4.51143C1.72754 4.84834 1.80137 5.18262 1.89482 5.5043C2.05361 6.03838 2.28066 6.54902 2.52441 7.04912C3.00957 8.03027 3.57412 8.96953 4.16475 9.89004C4.59395 10.556 5.03926 11.2116 5.5001 11.8562C6.22461 10.8413 6.91484 9.80127 7.55439 8.73076C8.02695 7.93271 8.47637 7.11768 8.83408 6.26104C9.00459 5.84268 9.1581 5.41348 9.22842 4.96582C9.26445 4.74697 9.25068 4.52402 9.23047 4.3043C9.17773 3.78867 9.01777 3.2833 8.75879 2.83389C8.34775 2.11055 7.68945 1.53018 6.91865 1.21611C6.25098 0.941309 5.50244 0.867188 4.79346 1.00488Z" fill="#01D1B2" />
			<path d="M5.16779 2.36626C5.60666 2.30386 6.06311 2.36685 6.46682 2.55025C7.00178 2.79078 7.43948 3.2399 7.6636 3.78189C7.85755 4.24156 7.89593 4.76392 7.77757 5.2482C7.64368 5.80425 7.29505 6.30347 6.82249 6.62457C6.3886 6.92369 5.85071 7.06578 5.32541 7.02535C4.86721 6.99312 4.42043 6.82085 4.0589 6.53755C3.6382 6.2106 3.33322 5.73658 3.21574 5.21626C3.08537 4.65582 3.16916 4.0482 3.45129 3.54576C3.79933 2.9147 4.45236 2.46236 5.16779 2.36626ZM5.25305 3.30376C4.69406 3.3981 4.22267 3.86304 4.12043 4.42056C4.02287 4.89107 4.1966 5.40201 4.55256 5.72281C4.85842 6.0064 5.29494 6.14351 5.70744 6.07759C6.08567 6.0231 6.43489 5.80308 6.65227 5.4896C6.86204 5.19371 6.94934 4.81285 6.88665 4.45542C6.82629 4.08628 6.60891 3.74791 6.30188 3.53521C6.00188 3.32251 5.61457 3.23609 5.25305 3.30376Z" fill="#01D1B2" />
		</symbol>
	</defs>
</svg>
