<svg style="position: absolute; width: 0; height: 0; overflow: hidden;" version="1.1"
    xmlns="http://www.w3.org/2000/svg">
    <defs>
        <symbol id="cat-1" viewBox="0 0 72 73">
            <title>cat-1</title>
            <g clip-path="url(#clip0)">
                <g style="mix-blend-mode:multiply">
                    <path
                        d="M46.7855 5.32304L46.7912 5.61129L47.0795 5.61702C47.4261 5.62392 47.7591 5.62012 48.0866 5.61638C48.589 5.61065 49.0784 5.60506 49.5842 5.63844C50.5081 5.72987 51.2733 6.6124 51.2517 7.54465L51.2514 7.54464L51.2517 7.55739C51.2697 8.48438 50.5139 9.36167 49.5952 9.45788C49.1874 9.48665 48.7762 9.48815 48.3566 9.48435C48.2638 9.48351 48.1704 9.4824 48.0765 9.48129C47.7475 9.47738 47.4125 9.47341 47.079 9.48057L46.7895 9.48678L46.7855 9.7763C46.7807 10.1175 46.7835 10.4474 46.7862 10.7735C46.7901 11.2376 46.794 11.694 46.7759 12.1639L46.7759 12.1642C46.7414 13.0849 45.9199 13.8959 44.9966 13.9415L44.9965 13.9412L44.983 13.9425C44.012 14.0345 43.0458 13.2584 42.9447 12.2917C42.9159 11.8839 42.9144 11.4727 42.9182 11.0529C42.919 10.9601 42.9201 10.8667 42.9212 10.7728C42.9251 10.4435 42.9291 10.1082 42.922 9.77407L42.9158 9.48871L42.6305 9.48062C42.2924 9.47103 41.9512 9.47622 41.6177 9.48128C41.5068 9.48296 41.3969 9.48463 41.2881 9.48574C40.8499 9.49022 40.4238 9.4859 40.0038 9.44126C39.0832 9.28742 38.3751 8.35342 38.4588 7.41935L38.459 7.41937L38.4596 7.40769C38.5064 6.4801 39.3213 5.65757 40.2455 5.62668L40.2471 5.62662C40.7153 5.60855 41.1694 5.61239 41.6316 5.6163C41.9565 5.61905 42.2855 5.62183 42.6262 5.61705L42.9137 5.61303L42.9219 5.3256C42.9316 4.98395 42.9264 4.63946 42.9213 4.30272C42.9197 4.19598 42.9181 4.09001 42.917 3.98516C42.9123 3.54785 42.9159 3.12243 42.9585 2.70307C43.0984 1.89023 43.8337 1.23655 44.6644 1.15367H45.0485C45.9157 1.24058 46.6754 1.95868 46.7669 2.81725C46.7973 3.31711 46.7918 3.80014 46.7861 4.29547C46.7823 4.62943 46.7785 4.96897 46.7855 5.32304Z"
                        fill="#01D1B2" stroke="white" stroke-width="0.6" />
                    <path
                        d="M11.7874 10.1498L11.7879 10.1497C12.4398 10.0011 13.14 10.0557 13.7348 10.3387L13.7347 10.3389L13.7446 10.3432C14.8191 10.8077 15.57 11.9548 15.5485 13.124L15.5484 13.124L15.5485 13.1343C15.5675 14.302 14.8199 15.4498 13.7453 15.9112L13.7452 15.9111L13.7362 15.9153C12.9294 16.2941 11.9471 16.2754 11.153 15.8708L11.1531 15.8707L11.1461 15.8673C10.2004 15.416 9.52918 14.4312 9.44685 13.3863L9.44696 13.3863L9.44612 13.3783C9.2924 11.9243 10.3595 10.4729 11.7874 10.1498Z"
                        fill="#01D1B2" stroke="white" stroke-width="0.6" />
                    <path
                        d="M30.9002 10.1605L30.9002 10.1608L30.9137 10.1567C31.6025 9.94636 32.4136 10.1628 32.8855 10.7004C35.7075 14.2801 37.252 18.8681 37.075 23.427L37.0749 23.4283C36.9979 25.6718 36.5703 27.9066 35.7502 29.993C35.7346 30.0314 35.7192 30.0694 35.704 30.107C35.5094 30.5881 35.3418 31.0026 35.0099 31.2888L35.003 31.2947L34.9965 31.3011C34.3106 31.969 33.0794 31.9697 32.3957 31.3014L32.3899 31.2958L32.3839 31.2904C31.8015 30.7797 31.5964 29.8771 31.8967 29.163C33.4951 25.5257 33.6693 21.2654 32.2939 17.526C31.718 15.8959 30.8289 14.4055 29.8209 13.0324C29.4829 12.5392 29.447 11.9008 29.6589 11.3345C29.8713 10.767 30.3188 10.3087 30.9002 10.1605Z"
                        fill="#9F9F9F" stroke="white" stroke-width="0.6" />
                    <path
                        d="M62.3544 16.9352L62.3524 16.9423L62.3507 16.9494C62.1688 17.7383 61.4285 18.3636 60.6237 18.3991C58.7878 18.4191 56.905 18.6375 55.1603 19.3348C52.21 20.4767 49.8313 23.004 48.9072 26.0361L48.9072 26.0361L48.9065 26.0386C48.6184 27.0142 47.4179 27.5938 46.4615 27.2335L46.4532 27.2303L46.4446 27.2277C45.471 26.9257 44.8992 25.7394 45.2486 24.7752L45.2488 24.7753L45.2528 24.7628C46.1743 21.8248 48.0979 19.2051 50.6088 17.4222C52.8376 15.8518 55.4988 14.9346 58.2138 14.6543C58.3462 14.6439 58.4777 14.6328 58.6083 14.6218C59.3835 14.5565 60.1285 14.4937 60.8667 14.5828C61.9052 14.7567 62.6414 15.9204 62.3544 16.9352Z"
                        fill="#9F9F9F" stroke="white" stroke-width="0.6" />
                    <path
                        d="M23.7153 32.7935L23.7171 32.7949C24.4447 33.3244 24.6856 34.4125 24.2621 35.2079L24.2619 35.2078L24.257 35.218C23.892 35.9706 22.9772 36.4052 22.1565 36.2274L22.1566 36.2271L22.1452 36.2251C21.8971 36.1813 21.6685 36.0687 21.4297 35.9152C21.3101 35.8383 21.1925 35.7541 21.0686 35.6651L21.054 35.6546C20.9371 35.5707 20.8143 35.4824 20.6883 35.4002C18.5096 33.9296 16.1875 32.6682 13.7655 31.6455L13.7636 31.6447C10.8552 30.4389 7.73384 29.5586 4.53399 29.5575C3.65497 29.5213 2.86656 28.7763 2.76739 27.9017L2.76772 27.9016L2.76548 27.8877C2.61987 26.9842 3.23467 26.0286 4.115 25.7846C4.45319 25.6997 4.80668 25.6857 5.18139 25.6991C5.36932 25.7059 5.5586 25.7193 5.75345 25.7333L5.76567 25.7342C5.95275 25.7477 6.14516 25.7615 6.33723 25.7689C11.1471 26.1641 15.7225 28.0151 19.9295 30.371C21.2356 31.1199 22.5141 31.9054 23.7153 32.7935Z"
                        fill="#9F9F9F" stroke="white" stroke-width="0.6" />
                    <path
                        d="M67.2147 25.9263L67.2146 25.9265L67.2257 25.9309C68.343 26.375 69.1345 27.5515 69.1093 28.7507L69.1091 28.7507L69.1093 28.7616C69.1282 29.9908 68.2941 31.1873 67.1361 31.6032L67.136 31.6029L67.123 31.6083C65.8727 32.1248 64.3053 31.6189 63.5488 30.4961L63.5488 30.496L63.545 30.4906C62.9394 29.6336 62.8174 28.4555 63.2643 27.5115L63.2644 27.5115L63.2686 27.5018C63.6374 26.6459 64.4346 26.0003 65.3459 25.7724C65.9718 25.6307 66.6398 25.6706 67.2147 25.9263Z"
                        fill="#01D1B2" stroke="white" stroke-width="0.6" />
                    <path
                        d="M47.0692 35.5737L47.071 35.5735C51.7361 34.9216 56.6065 36.0687 60.521 38.6852C60.6668 38.7894 60.8085 38.8837 60.9468 38.9756C61.1781 39.1294 61.3996 39.2767 61.6138 39.4529C61.9403 39.7216 62.1871 40.0129 62.3018 40.3871L62.3044 40.3955L62.3074 40.4037C62.6531 41.3331 62.1256 42.4846 61.1964 42.8206L61.1963 42.8203L61.1845 42.8252C60.5396 43.0898 59.7622 42.9513 59.2144 42.5047L59.2146 42.5045L59.2044 42.4969C56.8733 40.7561 54.0766 39.5945 51.1563 39.3378C48.4609 39.0781 45.7024 39.5364 43.2273 40.6256C42.2232 41.0082 40.9779 40.3299 40.7443 39.2812L40.7427 39.2741L40.7408 39.2671C40.5002 38.3897 40.9831 37.3907 41.8154 37.0286L41.8154 37.0286L41.8194 37.0268C43.4758 36.2766 45.2584 35.8161 47.0692 35.5737Z"
                        fill="#9F9F9F" stroke="white" stroke-width="0.6" />
                    <path
                        d="M24.8377 39.4624L24.8399 39.4616C26.1853 38.9807 27.6922 38.9661 29.0453 39.4216L29.0475 39.4223C30.9124 40.0341 32.4496 41.5713 33.0628 43.435L33.0636 43.4373C33.5323 44.8236 33.5058 46.3705 32.9929 47.7413L32.9922 47.7431C32.2577 49.7443 30.4467 51.3158 28.3573 51.7411L28.3573 51.7411L28.3515 51.7424C26.9773 52.0501 25.5155 51.8499 24.2201 51.2768L24.0322 51.1936L23.8868 51.3388C19.1038 56.1128 14.3257 60.8926 9.54768 65.6723C7.63742 67.5833 5.72716 69.4942 3.8166 71.4048L3.81654 71.4047L3.81187 71.4096C3.5123 71.723 3.08905 71.904 2.63162 71.9683H2.25861C1.36106 71.882 0.599144 71.1235 0.519482 70.2275V69.8521C0.588888 69.4178 0.734839 69.0238 1.01143 68.7483L1.01206 68.7477C4.04876 65.7053 7.0899 62.6654 10.1313 59.6252C13.8065 55.9514 17.482 52.2773 21.1505 48.5981L21.2961 48.4521L21.212 48.264C20.6193 46.9364 20.4297 45.4295 20.7708 44.0228L20.7708 44.0228L20.772 44.0174C21.2346 41.9423 22.8302 40.1621 24.8377 39.4624ZM29.461 44.9155C29.1845 43.5932 27.7423 42.6814 26.4257 43.0269C25.1881 43.2902 24.298 44.5739 24.4947 45.8273C24.6602 47.2122 26.1098 48.2864 27.495 47.9648C28.853 47.7272 29.8124 46.2572 29.461 44.9155Z"
                        fill="#9F9F9F" stroke="white" stroke-width="0.6" />
                    <path
                        d="M37.5999 45.8665L37.6 45.8668L37.6111 45.8633C38.3847 45.6202 39.2964 45.9407 39.7527 46.6143L39.7526 46.6143L39.7571 46.6206C41.5913 49.1843 43.118 51.967 44.3615 54.8684C45.7835 58.2221 46.7455 61.8022 46.7896 65.4387L46.7895 65.4387L46.7897 65.4457C46.8095 66.005 46.612 66.5645 46.2238 66.9409L46.2237 66.9408L46.2181 66.9466C45.6949 67.4817 44.8348 67.6558 44.1404 67.3711L44.1404 67.371L44.133 67.3682C43.4625 67.1136 42.9678 66.4421 42.9317 65.7276C42.9276 62.4507 42.012 59.2568 40.7573 56.2869L40.7573 56.2869L40.7564 56.2849C39.745 53.9377 38.5172 51.6813 37.0853 49.5636C37.0103 49.451 36.93 49.339 36.8529 49.2313C36.8349 49.2062 36.8171 49.1813 36.7996 49.1568C36.7048 49.0239 36.6157 48.8961 36.5362 48.7665C36.3776 48.5076 36.2679 48.2571 36.2407 47.9854L36.2399 47.9778L36.2388 47.9703C36.1009 47.0601 36.714 46.1077 37.5999 45.8665Z"
                        fill="#9F9F9F" stroke="white" stroke-width="0.6" />
                    <path
                        d="M33.7394 57.1703L33.7393 57.1705L33.7501 57.1748C34.8662 57.619 35.6577 58.7929 35.6338 59.9922L35.6336 59.9922L35.6338 60.0027C35.6514 61.1665 34.9077 62.3106 33.8366 62.7748L33.8365 62.7746L33.8277 62.7788C33.0211 63.16 32.0363 63.1426 31.2397 62.7367L31.2397 62.7366L31.2324 62.7331C30.2894 62.2844 29.6181 61.3034 29.532 60.2622L29.5321 60.2622L29.5313 60.2546C29.3738 58.7981 30.4409 57.3415 31.87 57.0157C32.4966 56.8745 33.1647 56.9155 33.7394 57.1703Z"
                        fill="#01D1B2" stroke="white" stroke-width="0.6" />
                    <path
                        d="M56.0302 65.873C56.1459 66.8927 57.054 67.756 58.0847 67.7951C58.5554 67.8133 59.0271 67.8094 59.4991 67.8056C59.8244 67.803 60.1499 67.8003 60.4754 67.8049L56.0302 65.873ZM56.0302 65.873C55.8349 64.6958 56.7541 63.4781 57.9452 63.3652L56.0302 65.873ZM62.7054 59.1752L62.7054 59.1754L62.7185 59.1752C63.649 59.1573 64.5257 59.9202 64.6202 60.8438C64.645 61.25 64.6458 61.6595 64.6423 62.077C64.6417 62.1597 64.6408 62.2429 64.6399 62.3265C64.6365 62.6635 64.6329 63.0062 64.6403 63.3479L64.6465 63.6357L64.9343 63.6414C65.2801 63.6483 65.6124 63.6443 65.9392 63.6404C66.4431 63.6344 66.934 63.6285 67.4415 63.6628C68.4097 63.759 69.194 64.7269 69.1008 65.6994L69.1005 65.6993L69.0998 65.7129C69.0555 66.5944 68.3202 67.3894 67.4459 67.4822C67.0386 67.5103 66.6277 67.5118 66.2085 67.5082C66.1167 67.5074 66.0244 67.5063 65.9316 67.5053C65.6019 67.5016 65.2663 67.4978 64.9324 67.5049L64.6446 67.5111L64.6389 67.7989C64.632 68.1455 64.6358 68.4785 64.6396 68.8061C64.6453 69.3084 64.6509 69.7978 64.6175 70.3035C64.5317 71.1629 63.7683 71.8812 62.8992 71.9683H62.5149C61.6477 71.8826 60.8863 71.1672 60.7967 70.3096C60.7693 69.9028 60.7681 69.4925 60.7719 69.0737C60.7728 68.9846 60.7738 68.8949 60.7748 68.8047C60.7787 68.4728 60.7826 68.135 60.7754 67.7984L60.7692 67.5089L60.4796 67.5049C60.1384 67.5001 59.8086 67.5029 59.4828 67.5056C59.0195 67.5096 58.5644 67.5134 58.0963 67.4953L58.0961 67.4953C57.217 67.462 56.4277 66.7151 56.3282 65.8392L56.3274 65.8315L56.3261 65.8239C56.159 64.8163 56.9569 63.7626 57.97 63.6642C58.377 63.636 58.7875 63.6345 59.2067 63.6381C59.2983 63.6389 59.3905 63.64 59.4831 63.641C59.8126 63.6448 60.1479 63.6486 60.4819 63.6414L60.7697 63.6352L60.7754 63.3474C60.7823 62.9973 60.7784 62.6612 60.7746 62.3307C60.7687 61.8307 60.763 61.3435 60.7954 60.8403C60.8909 59.9156 61.7725 59.1524 62.7054 59.1752Z"
                        fill="#01D1B2" stroke="white" stroke-width="0.6" />
                </g>
            </g>
            <defs>
                <clipPath id="clip0">
                    <rect width="71.4146" height="71.4146" fill="white" transform="translate(0.219482 0.853668)" />
                </clipPath>
            </defs>
        </symbol>
        <symbol id="cat-2" viewBox="0 0 76 76" fill="none">
            <title>cat-2</title>
            <g clip-path="url(#clip0)">
                <g style="mix-blend-mode:multiply">
                    <path
                        d="M61.9899 2.0896L61.9898 2.08975L61.9991 2.09376C62.7053 2.39947 63.2009 3.13453 63.1971 3.89903H63.1971L63.1971 3.90382C63.2015 4.29511 63.2004 4.68717 63.1991 5.0815L63.199 5.1231C63.1977 5.50305 63.1965 5.88517 63.2 6.26719L63.2026 6.54868L63.4837 6.56398C63.8545 6.58417 64.2356 6.57382 64.6021 6.56387C64.7499 6.55985 64.8953 6.55591 65.0368 6.55405C65.5398 6.54744 66.0163 6.56569 66.4744 6.6805C67.5678 6.99826 68.1743 8.3758 67.6889 9.41048L67.6887 9.41038L67.6841 9.42134C67.3792 10.1444 66.608 10.6496 65.8294 10.6184L65.8294 10.6182L65.8186 10.6182C65.4861 10.6169 65.1551 10.6165 64.8245 10.616C64.3847 10.6154 63.9455 10.6149 63.5046 10.6124L63.2099 10.6107L63.203 10.9053C63.1937 11.2987 63.1964 11.6919 63.199 12.0797C63.1993 12.1235 63.1996 12.1672 63.1998 12.2108C63.2026 12.6411 63.2036 13.0651 63.1874 13.4874C63.1122 14.4731 62.1759 15.3083 61.1877 15.2721L61.1764 15.2717L61.165 15.2722C60.1779 15.3108 59.2394 14.4792 59.1618 13.4953C59.1442 13.0718 59.1445 12.6465 59.147 12.215C59.1473 12.1576 59.1477 12.1 59.1481 12.0424C59.1505 11.6669 59.153 11.2863 59.1447 10.9058L59.1383 10.6118L58.8443 10.6124C58.5907 10.6128 58.3378 10.6138 58.0852 10.6148C57.5191 10.6171 56.9549 10.6193 56.3896 10.6153C55.396 10.601 54.5094 9.69372 54.4969 8.69722L54.4968 8.6889L54.4962 8.6806C54.4273 7.66937 55.2462 6.69283 56.2543 6.59236C56.6751 6.5602 57.1001 6.5579 57.5345 6.56151C57.6323 6.56232 57.7308 6.56344 57.8299 6.56457C58.1683 6.56841 58.513 6.57233 58.8562 6.56435L59.1383 6.55778L59.149 6.27575C59.1627 5.91127 59.1555 5.54207 59.1484 5.18318C59.146 5.05865 59.1436 4.93536 59.1421 4.81394C59.1362 4.33875 59.1437 3.88033 59.2098 3.43158C59.4684 2.26528 60.9074 1.57718 61.9899 2.0896Z"
                        fill="#01D1B2" stroke="white" stroke-width="0.6" />
                    <path
                        d="M19.0325 9.58146L19.0323 9.57297C19.0101 8.68193 18.5432 7.85474 17.8445 7.28757C17.1458 6.72034 16.2395 6.43296 15.3651 6.59021L19.0325 9.58146ZM19.0325 9.58146L19.0332 9.58992M19.0325 9.58146L19.0332 9.58992M19.0332 9.58992C19.161 11.1559 17.9284 12.6874 16.3729 12.9215L16.3729 12.9214M19.0332 9.58992L16.3729 12.9214M16.3729 12.9214L16.3628 12.9232M16.3729 12.9214L16.3628 12.9232M16.3628 12.9232C15.0124 13.174 13.5404 12.4051 12.9711 11.1556L12.9714 11.1555M16.3628 12.9232L12.9714 11.1555M12.9714 11.1555L12.9651 11.1433M12.9714 11.1555L12.9651 11.1433M12.9651 11.1433C12.5343 10.3014 12.5357 9.25594 12.9517 8.40404L12.9518 8.40409M12.9651 11.1433L12.9518 8.40409M12.9518 8.40409L12.9552 8.39662M12.9518 8.40409L12.9552 8.39662M12.9552 8.39662C13.3864 7.44862 14.3291 6.77675 15.365 6.59022L12.9552 8.39662Z"
                        fill="#01D1B2" stroke="white" stroke-width="0.6" />
                    <path
                        d="M26.3062 24.9695C26.3149 25.7134 26.729 26.4341 27.3582 26.8278L26.3062 24.9695ZM26.3062 24.9695C26.2994 24.5439 26.3009 24.1183 26.3025 23.6926C26.3038 23.3075 26.3052 22.9224 26.3004 22.5373L26.3062 24.9695ZM29.3761 13.6867L29.376 13.6869L29.3875 13.6913C30.1259 13.9761 30.655 14.7338 30.6513 15.5211L30.6512 15.5211L30.6513 15.5259C30.6556 15.9179 30.6545 16.3103 30.6533 16.7048L30.6531 16.7463C30.6519 17.1265 30.6507 17.5086 30.6542 17.8907L30.6568 18.1752L30.941 18.1876C31.3025 18.2035 31.6703 18.1953 32.0262 18.1874C32.1549 18.1845 32.2821 18.1817 32.4069 18.1801C32.8841 18.1738 33.3415 18.184 33.7869 18.2638C34.9211 18.5013 35.6239 19.8694 35.1795 20.9451L35.1793 20.945L35.1751 20.9565C34.8954 21.72 34.102 22.2717 33.2943 22.2419L33.2943 22.2417L33.2843 22.2417C32.7666 22.2397 32.2486 22.2391 31.7311 22.2384C31.4726 22.2381 31.2143 22.2378 30.9562 22.2373L30.6599 22.2368L30.6556 22.533C30.6499 22.9332 30.6515 23.3325 30.6531 23.7287L30.6533 23.7583C30.6549 24.1651 30.6563 24.5686 30.6498 24.972L30.6498 24.9721C30.6398 25.6067 30.2831 26.2304 29.7451 26.5697L29.745 26.5697L29.7387 26.5738C29.0894 27.0067 28.1728 27.0078 27.5239 26.5778L27.5239 26.5777L27.5173 26.5735C26.9727 26.2327 26.6137 25.6054 26.6062 24.966L26.6062 24.9647C26.5997 24.5627 26.6008 24.1601 26.6022 23.7545L26.6025 23.6929C26.6038 23.3084 26.6053 22.9211 26.6004 22.5335L26.5967 22.2373H26.3004C26.0046 22.2373 25.7101 22.2382 25.4163 22.2392C24.8897 22.2408 24.3651 22.2425 23.8382 22.2388C22.7984 22.2219 21.8904 21.228 21.9505 20.1863L21.9511 20.1771L21.951 20.1679C21.9473 19.1756 22.7946 18.2711 23.7857 18.2063C24.2923 18.1793 24.7856 18.1836 25.2893 18.188C25.6218 18.1909 25.9588 18.1939 26.307 18.1879L26.5928 18.183L26.6017 17.8973C26.6129 17.5382 26.6076 17.1762 26.6024 16.8223C26.6008 16.7084 26.5991 16.5954 26.598 16.4837C26.5936 16.0224 26.5984 15.5739 26.6469 15.1322C26.8581 13.9544 28.2755 13.2096 29.3761 13.6867Z"
                        fill="#01D1B2" stroke="white" stroke-width="0.6" />
                    <path
                        d="M1.59372 24.5186L1.59381 24.5187L1.5998 24.5123C2.24227 23.8285 3.39218 23.7016 4.16581 24.233C10.3956 28.6721 17.4583 31.8358 24.7505 34.0396C30.9735 35.9317 37.3878 37.1467 43.8455 37.8516L43.846 37.8516C53.3797 38.874 63.013 38.801 72.5475 37.8664L72.5546 37.8657L72.5617 37.8647C73.6146 37.7107 74.6622 38.5232 74.8219 39.5772V40.1481C74.7109 40.7578 74.3763 41.3204 73.8641 41.6104L73.864 41.6102L73.8561 41.6151C73.5616 41.794 73.2252 41.8735 72.8473 41.918C72.6708 41.9389 72.4916 41.9515 72.3047 41.9647L72.2636 41.9676C72.0648 41.9816 71.8575 41.997 71.6529 42.0245L71.4819 42.0476L71.4159 42.207C70.4659 44.4984 69.5287 46.7971 68.5919 49.0949C67.9298 50.7187 67.268 52.3421 66.602 53.962C65.9094 55.6425 64.2479 56.8689 62.4428 57.0762L62.4428 57.0761L62.4337 57.0774C60.238 57.3978 57.8954 56.2036 56.9727 54.1849C56.1491 52.294 55.3404 50.3966 54.5311 48.4979L54.5074 48.4424C53.6901 46.5247 52.8719 44.6057 52.0381 42.6931L51.9634 42.5217L51.7767 42.5133C51.5036 42.5009 51.2266 42.4853 50.9478 42.4696C50.4544 42.4419 49.9551 42.4138 49.4612 42.4026L49.2929 42.3988L49.2019 42.5404C47.9784 44.4462 46.7409 46.3408 45.5028 48.2364C44.6477 49.5455 43.7924 50.8551 42.9411 52.1692C42.7922 52.3869 42.6503 52.6103 42.5113 52.829L42.4997 52.8473C42.3553 53.0745 42.2138 53.2967 42.0655 53.5119C41.7689 53.9423 41.4535 54.3319 41.0631 54.6458L41.0631 54.6457L41.0571 54.6508C39.3509 56.0981 36.6971 56.2325 34.8116 55.0319L34.8116 55.0319L34.8075 55.0293C33.65 54.3181 32.7884 53.1338 32.4983 51.8083C32.1185 50.0445 31.7426 48.2777 31.3666 46.5105C30.8904 44.2727 30.4141 42.0341 29.9296 39.7999L29.8892 39.6137L29.7035 39.5711C28.3417 39.2585 26.9892 38.9081 25.6429 38.5328L25.4812 38.4877L25.3582 38.6019C23.7307 40.1131 22.1125 41.6474 20.4955 43.1805C19.1095 44.4946 17.7244 45.8079 16.3352 47.1049C14.6969 48.545 12.121 48.7092 10.2494 47.594L10.2495 47.594L10.2442 47.591C8.67261 46.6966 7.61484 44.943 7.62219 43.1361C7.65789 41.2735 7.69844 39.4057 7.73901 37.5377C7.78242 35.538 7.82585 33.538 7.86333 31.5438L7.86672 31.3639L7.70962 31.2762C5.74915 30.1818 3.85017 28.9785 2.01271 27.6879L2.00574 27.6831L1.9985 27.6786C1.4833 27.3587 1.1345 26.8085 1.03169 26.2018V25.6466C1.12788 25.2105 1.30372 24.8098 1.59372 24.5186ZM12.3058 33.6402L11.8926 33.4481L11.8795 33.9036C11.8023 36.5827 11.7513 39.2629 11.7003 41.9415C11.6938 42.2865 11.6872 42.6314 11.6806 42.9764C11.6284 43.5188 11.9914 43.943 12.3978 44.1389C12.8068 44.3361 13.3687 44.3537 13.7575 43.9548C14.4178 43.3305 15.079 42.7065 15.7405 42.0824C17.3745 40.5406 19.0097 38.9977 20.6349 37.4448L20.9932 37.1025L20.5238 36.9437C17.7265 35.9972 14.9847 34.8856 12.3058 33.6402ZM34.6895 40.6118L34.2497 40.5297L34.3407 40.9677C34.7744 43.0545 35.2207 45.1399 35.6667 47.2241C35.9192 48.4038 36.1715 49.5832 36.4215 50.7622C36.486 51.2958 36.9152 51.6372 37.3487 51.7504C37.7872 51.8648 38.3354 51.7725 38.6436 51.3144L38.6458 51.3111C40.5783 48.3542 42.508 45.3928 44.4333 42.4286L44.6999 42.0181L44.2131 41.9668C41.021 41.6304 37.8399 41.1999 34.6895 40.6118ZM56.8994 42.6524L56.4435 42.6522L56.6236 43.071C57.2098 44.4337 57.7944 45.7986 58.3791 47.1637C59.1269 48.9097 59.8749 50.6561 60.6266 52.3991L60.6278 52.4018C60.8681 52.9441 61.4336 53.1177 61.9073 53.0506C62.3709 52.9849 62.8571 52.6742 62.9724 52.1203C63.5432 50.7061 64.1234 49.2903 64.7039 47.8738C65.3959 46.1854 66.0883 44.4959 66.7656 42.8069L66.9418 42.3676L66.4693 42.3958C63.2847 42.5857 60.093 42.6539 56.8994 42.6524Z"
                        fill="#9F9F9F" stroke="white" stroke-width="0.6" />
                    <path
                        d="M54.8967 27.5098L54.8967 27.5099L54.9002 27.5091C55.4968 27.3814 56.1347 27.5336 56.7328 27.8056C57.8933 28.3336 58.6625 29.6287 58.553 30.8993L58.5528 30.8993L58.5522 30.9105C58.4757 32.481 57.0715 33.8438 55.4967 33.8914L55.4967 33.8914L55.493 33.8916C54.2122 33.946 52.9318 33.1567 52.4427 31.9742L52.4396 31.9667L52.436 31.9593C51.8806 30.7997 52.1896 29.3035 53.1212 28.4117L53.1213 28.4118L53.1271 28.406C53.5909 27.9369 54.2261 27.6451 54.8967 27.5098Z"
                        fill="#01D1B2" stroke="white" stroke-width="0.6" />
                    <path
                        d="M16.7077 60.7273L16.7075 60.7187C16.6866 59.8277 16.2211 59.0006 15.5235 58.433C14.8258 57.8653 13.92 57.5768 13.0455 57.7321L16.7077 60.7273ZM16.7077 60.7273L16.7084 60.7358M16.7077 60.7273L16.7084 60.7358M16.7084 60.7358C16.8349 62.3033 15.5995 63.8347 14.0429 64.0662L14.0428 64.066M16.7084 60.7358L14.0428 64.066M14.0428 64.066L14.0329 64.0678M14.0428 64.066L14.0329 64.0678M14.0329 64.0678C12.6797 64.316 11.205 63.5403 10.6411 62.2857L10.6381 62.2791M14.0329 64.0678L10.6381 62.2791M10.6381 62.2791L10.6348 62.2725M10.6381 62.2791L10.6348 62.2725M10.6348 62.2725C10.2084 61.4356 10.2133 60.3957 10.627 59.5471L10.6271 59.5472M10.6348 62.2725L10.6271 59.5472M10.6271 59.5472L10.6303 59.5401M10.6271 59.5472L10.6303 59.5401M10.6303 59.5401C11.063 58.5905 12.0071 57.9173 13.0454 57.7322L10.6303 59.5401Z"
                        fill="#01D1B2" stroke="white" stroke-width="0.6" />
                    <path
                        d="M54.4629 60.0576L54.4629 60.058L54.4768 60.0595C55.3844 60.1626 56.1632 60.9646 56.2145 61.873C56.2312 62.3564 56.2281 62.825 56.2249 63.3006C56.2225 63.6556 56.2201 64.0145 56.2259 64.3865L56.2303 64.6687L56.5123 64.6815C56.8754 64.6979 57.2449 64.6896 57.6024 64.6817C57.7313 64.6788 57.8587 64.676 57.9837 64.6743C58.4625 64.668 58.9211 64.6786 59.3673 64.7603C60.4592 64.9967 61.1567 66.2821 60.786 67.3411L60.7859 67.3411L60.7828 67.351C60.5419 68.124 59.7869 68.7155 58.9847 68.7326C58.4641 68.7354 57.9455 68.7341 57.4254 68.7327C57.1267 68.7319 56.8276 68.7312 56.5273 68.7312H56.2333L56.2274 69.0251C56.2197 69.4046 56.2223 69.7843 56.2249 70.1594C56.2253 70.2151 56.2257 70.2707 56.2261 70.3262C56.2288 70.7554 56.2295 71.179 56.2132 71.6008C56.1407 72.5861 55.2046 73.4232 54.2172 73.3895L54.2061 73.3891L54.1949 73.3895C53.2034 73.4295 52.2613 72.5936 52.1877 71.6062C52.1707 71.1838 52.1711 70.7596 52.1736 70.3295C52.1739 70.2696 52.1743 70.2096 52.1747 70.1495C52.1772 69.7779 52.1797 69.4014 52.1721 69.0251L52.1662 68.7317L51.8727 68.7312C51.5316 68.7306 51.193 68.7317 50.8552 68.7328C50.3751 68.7344 49.8967 68.7361 49.4155 68.7326C48.4243 68.7184 47.5392 67.8163 47.5242 66.8211L47.524 66.8124L47.5234 66.8038C47.4495 65.793 48.2669 64.8128 49.2748 64.7111C49.6962 64.6783 50.1222 64.6756 50.5574 64.6791C50.6578 64.6798 50.7589 64.681 50.8606 64.6821C51.1972 64.6858 51.5399 64.6896 51.8806 64.6817L52.167 64.675L52.1735 64.3886C52.1816 64.0343 52.1779 63.6787 52.1743 63.329C52.1733 63.2325 52.1723 63.1364 52.1716 63.041C52.1682 62.5989 52.1701 62.1655 52.1999 61.7356C52.3299 60.6909 53.4216 59.8897 54.4629 60.0576Z"
                        fill="#01D1B2" stroke="white" stroke-width="0.6" />
                </g>
            </g>
            <defs>
                <clipPath id="clip0">
                    <rect width="74.3902" height="74.3902" fill="white" transform="translate(0.731689 0.853668)" />
                </clipPath>
            </defs>
        </symbol>
        <symbol id="cat-3" viewBox="0 0 76 76" fill="none">
            <title>cat-3</title>
            <g clip-path="url(#clip0)">
                <g style="mix-blend-mode:multiply">
                    <path
                        d="M19.3621 2.88467L19.3642 2.88432C23.011 2.27889 26.868 3.19088 29.8842 5.32447C30.6288 5.89947 30.8581 7.03885 30.3991 7.86165L30.3988 7.86151L30.3929 7.87331C29.9985 8.65962 29.0226 9.09541 28.1655 8.8887L28.1655 8.88859L28.1576 8.8869C27.8895 8.8299 27.6441 8.69989 27.3778 8.53308C27.313 8.49248 27.2454 8.44857 27.1755 8.40318C26.9749 8.27284 26.7555 8.13032 26.5295 8.01916C24.3876 6.83813 21.8164 6.45249 19.4248 7.00035C16.6902 7.60899 14.3278 9.36978 12.6981 11.5813L12.6978 11.5817C8.78429 16.9089 8.70477 24.6975 12.4814 30.1158L12.4818 30.1163C14.0002 32.2842 16.1869 34.0782 18.7798 34.8334C21.3607 35.6045 24.2321 35.2709 26.5777 33.9579C26.7527 33.8657 26.9205 33.7599 27.0788 33.6586C27.0979 33.6464 27.1168 33.6343 27.1356 33.6222C27.2769 33.5316 27.4106 33.4459 27.5472 33.3682C27.8547 33.1932 28.1439 33.0789 28.4613 33.0789H28.4746L28.4878 33.0777C29.3505 33.0014 30.2182 33.567 30.506 34.3838L30.5059 34.3839L30.5087 34.3914C30.8217 35.2092 30.529 36.223 29.8187 36.7252C28.5748 37.5923 27.1888 38.2513 25.7358 38.6915L25.3267 38.8154L25.5823 39.158C25.888 39.5676 26.1916 39.9714 26.495 40.3747C26.8289 40.8186 27.1624 41.2621 27.4978 41.7123C28.3375 42.8631 28.5442 44.4449 28.0304 45.7748L28.0303 45.7748L28.0281 45.7809C27.5085 47.2176 26.1764 48.3222 24.6651 48.5428L24.3442 48.5896L24.4158 48.9059C24.9734 51.3699 24.6672 54.0392 23.4339 56.2426L23.4338 56.2425L23.4305 56.2489C22.913 57.2278 22.1798 58.0781 21.3896 58.8929L21.3894 58.8927L21.3819 58.9011C19.3847 61.1205 19.4182 64.7996 21.4569 66.981L21.4631 66.9876L21.4697 66.9939C21.9705 67.4685 22.3256 68.0524 22.2834 68.6812L22.2823 68.698L22.2831 68.7149C22.3328 69.8084 21.2827 70.7987 20.1899 70.7024L20.1732 70.7009L20.1564 70.7013C19.7305 70.7115 19.3594 70.5452 19.0133 70.2738C18.6625 69.9986 18.3561 69.6303 18.0616 69.2621L18.061 69.2614C16.5945 67.4396 15.8011 65.0924 15.8505 62.7549H15.8505L15.8505 62.7497C15.8604 60.1376 16.9513 57.5487 18.8018 55.7052C19.964 54.5504 20.6714 52.9238 20.6293 51.2658C20.6495 50.407 20.4085 49.5888 20.1346 48.8359L20.0637 48.641L19.8563 48.6385C18.7969 48.6256 17.7526 48.4755 16.9212 47.9012L16.9213 47.901L16.9119 47.895C15.291 46.8624 14.5281 44.6681 15.1762 42.8588L15.1788 42.8516L15.1811 42.8441C15.373 42.2067 15.7712 41.6853 16.2031 41.1199C16.306 40.9851 16.4108 40.8478 16.5152 40.7059C16.6424 40.5357 16.7709 40.3651 16.8997 40.194C17.1595 39.849 17.4208 39.502 17.6759 39.1525L17.9263 38.8093L17.5191 38.6881C14.0162 37.6457 11.0038 35.2238 8.97704 32.1895L8.97622 32.1883C6.4228 28.4053 5.33138 23.708 5.73549 19.1668L5.73562 19.1652C6.07941 15.0526 7.68375 11.0211 10.4307 7.9356L10.432 7.93412C12.7341 5.31379 15.913 3.43202 19.3621 2.88467ZM19.0636 44.0813L18.6944 44.5729L19.3091 44.5614C20.3155 44.5425 21.317 44.5488 22.3232 44.5551C22.8656 44.5585 23.4094 44.562 23.956 44.5614L24.5559 44.5609L24.1956 44.0813C23.8765 43.6564 23.5575 43.231 23.2384 42.8056C22.7822 42.1973 22.3259 41.589 21.8694 40.982L21.6298 40.6635L21.39 40.9818C20.9073 41.6224 20.426 42.2646 19.9448 42.9064C19.6511 43.2983 19.3574 43.69 19.0636 44.0813Z"
                        fill="#9F9F9F" stroke="white" stroke-width="0.6" />
                    <path
                        d="M58.2413 28.6987L58.2411 28.6993C57.3414 31.3127 55.7388 33.7297 53.5002 35.4071C51.7117 36.7602 49.482 37.5916 47.2104 37.5583C44.4595 37.6063 41.8021 36.3837 39.8496 34.518C37.7362 32.538 36.343 29.8733 35.7025 27.0825M58.2413 28.6987L35.9948 27.0151M58.2413 28.6987C59.6217 24.6595 59.3888 20.0794 57.5287 16.226C56.2966 13.6727 54.2978 11.4106 51.7078 10.1421C49.8389 9.20644 47.6779 8.87424 45.6157 9.20656M58.2413 28.6987L45.6157 9.20656M35.7025 27.0825C35.7025 27.0824 35.7025 27.0823 35.7024 27.0822L35.9948 27.0151M35.7025 27.0825C35.7025 27.0825 35.7025 27.0825 35.7025 27.0825L35.9948 27.0151M35.7025 27.0825C34.7414 22.9184 35.4064 18.3519 37.7128 14.7199M35.9948 27.0151C35.0504 22.9236 35.7057 18.4399 37.9665 14.8802M37.7128 14.7199C37.7127 14.7201 37.7126 14.7203 37.7125 14.7204L37.9665 14.8802M37.7128 14.7199C39.4559 11.9492 42.2948 9.72556 45.6157 9.20656M37.7128 14.7199C37.713 14.7197 37.7131 14.7195 37.7132 14.7193L37.9665 14.8802M37.9665 14.8802L45.6157 9.20656M44.9268 5.20929L44.9284 5.20903C48.205 4.66861 51.6525 5.33722 54.5057 7.03776L54.5078 7.039C58.0954 9.13769 60.7242 12.6769 62.0687 16.5988C63.6512 21.2232 63.5393 26.4134 61.7323 30.9564L61.732 30.9574C59.9055 35.5952 56.1263 39.582 51.309 41.0142L50.8992 41.1361L51.1532 41.48C51.4263 41.8498 51.7003 42.2124 51.9731 42.5735C52.3799 43.1119 52.784 43.6467 53.1786 44.1968C54.3866 45.9613 53.9785 48.5842 52.3175 49.9255L52.3174 49.9253L52.3094 49.9323C51.4185 50.7055 50.198 50.977 48.9875 50.9573L48.7872 50.9541L48.7075 51.1378C47.7421 53.3613 48.1678 56.1244 49.8856 57.879L49.8855 57.879L49.8911 57.8845C51.7801 59.7156 52.9339 62.2938 52.9775 64.9257L52.9777 64.9311C53.0595 67.284 52.2902 69.6606 50.8314 71.5089C50.5256 71.8931 50.2113 72.2812 49.849 72.573C49.4919 72.8605 49.1085 73.0374 48.6649 73.026L48.648 73.0256L48.6312 73.027C47.5417 73.1219 46.4994 72.1292 46.5479 71.0392L46.5487 71.0223L46.5475 71.0054C46.5042 70.3723 46.8648 69.7886 47.3688 69.3095L47.3754 69.3032L47.3815 69.2966C49.4692 67.0572 49.4345 63.2543 47.2956 61.0587L47.2957 61.0586L47.291 61.054C45.8541 59.6425 44.7994 57.8343 44.3841 55.8679L44.3835 55.8649C44.0467 54.3485 44.0796 52.7542 44.4169 51.2336L44.486 50.9223L44.171 50.8723C42.9707 50.682 41.861 49.9673 41.2201 48.9369L41.2202 48.9368L41.2155 48.9297C40.2738 47.5071 40.2943 45.5171 41.2744 44.1211C41.6658 43.5874 42.0618 43.0618 42.4592 42.5345C42.7222 42.1854 42.9857 41.8357 43.2488 41.4824L43.5049 41.1384L43.094 41.0158C39.5908 39.9704 36.5768 37.5498 34.5487 34.5155L34.548 34.5145C31.9974 30.7329 30.9059 26.0398 31.3058 21.5014L31.3059 21.4999C31.6482 17.3873 33.2512 13.3529 35.9967 10.266L35.998 10.2645C38.2986 7.64278 41.4791 5.7595 44.9268 5.20929ZM44.6353 46.4059L44.2751 46.8855L44.8749 46.8861C45.4318 46.8866 45.9859 46.8832 46.5386 46.8799C47.5345 46.8738 48.526 46.8678 49.5224 46.8846L50.1362 46.8949L49.7672 46.4043C49.4286 45.9541 49.09 45.5026 48.7512 45.0508C48.3149 44.469 47.8783 43.8868 47.4409 43.3064L47.2013 42.9885L46.9617 43.3064C46.4789 43.9472 45.9975 44.5894 45.5163 45.2314C45.2226 45.6232 44.9291 46.0148 44.6353 46.4059Z"
                        fill="#9F9F9F" stroke="white" stroke-width="0.6" />
                    <path
                        d="M70.3483 21.5528L70.3484 21.5531L70.3608 21.5474C71.4076 21.0687 72.7093 21.2656 73.6068 21.993L73.6067 21.9931L73.6135 21.9983C74.2198 22.4616 74.5865 23.1869 74.7975 23.9643V24.9837C74.5532 26.2562 73.5597 27.344 72.2972 27.6154L72.2971 27.6152L72.2856 27.6182C70.7582 28.0105 69.0275 26.9831 68.5689 25.4722L68.5692 25.4721L68.5646 25.4591C68.0341 23.9624 68.8778 22.1466 70.3483 21.5528Z"
                        fill="#01D1B2" stroke="white" stroke-width="0.6" />
                    <path
                        d="M1.78107 52.6134L1.78109 52.6134L1.78384 52.6102C2.63533 51.6139 4.13683 51.2184 5.34329 51.727L5.35029 51.7299L5.35744 51.7325C6.88284 52.2864 7.78398 54.1449 7.24166 55.6757L7.23914 55.6829L7.23698 55.6901C6.75138 57.3167 4.78692 58.3626 3.20206 57.7441L3.19231 57.7403L3.18232 57.7372C2.06772 57.3895 1.24531 56.3665 1.00728 55.2113V54.203C1.17035 53.6061 1.39924 53.0476 1.78107 52.6134Z"
                        fill="#01D1B2" stroke="white" stroke-width="0.6" />
                    <path
                        d="M68.6881 56.2935L68.6882 56.2937L68.6988 56.2911C69.4444 56.1092 70.2567 56.2943 70.945 56.6903C71.9201 57.2679 72.5444 58.3913 72.5225 59.5232C72.4744 60.3663 72.1133 61.1943 71.5018 61.765L71.5017 61.7651C70.6448 62.5658 69.3383 62.8798 68.254 62.452L68.2461 62.4489L68.2382 62.4463C66.6818 61.9311 65.7076 60.0576 66.2532 58.5114L66.2558 58.5038L66.2581 58.4961C66.5829 57.3911 67.5555 56.5264 68.6881 56.2935Z"
                        fill="#01D1B2" stroke="white" stroke-width="0.6" />
                    <path
                        d="M33.6394 65.5543L33.6395 65.5546L33.6516 65.5512C35.0979 65.1494 36.7675 65.9834 37.3357 67.3734L37.339 67.3814L37.3427 67.3892C37.8823 68.5196 37.6025 69.9716 36.7197 70.8677L36.7197 70.8676L36.7147 70.8729C36.1968 71.4248 35.4568 71.7558 34.6868 71.8656C32.9668 72.0269 31.2674 70.5711 31.224 68.8405L31.2238 68.8328L31.2232 68.8252C31.1111 67.3508 32.1976 65.8903 33.6394 65.5543Z"
                        fill="#01D1B2" stroke="white" stroke-width="0.6" />
                </g>
            </g>
            <defs>
                <clipPath id="clip0">
                    <rect width="74.3902" height="74.3902" fill="white" transform="translate(0.707275 0.853668)" />
                </clipPath>
            </defs>

        </symbol>
        <symbol id="cat-4" viewBox="0 0 76 76">
            <title>cat-4</title>
            <g clip-path="url(#clip0)">
                <g style="mix-blend-mode:multiply">
                    <path
                        d="M12.3581 8.02213C12.4162 9.13944 13.3868 10.1245 14.5113 10.1667C15.0026 10.1856 15.4948 10.1816 15.9871 10.1776C16.3263 10.1748 16.6656 10.1721 17.0046 10.1768L12.3581 8.02213ZM12.3581 8.02213C12.2404 6.83654 13.1819 5.66692 14.3704 5.55069L12.3581 8.02213ZM21.354 5.53339L21.3598 5.82336L21.6498 5.82741C22.0045 5.83237 22.3478 5.82949 22.6872 5.82663C23.1705 5.82256 23.646 5.81856 24.1355 5.83739C25.0573 5.87361 25.881 6.65488 25.9879 7.57441L25.9876 7.57444L25.9898 7.58754C26.1603 8.6446 25.331 9.74604 24.2687 9.85316C23.8436 9.88253 23.4149 9.88408 22.9776 9.88029C22.882 9.87947 22.7858 9.87838 22.6891 9.87728C22.3454 9.87339 21.9958 9.86943 21.6475 9.8769L21.3602 9.88307L21.354 10.1704C21.3466 10.5186 21.3505 10.8682 21.3544 11.2119C21.3555 11.3086 21.3566 11.4049 21.3574 11.5005C21.3612 11.9376 21.3597 12.3661 21.3303 12.791C21.2294 13.7539 20.3148 14.5455 19.343 14.5292L19.343 14.5289L19.3306 14.5292C18.3565 14.5531 17.433 13.7628 17.3282 12.7975C17.2982 12.3716 17.2966 11.9419 17.3006 11.5037C17.3014 11.4067 17.3026 11.3091 17.3038 11.211C17.3078 10.8675 17.312 10.5181 17.3045 10.1704L17.2983 9.88091L17.0088 9.87686C16.654 9.8719 16.3105 9.87479 15.9708 9.87765C15.4872 9.88171 15.0116 9.88571 14.5229 9.86688L14.5226 9.86687C13.5576 9.83072 12.708 8.97321 12.6577 8.00655L12.658 8.00653L12.6566 7.9925C12.5552 6.9702 13.377 5.95189 14.3953 5.84969C14.9242 5.81397 15.4365 5.82007 15.9625 5.82634C16.3034 5.8304 16.65 5.83453 17.0105 5.82738L17.2963 5.82171L17.3045 5.53597C17.3146 5.17906 17.3091 4.81958 17.3037 4.46786C17.302 4.35864 17.3003 4.25017 17.2991 4.14275C17.2941 3.68789 17.2975 3.2447 17.3413 2.80691C17.488 1.95216 18.2582 1.26598 19.1288 1.17805H19.5328C20.4399 1.26891 21.2363 2.01805 21.3332 2.91584C21.3669 3.44204 21.361 3.95167 21.3549 4.47391C21.3509 4.81877 21.3468 5.16913 21.354 5.53339Z"
                        fill="#01D1B2" stroke="white" stroke-width="0.6" />
                    <path
                        d="M56.7916 8.1684L56.7993 8.16969L56.807 8.17057C57.7282 8.27586 58.5057 9.10708 58.5433 10.032C58.5534 10.5102 58.5512 10.9798 58.5491 11.454C58.5475 11.7999 58.5459 12.1483 58.549 12.5042L58.5516 12.7962L58.8436 12.8015C59.1984 12.808 59.5415 12.8043 59.8798 12.8008C60.4125 12.7951 60.933 12.7897 61.4681 12.8238C62.527 12.937 63.3586 14.0358 63.1836 15.0895L63.1823 15.0972L63.1814 15.1049C63.0773 16.0244 62.2505 16.8041 61.3273 16.8439C60.8408 16.8574 60.365 16.8545 59.8834 16.8515C59.5424 16.8494 59.1985 16.8473 58.8459 16.851L58.5521 16.8541L58.549 17.1478C58.5454 17.4946 58.5474 17.8332 58.5494 18.1691C58.5522 18.6578 58.5551 19.1404 58.5405 19.6331C58.4995 20.5551 57.7197 21.3805 56.8019 21.4833L56.7944 21.4842L56.7869 21.4854C55.7292 21.6581 54.6298 20.8257 54.5205 19.7623C54.4883 19.2333 54.4936 18.7183 54.499 18.1912C54.5025 17.8501 54.5061 17.5039 54.4996 17.1455L54.4943 16.8563L54.2051 16.851C53.8467 16.8445 53.5005 16.848 53.1594 16.8516C52.6322 16.857 52.1169 16.8623 51.587 16.8301C50.5254 16.7195 49.6972 15.6242 49.8626 14.5675L49.8629 14.5676L49.8643 14.5553C49.9699 13.6335 50.7929 12.8497 51.7172 12.8101C52.21 12.7955 52.6927 12.7983 53.1815 12.8012C53.5173 12.8032 53.856 12.8052 54.2028 12.8015L54.4947 12.7985L54.4996 12.5065C54.5056 12.1438 54.5024 11.7929 54.4992 11.4467C54.4944 10.9282 54.4897 10.42 54.5163 9.89762C54.6279 8.82901 55.7308 7.99097 56.7916 8.1684Z"
                        fill="#01D1B2" stroke="white" stroke-width="0.6" />
                    <path
                        d="M35.9762 18.9111L35.9764 18.9112L35.9797 18.9C36.1922 18.1861 36.8064 17.6105 37.5311 17.4873L37.5383 17.486L37.5454 17.4845C38.4954 17.2749 39.5474 17.8764 39.8373 18.8037L39.8372 18.8038L39.8398 18.8112C41.4214 23.4371 42.994 28.0651 44.5668 32.6934C45.8204 36.3823 47.0739 40.0713 48.3321 43.7594L48.332 43.7595L48.3353 43.7683C48.451 44.0754 48.6017 44.3602 48.7503 44.6284C48.7817 44.6849 48.8128 44.7405 48.8435 44.7954C48.9614 45.0061 49.0738 45.2068 49.1734 45.4159L49.1746 45.4186C50.5613 48.2584 50.7916 51.6351 49.8325 54.6458L49.8322 54.647C49.0253 57.2165 47.3494 59.5042 45.1478 61.0575L45.1458 61.0589C43.238 62.4286 40.9278 63.2017 38.5799 63.3439L38.5878 63.9431C43.1017 64.0979 47.5512 65.74 51.0503 68.5977L51.3016 68.803L51.4866 68.5363C53.417 65.7527 56.2291 63.5904 59.4334 62.4886L60.0466 62.2777L59.4889 61.9469C57.2922 60.6439 55.6069 58.4987 54.9021 56.0445L54.9017 56.0432C54.169 53.533 54.4327 50.7364 55.674 48.437C55.8955 48.0286 56.1255 47.592 56.2788 47.1191C56.8356 45.4816 57.3926 43.844 57.9497 42.2063C59.4358 37.8375 60.922 33.4684 62.4043 29.0985C62.4574 28.9511 62.5026 28.8125 62.5465 28.678C62.6133 28.4731 62.6771 28.2777 62.7608 28.0751C62.8922 27.7573 63.0506 27.4871 63.2845 27.2803L63.2847 27.2804L63.2928 27.2726C64.0202 26.5791 65.2928 26.5757 66.0221 27.2674L66.0219 27.2675L66.03 27.2746C66.2783 27.4938 66.4428 27.7815 66.5789 28.12C66.6471 28.2894 66.7062 28.4664 66.7662 28.6512C66.775 28.6784 66.7839 28.7058 66.7928 28.7334C66.8431 28.8892 66.8953 29.0506 66.9525 29.207C68.9801 35.1765 71.0092 41.1446 73.0397 47.1126C73.1637 47.5008 73.3421 47.8585 73.5182 48.195C73.548 48.252 73.5777 48.3083 73.6071 48.364C73.7549 48.6441 73.8952 48.9101 74.0109 49.1885L74.0109 49.1885L74.0133 49.1939C74.4827 50.2627 74.72 51.4253 74.8219 52.6037V53.6872C74.6745 57.0478 72.7364 60.249 69.8344 61.9459L69.2775 62.2716L69.8854 62.4876C71.333 63.0021 72.7123 63.7029 73.9557 64.5987L73.9556 64.5988L73.9624 64.6034C74.4392 64.9274 74.7458 65.475 74.8219 66.0651V66.5225C74.7064 67.3767 74.0263 68.1247 73.1861 68.258L73.1861 68.2579L73.1794 68.2591C72.6116 68.3625 72.0122 68.2286 71.5581 67.8826L71.5581 67.8825L71.5515 67.8778C69.0269 66.0615 65.7744 65.3088 62.7083 65.8334C59.2384 66.3944 56.0803 68.5828 54.3428 71.6388L54.2688 71.769L54.3284 71.9064C54.6131 72.5628 54.6576 73.3157 54.327 73.909L54.3269 73.909L54.3226 73.9172C54.0304 74.482 53.4419 74.8649 52.7977 74.9683H52.2516C51.6234 74.8717 51.0975 74.456 50.6876 73.9134L50.683 73.9074L50.6781 73.9016C47.3419 69.92 42.0639 67.6719 36.8802 68.0297C32.7588 68.28 28.7575 70.1235 25.8984 73.103C25.7127 73.2899 25.5375 73.4942 25.3697 73.6899L25.3485 73.7146C25.1709 73.9217 25.0004 74.1189 24.82 74.2971C24.4661 74.6464 24.0969 74.8982 23.6274 74.9683H23.0614C22.16 74.8529 21.3855 74.0964 21.3077 73.1995L21.3068 73.1894L21.3053 73.1794C21.2412 72.7671 21.361 72.3461 21.531 71.8923L21.5803 71.7606L21.5106 71.6384C19.9716 68.9392 17.3303 66.9057 14.3324 66.0944C10.9435 65.1432 7.1549 65.8184 4.30037 67.878L4.30026 67.8778L4.29212 67.8842C3.56304 68.4493 2.43429 68.4264 1.74288 67.8214L1.74301 67.8213L1.73485 67.8146C1.3647 67.513 1.1374 67.0534 1.03169 66.5521V66.0579C1.10531 65.3835 1.53181 64.7844 2.13044 64.4322L2.1396 64.4268L2.14835 64.4208C3.32686 63.61 4.61654 62.9663 5.96796 62.4877L6.57694 62.2721L6.01925 61.9459C3.11713 60.2489 1.17768 57.0462 1.03169 53.6857V52.6266C1.14054 51.1602 1.50721 49.7137 2.20785 48.4343C2.54272 47.8533 2.77963 47.2376 2.987 46.6274C3.06469 46.3988 3.13727 46.1742 3.20901 45.9522C3.33263 45.5697 3.45379 45.1948 3.59444 44.8199L3.59457 44.8199L3.59755 44.8112C4.28308 42.7976 4.96681 40.7838 5.6505 38.7701C6.85811 35.2133 8.0656 31.6568 9.2827 28.1029L9.28277 28.1029L9.2847 28.0969C9.57979 27.1716 10.6268 26.5759 11.5783 26.7821L11.5782 26.7823L11.5899 26.7843C12.3142 26.9115 12.9249 27.485 13.1402 28.1985L13.14 28.1985L13.1434 28.2085C14.3599 31.7804 15.5739 35.353 16.788 38.9259C17.7156 41.6556 18.6433 44.3854 19.5721 47.1152C19.7153 47.5535 19.9237 47.9573 20.1234 48.3375C20.1337 48.3573 20.1441 48.377 20.1544 48.3966C20.3464 48.7621 20.5274 49.1065 20.6601 49.4709L20.66 49.4709L20.6627 49.4778C21.6632 52.0276 21.5808 54.9843 20.4176 57.4645L20.4167 57.4664C19.5609 59.3246 18.1226 60.8978 16.3641 61.9473L15.8094 62.2783L16.4202 62.4886C19.6245 63.5919 22.4367 65.7528 24.3686 68.5364L24.5535 68.8029L24.8048 68.5977C28.3039 65.74 32.7533 64.0979 37.2687 63.9431L37.2743 63.3437C33.9836 63.1692 30.7876 61.6541 28.6075 59.182L28.606 59.1803C27.0269 57.4168 25.963 55.1947 25.5972 52.8554L25.597 52.8539C25.1472 50.07 25.657 47.1306 27.0675 44.6879C27.3702 44.1829 27.5845 43.6391 27.7513 43.092C30.491 35.0312 33.2321 26.9704 35.9762 18.9111ZM37.9111 26.5987L37.6652 26.5636L37.5848 26.7986C35.7816 32.0702 33.99 37.3491 32.2 42.6261L32.0656 43.0225H32.4841H32.5054H32.5266H32.5479H32.5691H32.5904H32.6117H32.6329H32.6542H32.6754H32.6967H32.718H32.7392H32.7605H32.7817H32.803H32.8242H32.8455H32.8668H32.888H32.9093H32.9305H32.9518H32.9731H32.9943H33.0156H33.0368H33.0581H33.0793H33.1006H33.1219H33.1431H33.1644H33.1856H33.2069H33.2282H33.2494H33.2707H33.2919H33.3132H33.3344H33.3557H33.377H33.3982H33.4195H33.4407H33.462H33.4833H33.5045H33.5258H33.547H33.5683H33.5896H33.6108H33.6321H33.6533H33.6746H33.6959H33.7171H33.7384H33.7596H33.7809H33.8022H33.8234H33.8447H33.8659H33.8872H33.9085H33.9297H33.951H33.9722H33.9935H34.0147H34.036H34.0573H34.0785H34.0998H34.121H34.1423H34.1636H34.1848H34.2061H34.2273H34.2486H34.2699H34.2911H34.3124H34.3336H34.3549H34.3762H34.3974H34.4187H34.4399H34.4612H34.4825H34.5037H34.525H34.5462H34.5675H34.5888H34.61H34.6313H34.6525H34.6738H34.6951H34.7163H34.7376H34.7589H34.7801H34.8014H34.8226H34.8439H34.8652H34.8864H34.9077H34.9289H34.9502H34.9715H34.9927H35.014H35.0352H35.0565H35.0778H35.099H35.1203H35.1415H35.1628H35.1841H35.2053H35.2266H35.2478H35.2691H35.2904H35.3116H35.3329H35.3542H35.3754H35.3967H35.4179H35.4392H35.4605H35.4817H35.503H35.5242H35.5455H35.5668H35.588H35.6093H35.6305H35.6518H35.6731H35.6943H35.7156H35.7369H35.7581H35.7794H35.8006H35.8219H35.8432H35.8644H35.8857H35.9069H35.9282H35.9495H35.9707H35.992H36.0133H36.0345H36.0558H36.077H36.0983H36.1196H36.1408H36.1621H36.1833H36.2046H36.2259H36.2471H36.2684H36.2896H36.3109H36.3322H36.3534H36.3747H36.396H36.4172H36.4385H36.4597H36.481H36.5023H36.5235H36.5448H36.5661H36.5873H36.6086H36.6298H36.6511H36.6724H36.6936H36.7149H36.7361H36.7574H36.7787H36.7999H36.8212H36.8425H36.8637H36.885H36.9062H36.9275H36.9488H36.97H36.9913H37.0125H37.0338H37.0551H37.0763H37.0976H37.1189H37.1401H37.1614H37.1826H37.2039H37.2252H37.2464H37.2677H37.289H37.3102H37.3315H37.3527H37.374H37.3953H37.4165H37.4378H37.459H37.4803H37.5016H37.5228H37.5441H37.5654H37.5866H37.6079H37.6291H37.6504H37.6717H37.6929H37.7142H37.7355H37.7567H37.778H37.7992H37.8205H37.8418H37.863H37.8843H37.9055H37.9268H37.9481H37.9693H37.9906H38.0119H38.0331H38.0544H38.0756H38.0969H38.1182H38.1394H38.1607H38.182H38.2032H38.2245H38.2457H38.267H38.2883H38.3095H38.3308H38.352H38.3733H38.3946H38.4158H38.4371H38.4584H38.4796H38.5009H38.5221H38.5434H38.5647H38.5859H38.6072H38.6285H38.6497H38.671H38.6922H38.7135H38.7348H38.756H38.7773H38.7985H38.8198H38.8411H38.8623H38.8836H38.9049H38.9261H38.9474H38.9686H38.9899H39.0112H39.0324H39.0537H39.075H39.0962H39.1175H39.1387H39.16H39.1813H39.2025H39.2238H39.245H39.2663H39.2876H39.3088H39.3301H39.3514H39.3726H39.3939H39.4151H39.4364H39.4577H39.4789H39.5002H39.5214H39.5427H39.564H39.5852H39.6065H39.6278H39.649H39.6703H39.6915H39.7128H39.7341H39.7553H39.7766H39.7978H39.8191H39.8404H39.8616H39.8829H39.9042H39.9254H39.9467H39.9679H39.9892H40.0105H40.0317H40.053H40.0742H40.0955H40.1168H40.138H40.1593H40.1805H40.2018H40.2231H40.2443H40.2656H40.2869H40.3081H40.3294H40.3506H40.3719H40.3932H40.4144H40.4357H40.4569H40.4782H40.4995H40.5207H40.542H40.5632H40.5845H40.6058H40.627H40.6483H40.6696H40.6908H40.7121H40.7333H40.7546H40.7759H40.7971H40.8184H40.8396H40.8609H40.8822H40.9034H40.9247H40.9459H40.9672H40.9885H41.0097H41.031H41.0522H41.0735H41.0948H41.116H41.1373H41.1585H41.1798H41.2011H41.2223H41.2436H41.2649H41.2861H41.3074H41.3286H41.3499H41.3712H41.3924H41.4137H41.4349H41.4562H41.4775H41.4987H41.52H41.5412H41.5625H41.5838H41.605H41.6263H41.6475H41.6688H41.6901H41.7113H41.7326H41.7538H41.7751H41.7964H41.8176H41.8389H41.8601H41.8814H41.9026H41.9239H41.9452H41.9664H41.9877H42.0089H42.0302H42.0515H42.0727H42.094H42.1152H42.1365H42.1578H42.179H42.2003H42.2215H42.2428H42.2641H42.2853H42.3066H42.3278H42.3491H42.3704H42.3916H42.4129H42.4341H42.4554H42.4767H42.4979H42.5192H42.5404H42.5617H42.5829H42.6042H42.6255H42.6467H42.668H42.6892H42.7105H42.7318H42.753H42.7743H42.7955H42.8168H42.8381H42.8593H42.8806H42.9018H42.9231H42.9443H42.9656H42.9869H43.0081H43.0294H43.0506H43.0719H43.0932H43.1144H43.1357H43.1569H43.1782H43.1994H43.2207H43.242H43.2632H43.2845H43.3057H43.327H43.3482H43.3695H43.7881L43.6536 42.6261C41.865 37.3549 40.0749 32.0819 38.2746 26.8146L38.2152 26.6407L38.0332 26.6147C38.015 26.6121 37.9893 26.6088 37.9675 26.6061C37.9582 26.6049 37.9494 26.6038 37.9415 26.6027C37.9291 26.6011 37.9187 26.5998 37.9111 26.5987ZM11.4491 35.9375L11.1308 35.2883L10.896 35.9721C9.89049 38.9002 8.89672 41.8315 7.90301 44.7626C7.73774 45.2501 7.57246 45.7376 7.40714 46.2251L7.27245 46.6222L7.69181 46.6214C10.0263 46.6171 12.3593 46.6171 14.6938 46.6214L15.1121 46.6222L14.9787 46.2258C14.4316 44.599 13.8769 42.9714 13.3225 41.3444C12.8447 39.9421 12.367 38.5402 11.8944 37.1399C11.8749 37.0808 11.8555 37.0206 11.8357 36.9595C11.7286 36.6287 11.6134 36.2725 11.4491 35.9375ZM66.8955 41.6562C66.2972 39.9007 65.6993 38.1462 65.1084 36.385C65.0958 36.3378 65.0757 36.277 65.0519 36.2175C65.0274 36.1563 64.9898 36.0727 64.94 36.0041C64.9173 35.9729 64.8722 35.9164 64.8012 35.8771C64.7623 35.8555 64.7067 35.8342 64.6384 35.8336C64.5669 35.8329 64.5016 35.8552 64.4485 35.8909C64.3554 35.9536 64.316 36.046 64.2988 36.0934C64.2813 36.1418 64.2693 36.1952 64.2605 36.2502C63.7194 37.8552 63.1706 39.4663 62.6216 41.078C62.0365 42.7957 61.4512 44.5139 60.8749 46.2257L60.7414 46.6222L61.1598 46.6214C63.4943 46.6171 65.8273 46.6171 68.1618 46.6214L68.5803 46.6222L68.4467 46.2257C67.9322 44.6985 67.4137 43.177 66.8955 41.6562ZM30.5684 47.0806L30.3783 47.0811L30.2976 47.2532C29.4007 49.1642 29.2305 51.415 29.8988 53.4305C30.592 55.6002 32.1954 57.4605 34.2559 58.4427C36.5316 59.5772 39.3237 59.5772 41.5993 58.4426C43.7229 57.4288 45.361 55.4815 46.0181 53.227C46.6156 51.2623 46.418 49.1051 45.561 47.2573L45.4808 47.0844L45.2902 47.0835C40.3825 47.0617 35.4751 47.0675 30.5684 47.0806ZM5.81514 50.6708L5.61372 50.6711L5.5377 50.8576C4.89845 52.4259 4.92709 54.2547 5.67257 55.7886C6.45238 57.4536 8.01817 58.7257 9.81468 59.1348C11.2159 59.479 12.7305 59.27 13.9988 58.6034C15.6486 57.7565 16.8676 56.1252 17.1989 54.298C17.4336 53.1392 17.2719 51.9394 16.8494 50.8614L16.7749 50.6711L16.5705 50.6708C12.9859 50.6665 9.39977 50.6665 5.81514 50.6708ZM59.2831 50.6708L59.0818 50.6711L59.0057 50.8575C58.3649 52.4275 58.3951 54.2592 59.1421 55.7931C59.9248 57.4579 61.4919 58.7286 63.2885 59.1348C64.7265 59.4882 66.2824 59.2577 67.5693 58.5483C69.2329 57.6554 70.4318 55.9556 70.7036 54.0857C70.8862 52.9904 70.7106 51.8715 70.3177 50.862L70.2434 50.6711L70.0385 50.6708C66.4538 50.6665 62.8678 50.6665 59.2831 50.6708Z"
                        fill="#9F9F9F" stroke="white" stroke-width="0.6" />
                </g>
            </g>
            <defs>
                <clipPath id="clip0">
                    <rect width="74.3902" height="74.3902" fill="white" transform="translate(0.731689 0.878052)" />
                </clipPath>
            </defs>
        </symbol>
    </defs>
</svg>