<svg style="position: absolute; width: 0; height: 0; overflow: hidden;" version="1.1" xmlns="http://www.w3.org/2000/svg">
	<defs>
		<symbol id="support" viewBox="0 0 35 35" fill="none">
			<title>
				support
			</title>
			<g opacity="0.3">
				<path d="M16.5922 0H18.4151C21.6271 0.280729 24.7698 1.6625 26.9792 4.03594C29.1083 6.1651 30.275 9.08542 30.6323 12.0422C32.8891 12.6547 34.7812 14.5286 35 16.9276V22.4583C34.7776 24.8135 32.9401 26.6766 30.7198 27.3036C30.5521 29.0865 29.8047 30.8948 28.2443 31.8865C26.7094 33.0276 24.7078 32.8052 22.9104 32.8234C22.3234 33.837 21.4885 34.7229 20.3109 35H16.9385C16.1328 34.7521 15.2943 34.3875 14.8203 33.651C13.7776 32.251 14.1057 30.0271 15.5677 29.0391C16.4208 28.3719 17.562 28.4339 18.5828 28.4083C19.5271 28.4411 20.5625 28.3682 21.3974 28.8859C22.0792 29.287 22.4656 29.9979 22.9104 30.6214C24.3688 30.5922 26.0859 30.913 27.2708 29.8302C28.0036 29.2688 28.2516 28.3464 28.525 27.5115C27.413 27.2307 26.1589 26.5234 26.2682 25.1927C26.2318 21.5214 26.2354 17.8464 26.2682 14.1786C26.1661 12.8917 27.3547 12.2026 28.4083 11.8563C27.9891 9.45729 26.9974 7.11667 25.2255 5.40677C22.2578 2.37708 17.4526 1.32708 13.5188 2.96042C9.77083 4.34948 7.15313 7.94792 6.59167 11.8563C7.64896 12.2026 8.84115 12.899 8.73177 14.1932C8.76823 17.8573 8.76823 21.525 8.73177 25.1891C8.77917 26.2245 7.97344 27.2161 6.93073 27.3036C5.2974 27.4969 3.50729 27.3182 2.17656 26.2719C0.936979 25.3786 0.200521 23.9422 0 22.4474V16.9167C0.222396 14.5104 2.12917 12.6547 4.38958 12.0349C4.71042 8.97969 5.98646 5.9901 8.21406 3.84271C10.4052 1.575 13.4714 0.273438 16.5922 0ZM3.16458 15.1922C1.91042 16.3333 2.21667 18.149 2.18021 19.6656C2.22031 21.1932 1.89583 23.0234 3.16094 24.1828C4.02135 25.1417 5.36667 25.2036 6.5625 25.1781C6.5625 21.5177 6.5625 17.8536 6.5625 14.1932C5.37031 14.1896 4.02135 14.2297 3.16458 15.1922ZM28.4375 14.1932C28.4375 17.8536 28.4375 21.5177 28.4375 25.1781C30.2458 25.4333 32.3313 24.5292 32.725 22.6042C32.8745 20.6646 32.8781 18.6922 32.7214 16.7563C32.3203 14.8313 30.2385 13.9599 28.4375 14.1932ZM17.1464 30.6833C16.6505 30.9313 16.2641 31.449 16.4318 32.0323C17.0297 33.2536 18.612 32.7323 19.6911 32.7943C20.7266 32.8307 21.2115 31.2995 20.2417 30.8036C19.2792 30.4427 18.1635 30.6286 17.1464 30.6833Z" fill="#454545" />
			</g>
		</symbol>
		<symbol id="email" viewBox="0 0 33 35" fill="none">
			<title>
				email
			</title>
			<g opacity="0.3">
				<path d="M7.5695 0H25.427C26.2747 0.0485352 27.1005 0.42793 27.6692 1.06162C28.2263 1.65498 28.534 2.46641 28.5319 3.27852C28.5305 7.68906 28.5312 12.0996 28.5319 16.5108C29.0603 16.1369 29.5135 15.6058 30.1705 15.4574C31.0482 15.2175 32.0476 15.5962 32.5425 16.3604C32.777 16.7152 32.9069 17.1391 32.9062 17.5649C32.9055 22.3057 32.9069 27.0464 32.9055 31.7864C32.8939 32.6389 32.5337 33.4824 31.915 34.071C31.3579 34.6288 30.5882 34.9515 29.8041 35H3.19655C1.88542 34.9426 0.667258 34.0218 0.263938 32.7722C0.0369846 32.1474 0.101926 31.4761 0.0937229 30.8253C0.0937229 26.4052 0.0937229 21.9851 0.0937229 17.5649C0.0930393 17.0734 0.264621 16.5833 0.574973 16.2019C1.10681 15.5224 2.06042 15.2264 2.88552 15.4725C3.51511 15.6365 3.95398 16.1479 4.46804 16.5108C4.46872 12.1235 4.47009 7.73623 4.46736 3.34893C4.46257 2.95176 4.52273 2.55254 4.65603 2.17793C5.07507 0.95293 6.27683 0.0581055 7.5695 0ZM7.34392 2.26748C6.93855 2.42471 6.65622 2.8417 6.65691 3.27646C6.65554 8.26738 6.65622 13.2583 6.65691 18.2492C9.22175 20.287 11.7893 22.3214 14.3562 24.3578C15.2538 25.1412 16.5882 25.3812 17.6949 24.9279C18.1707 24.7577 18.5583 24.4275 18.9472 24.1172C21.4123 22.1614 23.8787 20.207 26.343 18.2492C26.3437 13.2597 26.3444 8.26943 26.343 3.2792C26.3533 2.69541 25.8324 2.17588 25.2486 2.18818C19.5297 2.18682 13.8114 2.18818 8.09245 2.1875C7.84157 2.18613 7.58112 2.16904 7.34392 2.26748ZM2.28259 17.5854C2.27986 22.2961 2.28122 27.0067 2.28191 31.7174C2.27029 32.3032 2.79187 32.8248 3.37771 32.8118C11.991 32.8132 20.6043 32.8118 29.2175 32.8125C29.5047 32.8111 29.8082 32.8398 30.0761 32.7134C30.4583 32.5438 30.7174 32.1412 30.718 31.7235C30.7187 27.0108 30.7201 22.2981 30.7174 17.5854C27.1374 20.421 23.5588 23.26 19.9808 26.0996C19.4169 26.559 18.7647 26.911 18.0668 27.1175C16.3366 27.6473 14.3637 27.2392 12.9836 26.0709C9.41726 23.2408 5.85095 20.4121 2.28259 17.5854Z" fill="#454545" />
				<path d="M11.1187 6.58437C12.33 5.37168 13.9672 4.59511 15.6721 4.41806C17.0953 4.26425 18.5637 4.50966 19.8495 5.14267C21.4785 5.92744 22.8061 7.31445 23.5238 8.97421C23.9456 9.9333 24.1548 10.9812 24.1582 12.0278C24.1623 12.9028 23.8021 13.7778 23.1663 14.3821C22.452 15.0992 21.3862 15.4314 20.3889 15.2776C19.7593 15.1894 19.1659 14.9044 18.6874 14.4874C18.038 15.0609 17.1609 15.3665 16.2955 15.3077C15.4896 15.2599 14.7034 14.9071 14.147 14.3199C13.3814 13.557 13.0587 12.3949 13.2898 11.3436C13.4695 10.4528 14.0506 9.66054 14.8313 9.20117C15.6112 8.73701 16.5867 8.62558 17.4542 8.88876C18.7858 9.27021 19.7805 10.5772 19.7812 11.9649C19.762 12.373 19.9774 12.7832 20.3376 12.9814C20.7368 13.2166 21.2769 13.1517 21.6139 12.8352C21.8374 12.6314 21.9646 12.3327 21.9693 12.0312C21.968 10.891 21.6002 9.75283 20.9275 8.83134C20.2146 7.85039 19.1748 7.108 18.0066 6.77714C16.8923 6.45039 15.6755 6.50029 14.5899 6.91044C13.4607 7.3288 12.4852 8.13955 11.8501 9.16083C11.1973 10.2129 10.9122 11.4926 11.0763 12.7217C11.2321 13.9603 11.8303 15.1382 12.7422 15.992C14.1654 17.379 16.3823 17.8732 18.2574 17.2067C18.7954 16.9729 19.4872 17.2423 19.6971 17.7953C19.9404 18.3271 19.6615 19.0128 19.1201 19.2281C17.3476 19.8796 15.331 19.8379 13.5851 19.116C12.0791 18.4994 10.7844 17.3865 9.94356 15.9934C9.10206 14.6111 8.72472 12.9555 8.87374 11.3449C9.02345 9.55869 9.83487 7.83603 11.1187 6.58437ZM16.249 10.9696C15.8156 11.0646 15.4711 11.4495 15.4171 11.8891C15.3255 12.464 15.776 13.0484 16.3536 13.1134C17.0358 13.2316 17.6982 12.5713 17.5827 11.8884C17.5171 11.2697 16.852 10.8035 16.249 10.9696Z" fill="#454545" />
			</g>
		</symbol>
		<symbol id="ct-telegram" viewBox="0 0 48 49" fill="none">
			<rect opacity="0.2" width="48" height="49" rx="10" fill="#62D0C5" />
			<g clip-path="url(#clip0)">
				<path d="M20.7715 28.9763L20.2752 35.9563C20.9852 35.9563 21.2927 35.6513 21.6615 35.285L24.9902 32.1038L31.8877 37.155C33.1527 37.86 34.044 37.4888 34.3852 35.9913L38.9127 14.7763L38.914 14.775C39.3152 12.905 38.2377 12.1738 37.0052 12.6325L10.3927 22.8213C8.57647 23.5263 8.60397 24.5388 10.084 24.9975L16.8877 27.1138L32.6915 17.225C33.4352 16.7325 34.1115 17.005 33.5552 17.4975L20.7715 28.9763Z" fill="#01D1B2" />
			</g>
			<defs>
				<clipPath id="clip0">
					<rect width="30" height="30" fill="white" transform="translate(9 10)" />
				</clipPath>
			</defs>
		</symbol>
		<symbol id="ct-phone" viewBox="0 0 48 49" fill="none">
			<rect opacity="0.2" width="48" height="49" rx="10" fill="#62D0C5" />
			<path d="M15.3865 12.6571C16.1348 12.3915 16.998 12.4668 17.685 12.8678C18.0656 13.0757 18.3534 13.4065 18.6581 13.7072C19.7541 14.8027 20.849 15.8986 21.945 16.9935C22.2157 17.2637 22.4428 17.5826 22.5844 17.9394C23.007 18.9555 22.7357 20.205 21.9285 20.9533C21.3242 21.5559 20.721 22.1597 20.1177 22.7635C19.86 23.0189 19.5802 23.2546 19.2715 23.4466C17.9189 24.3115 16.1042 24.3647 14.6978 23.5933C15.4115 25.1979 16.4474 26.6383 17.5995 27.9552C18.602 29.0868 19.6901 30.1443 20.8682 31.0925C21.9574 31.9602 23.131 32.7356 24.406 33.3032C23.9687 32.4881 23.7841 31.5411 23.8923 30.6218C23.9993 29.6277 24.4553 28.6807 25.1531 27.967C25.7829 27.3327 26.4179 26.7034 27.0483 26.0696C27.3258 25.787 27.6566 25.553 28.027 25.4086C28.8421 25.0835 29.8174 25.1775 30.5458 25.672C30.7588 25.813 30.9457 25.9886 31.1236 26.1715C32.3102 27.3599 33.4985 28.5465 34.6857 29.7348C35.2006 30.2468 35.5098 30.9684 35.494 31.6974C35.5121 32.4892 35.1411 33.2731 34.5282 33.7721C32.8364 35.0743 30.7645 35.9194 28.6184 35.9998H27.899C25.8741 35.916 23.9172 35.2182 22.1795 34.2003C20.9016 33.4612 19.7252 32.5572 18.627 31.5739C17.4086 30.4734 16.2724 29.2788 15.2636 27.9829C14.0487 26.4094 13.0173 24.6626 12.4492 22.7471C12.1909 21.8884 12.0459 20.998 12 20.1031V19.3815C12.0816 17.2371 12.9244 15.1663 14.2248 13.475C14.5301 13.1057 14.9329 12.8151 15.3865 12.6571ZM15.6437 14.6123C15.3361 15.0151 15.0654 15.4455 14.8218 15.8902C14.0663 17.2682 13.6913 18.8677 13.8459 20.4378C14.218 20.8037 14.5845 21.177 14.9555 21.5446C15.3814 21.9581 15.9411 22.2362 16.5324 22.3036C17.3316 22.4061 18.1699 22.1257 18.7448 21.5599C19.4041 20.8989 20.0656 20.2396 20.7249 19.5786C21.0512 19.2495 21.0472 18.6604 20.7125 18.3393C19.4562 17.083 18.1999 15.8273 16.9442 14.5704C16.5998 14.2221 15.958 14.2272 15.6437 14.6123ZM28.3374 27.3565C27.7064 27.9908 27.0726 28.6224 26.44 29.2551C25.9551 29.7478 25.6787 30.4343 25.677 31.1242C25.6674 31.8214 25.9483 32.5119 26.4281 33.0154C26.8036 33.3977 27.187 33.7727 27.5631 34.1545C28.513 34.2474 29.4793 34.146 30.3963 33.8854C31.4674 33.5779 32.4637 33.0415 33.3575 32.381C33.7704 32.0763 33.7857 31.4097 33.4294 31.0557C32.1918 29.8186 30.9537 28.5822 29.7178 27.3434C29.3756 26.9249 28.6739 26.9373 28.3374 27.3565Z" fill="#01D1B2" />
		</symbol>
		<symbol id="ct-location" viewBox="0 0 48 49" fill="none">
			<rect opacity="0.2" width="48" height="49" rx="10" fill="#62D0C5" />
			<path d="M23.6719 11H24.3633C25.4648 11.0539 26.5547 11.2874 27.5742 11.7184C29.332 12.4548 30.8613 13.7599 31.8867 15.3942C32.8828 16.9568 33.4043 18.8306 33.375 20.6925C33.3398 21.818 33.0117 22.9016 32.625 23.9492C31.8398 26.0326 30.7793 27.9962 29.6719 29.912C28.3594 32.151 26.9414 34.3242 25.459 36.4435C25.2773 36.6949 25.125 36.9703 24.8848 37.1678C24.498 37.4911 23.9414 37.5749 23.4785 37.3834C23.2031 37.2756 22.9746 37.0661 22.8047 36.8206C21 34.2523 19.2773 31.6242 17.7422 28.8823C16.8105 27.206 15.9258 25.4818 15.2754 23.6678C14.9238 22.6741 14.6367 21.6324 14.625 20.5667C14.625 19.555 14.7773 18.5373 15.0938 17.5734C15.709 15.6397 16.957 13.9215 18.5801 12.7481C20.0566 11.6765 21.8555 11.0659 23.6719 11ZM22.5879 13.0534C20.8652 13.3827 19.2773 14.3645 18.1758 15.7534C17.1738 17.0106 16.5762 18.5971 16.5059 20.2195C16.4531 20.908 16.5996 21.5905 16.7871 22.249C17.1035 23.3386 17.5605 24.3863 18.0469 25.404C19.0195 27.4095 20.1445 29.3313 21.3281 31.2111C22.1895 32.5701 23.0801 33.9111 24 35.2282C25.4473 33.1568 26.8301 31.0315 28.1074 28.8404C29.0508 27.212 29.9531 25.5417 30.668 23.7936C31.0078 22.9375 31.3184 22.0634 31.459 21.1474C31.5293 20.6984 31.5059 20.2435 31.4648 19.7945C31.3594 18.7408 31.0371 17.7111 30.5215 16.7891C29.7012 15.3104 28.3828 14.1251 26.8418 13.4845C25.5 12.9217 24.0059 12.7721 22.5879 13.0534Z" fill="#01D1B2" />
			<path d="M23.3322 15.8372C24.2111 15.7115 25.1252 15.8372 25.9279 16.2143C27.0002 16.7053 27.8732 17.6212 28.3244 18.7288C28.7111 19.6687 28.7873 20.7343 28.5529 21.7281C28.2834 22.8656 27.5861 23.8833 26.6428 24.5418C25.7756 25.1525 24.6975 25.4458 23.6486 25.362C22.7346 25.2962 21.8381 24.943 21.1174 24.3622C20.2736 23.6917 19.6643 22.7219 19.4299 21.6622C19.1721 20.5188 19.3361 19.2735 19.8986 18.2498C20.5959 16.9567 21.9025 16.0347 23.3322 15.8372ZM23.508 17.7529C22.3889 17.9445 21.4455 18.8964 21.2404 20.0339C21.0471 20.9977 21.3928 22.0394 22.1076 22.692C22.717 23.2727 23.59 23.554 24.4162 23.4163C25.1721 23.3026 25.8693 22.8536 26.3088 22.213C26.7307 21.6084 26.9006 20.8301 26.7775 20.0997C26.6545 19.3454 26.2209 18.6509 25.6057 18.2199C25.0021 17.7888 24.2287 17.6152 23.508 17.7529Z" fill="#01D1B2" />
		</symbol>
	</defs>
</svg>
