<svg style="position: absolute; width: 0; height: 0; overflow: hidden;" version="1.1" xmlns="http://www.w3.org/2000/svg">
	<defs>
		<symbol id="form-mobile" viewBox="0 0 18 18">
			<title>
				mobile
			</title>
			<g opacity="0.6">
				<path d="M11.9391 0H6.06129C5.48332 0.028125 4.91379 0.233438 4.45852 0.592031C3.79055 1.10637 3.37746 1.93359 3.375 2.77734C3.375 6.76125 3.375 10.7455 3.375 14.7298C3.37922 15.0163 3.35988 15.3049 3.40242 15.5893C3.48855 16.2028 3.78598 16.7843 4.23387 17.2125C4.71902 17.6875 5.38277 17.968 6.05988 18H11.9384C12.6925 17.9673 13.4255 17.6186 13.9226 17.0497C14.3659 16.5519 14.6204 15.891 14.625 15.2244C14.625 11.0756 14.625 6.92684 14.625 2.77805C14.6222 1.98492 14.2587 1.20516 13.6586 0.688008C13.1846 0.272461 12.568 0.0298828 11.9391 0ZM12.3086 1.20129C12.8471 1.36406 13.2873 1.81582 13.4364 2.35863C13.52 2.63074 13.4975 2.91797 13.5 3.19816C13.5 6.63223 13.5 10.0659 13.5 13.5C10.5001 13.5 7.50023 13.5 4.5 13.5C4.49965 9.93727 4.5007 6.37453 4.49965 2.81215C4.5007 2.42859 4.63605 2.04715 4.88004 1.75078C5.18555 1.37074 5.66156 1.1352 6.14953 1.12535C8.00191 1.1243 9.85465 1.1257 11.7074 1.12465C11.9099 1.11937 12.1148 1.13906 12.3086 1.20129ZM13.5 14.625C13.4919 15.0026 13.5401 15.3949 13.3995 15.756C13.1727 16.413 12.5061 16.8831 11.8107 16.8754C9.92391 16.8743 8.03742 16.8757 6.15094 16.8746C5.46047 16.8669 4.80902 16.3888 4.59281 15.7338C4.46063 15.3787 4.50879 14.9952 4.5 14.625C7.49988 14.625 10.5001 14.625 13.5 14.625Z" />
			</g>
		</symbol>
		<symbol id="form-password" viewBox="0 0 19 19">
			<title>
				password
			</title>
			<path d="M9.6952 0H9.30629C8.2316 0.0463867 7.17473 0.462012 6.36834 1.17637C5.37641 2.03582 4.77338 3.32389 4.75074 4.63645C4.74889 5.86068 4.75037 7.08492 4.75 8.30916C4.18853 8.31287 3.63041 8.51326 3.20439 8.88102C2.69117 9.31557 2.3802 9.97723 2.375 10.6504C2.375 12.6539 2.375 14.6575 2.375 16.6614C2.38057 17.1764 2.5598 17.6874 2.87969 18.0916C3.29272 18.6278 3.94621 18.9618 4.62086 19H14.3791C15.0378 18.9629 15.6757 18.6438 16.0906 18.1294C16.4276 17.7194 16.6191 17.1939 16.625 16.6632C16.625 14.6582 16.625 12.6536 16.625 10.6489C16.6191 9.97648 16.3088 9.31557 15.796 8.88139C15.37 8.51326 14.8115 8.31287 14.25 8.30916C14.2496 7.08492 14.2511 5.86068 14.2493 4.63682C14.2266 3.32389 13.6236 2.03619 12.6317 1.17674C11.826 0.462383 10.7699 0.0467578 9.6952 0ZM11.9989 2.21543C12.5218 2.7268 12.8807 3.40367 13.0068 4.12396C13.0814 4.50137 13.0595 4.8873 13.0625 5.26916C13.0625 6.28373 13.0625 7.29793 13.0625 8.3125C10.6875 8.3125 8.3125 8.3125 5.9375 8.3125C5.93787 7.10051 5.93713 5.88852 5.93787 4.67652C5.95234 3.56287 6.53348 2.48113 7.44414 1.84248C8.11063 1.36748 8.94484 1.13332 9.76125 1.19715C10.597 1.25504 11.4059 1.62428 11.9989 2.21543ZM14.6315 9.5642C15.0894 9.71523 15.4264 10.1672 15.4368 10.65C15.4386 11.4542 15.4371 12.2583 15.4375 13.0625C11.479 13.0625 7.52096 13.0625 3.5625 13.0625C3.56324 12.2583 3.56139 11.4546 3.56324 10.6508C3.57326 10.2162 3.84527 9.80393 4.23715 9.61838C4.43012 9.52227 4.64832 9.49109 4.8617 9.49926C7.92953 9.50074 10.997 9.49963 14.0648 9.5C14.2552 9.49555 14.4504 9.49815 14.6315 9.5642ZM15.4375 14.25C15.4382 15.0171 15.4364 15.7841 15.4382 16.5512C15.4416 16.7044 15.4249 16.8592 15.374 17.0043C15.2197 17.4759 14.7465 17.8177 14.2496 17.8129C11.0705 17.8114 7.89131 17.8136 4.71215 17.8118C4.11988 17.8036 3.59219 17.2919 3.5651 16.7003C3.55879 15.8836 3.56436 15.0668 3.5625 14.25C7.52096 14.25 11.479 14.25 15.4375 14.25Z" />
			<path d="M13.2053 10.4014C12.7262 10.3097 12.2253 10.6816 12.1785 11.1677C12.1388 11.4616 12.2572 11.7726 12.4858 11.9626C12.7017 12.147 13.009 12.2164 13.2836 12.1448C13.582 12.0728 13.8314 11.8331 13.9163 11.5384C13.9909 11.2905 13.9527 11.01 13.8095 10.7933C13.6759 10.5851 13.4499 10.4389 13.2053 10.4014Z" />
			<path d="M13.2029 15.151C12.9001 15.1005 12.5758 15.2193 12.3802 15.4557C12.1965 15.6713 12.1267 15.977 12.1987 16.2509C12.2655 16.53 12.4789 16.7678 12.7483 16.8658C13.0259 16.9708 13.3547 16.9274 13.5926 16.7489C13.8579 16.5582 13.9967 16.2123 13.9425 15.8906C13.8902 15.518 13.5755 15.2033 13.2029 15.151Z" />
		</symbol>
		<symbol id="form-date" viewBox="0 0 35 35" fill="none">
			<rect width="35" height="35" rx="10" fill="#01D1B2" />
			<path d="M13.5655 8H13.6878C13.9054 8.02539 14.1089 8.16289 14.1964 8.36602C14.2655 8.50703 14.2515 8.66797 14.2518 8.82031C14.2511 9.38008 14.2515 9.93984 14.2518 10.5C16.335 10.5 18.4182 10.5004 20.5015 10.4996C20.5018 9.87461 20.5011 9.24922 20.5015 8.62383C20.4929 8.30977 20.7546 8.02813 21.0655 8H21.1882C21.4057 8.02539 21.6093 8.16328 21.6968 8.3668C21.7659 8.50781 21.7515 8.66914 21.7518 8.82148C21.7511 9.38086 21.7515 9.94023 21.7518 10.5C22.8061 10.5004 23.8604 10.4996 24.9151 10.5004C25.3929 10.5074 25.8671 10.7047 26.2015 11.0473C26.5456 11.3824 26.744 11.8574 26.7515 12.3367C26.7518 16.9328 26.7507 21.5293 26.7518 26.1254C26.7542 26.6246 26.5487 27.123 26.1862 27.4676C25.8682 27.7875 25.4276 27.9723 24.9792 28H9.77528C9.32645 27.9727 8.88544 27.7883 8.56708 27.4684C8.21395 27.1324 8.00888 26.6504 8.00184 26.1641C8.00067 21.5938 8.00223 17.023 8.00067 12.4527C7.99442 12.1996 8.03153 11.9449 8.12177 11.7082C8.37411 11.0203 9.06239 10.5203 9.79638 10.5016C10.8643 10.4977 11.9331 10.5012 13.0015 10.4996C13.0015 9.94023 13.0018 9.38086 13.0011 8.82148C13.0015 8.66914 12.987 8.50781 13.0565 8.36641C13.1436 8.16289 13.3475 8.025 13.5655 8ZM9.25145 12.375C9.25145 13.4168 9.25145 14.4582 9.25184 15.5C14.6682 15.5 20.0847 15.5 25.5015 15.5C25.5015 14.4578 25.5015 13.4152 25.5011 12.373C25.5065 12.0395 25.2089 11.7434 24.8753 11.75C23.8339 11.75 22.7929 11.75 21.7518 11.75C21.7499 12.1809 21.7542 12.6121 21.7499 13.043C21.7378 13.3328 21.496 13.5887 21.2081 13.6203C20.8643 13.6766 20.5155 13.393 20.503 13.0445C20.4987 12.6129 20.503 12.1816 20.5015 11.75C18.4182 11.75 16.3347 11.75 14.2515 11.75C14.2499 12.1805 14.2538 12.6109 14.2499 13.041C14.2386 13.3305 13.9983 13.5875 13.7108 13.6199C13.3659 13.6777 13.0147 13.3934 13.003 13.043C12.9987 12.6121 13.003 12.1813 13.0015 11.75C11.9589 11.75 10.9167 11.75 9.87411 11.75C9.5413 11.7453 9.24559 12.0418 9.25145 12.375ZM9.25145 16.75C9.25145 19.8758 9.25106 23.0012 9.25184 26.127C9.24637 26.4598 9.54286 26.7555 9.87567 26.75C14.8768 26.75 19.878 26.75 24.8792 26.7496C25.2112 26.7543 25.5061 26.4594 25.5011 26.1273C25.5015 23.0016 25.5015 19.8758 25.5015 16.75C20.0847 16.75 14.6682 16.75 9.25145 16.75Z" fill="white" />
		</symbol>
	</defs>
</svg>
