<svg style="position: absolute; width: 0; height: 0; overflow: hidden;" version="1.1" xmlns="http://www.w3.org/2000/svg">
	<defs>
		<symbol id="heart-stroke" viewBox="0 0 23 20" fill="none">
			<title>
				heart-stroke
			</title>
			<path d="M20.2912 2.61182C19.7804 2.10083 19.174 1.69547 18.5065 1.41891C17.8391 1.14235 17.1237 0.999998 16.4012 0.999998C15.6787 0.999998 14.9633 1.14235 14.2958 1.41891C13.6284 1.69547 13.0219 2.10083 12.5112 2.61182L11.4512 3.67182L10.3912 2.61182C9.35948 1.58013 7.9602 1.00053 6.50117 1.00053C5.04214 1.00053 3.64286 1.58013 2.61117 2.61182C1.57948 3.64352 0.999878 5.04279 0.999878 6.50182C0.999878 7.96086 1.57948 9.36013 2.61117 10.3918L3.67117 11.4518L11.4512 19.2318L19.2312 11.4518L20.2912 10.3918C20.8022 9.88107 21.2075 9.27464 21.4841 8.60718C21.7606 7.93972 21.903 7.22431 21.903 6.50182C21.903 5.77934 21.7606 5.06393 21.4841 4.39647C21.2075 3.72901 20.8022 3.12258 20.2912 2.61182V2.61182Z" stroke="#C2B9B8" stroke-linecap="round" stroke-linejoin="round" />
		</symbol>
		<symbol id="heart-fill" viewBox="0 0 24 24">
			<title>
				heart-fill
			</title>
			<path d="m11.466 22.776c.141.144.333.224.534.224s.393-.08.534-.224l9.594-9.721c4.001-4.053 1.158-11.055-4.532-11.055-3.417 0-4.985 2.511-5.596 2.98-.614-.471-2.172-2.98-5.596-2.98-5.672 0-8.55 6.984-4.531 11.055z" fill="#f44336" />
		</symbol>
		<symbol id="share-stroke" viewBox="0 0 512 512" fill="#C2B9B8">
			<title>
				share-stroke
			</title>
			<path d="M406,332c-29.636,0-55.969,14.402-72.378,36.571l-141.27-72.195C194.722,288.324,196,279.809,196,271
			c0-11.931-2.339-23.324-6.574-33.753l148.06-88.958C354.006,167.679,378.59,180,406,180c49.626,0,90-40.374,90-90
			c0-49.626-40.374-90-90-90c-49.626,0-90,40.374-90,90c0,11.47,2.161,22.443,6.09,32.54l-148.43,89.18
			C157.152,192.902,132.941,181,106,181c-49.626,0-90,40.374-90,90c0,49.626,40.374,90,90,90c30.122,0,56.832-14.876,73.177-37.666
			l140.86,71.985C317.414,403.753,316,412.714,316,422c0,49.626,40.374,90,90,90c49.626,0,90-40.374,90-90
			C496,372.374,455.626,332,406,332z M406,30c33.084,0,60,26.916,60,60s-26.916,60-60,60s-60-26.916-60-60S372.916,30,406,30z
			 M106,331c-33.084,0-60-26.916-60-60s26.916-60,60-60s60,26.916,60,60S139.084,331,106,331z M406,482c-33.084,0-60-26.916-60-60
			s26.916-60,60-60s60,26.916,60,60S439.084,482,406,482z" />
		</symbol>
		<symbol id="share-fill" viewBox="-21 0 512 512" fill="#3498db">
			<title>
				share-fill
			</title>
			<path d="m453.332031 85.332031c0 38.292969-31.039062 69.335938-69.332031 69.335938s-69.332031-31.042969-69.332031-69.335938c0-38.289062 31.039062-69.332031 69.332031-69.332031s69.332031 31.042969 69.332031 69.332031zm0 0" />
			<path d="m384 170.667969c-47.0625 0-85.332031-38.273438-85.332031-85.335938 0-47.058593 38.269531-85.332031 85.332031-85.332031s85.332031 38.273438 85.332031 85.332031c0 47.0625-38.269531 85.335938-85.332031 85.335938zm0-138.667969c-29.417969 0-53.332031 23.9375-53.332031 53.332031 0 29.398438 23.914062 53.335938 53.332031 53.335938s53.332031-23.9375 53.332031-53.335938c0-29.394531-23.914062-53.332031-53.332031-53.332031zm0 0" />
			<path d="m453.332031 426.667969c0 38.289062-31.039062 69.332031-69.332031 69.332031s-69.332031-31.042969-69.332031-69.332031c0-38.292969 31.039062-69.335938 69.332031-69.335938s69.332031 31.042969 69.332031 69.335938zm0 0" />
			<path d="m384 512c-47.0625 0-85.332031-38.273438-85.332031-85.332031 0-47.0625 38.269531-85.335938 85.332031-85.335938s85.332031 38.273438 85.332031 85.335938c0 47.058593-38.269531 85.332031-85.332031 85.332031zm0-138.667969c-29.417969 0-53.332031 23.9375-53.332031 53.335938 0 29.394531 23.914062 53.332031 53.332031 53.332031s53.332031-23.9375 53.332031-53.332031c0-29.398438-23.914062-53.335938-53.332031-53.335938zm0 0" />
			<path d="m154.667969 256c0 38.292969-31.042969 69.332031-69.335938 69.332031-38.289062 0-69.332031-31.039062-69.332031-69.332031s31.042969-69.332031 69.332031-69.332031c38.292969 0 69.335938 31.039062 69.335938 69.332031zm0 0" />
			<path d="m85.332031 341.332031c-47.058593 0-85.332031-38.269531-85.332031-85.332031s38.273438-85.332031 85.332031-85.332031c47.0625 0 85.335938 38.269531 85.335938 85.332031s-38.273438 85.332031-85.335938 85.332031zm0-138.664062c-29.417969 0-53.332031 23.933593-53.332031 53.332031s23.914062 53.332031 53.332031 53.332031c29.421875 0 53.335938-23.933593 53.335938-53.332031s-23.914063-53.332031-53.335938-53.332031zm0 0" />
			<path d="m135.703125 245.761719c-7.425781 0-14.636719-3.863281-18.5625-10.773438-5.824219-10.21875-2.238281-23.253906 7.980469-29.101562l197.949218-112.851563c10.21875-5.867187 23.253907-2.28125 29.101563 7.976563 5.824219 10.21875 2.238281 23.253906-7.980469 29.101562l-197.953125 112.851563c-3.328125 1.898437-6.953125 2.796875-10.535156 2.796875zm0 0" />
			<path d="m333.632812 421.761719c-3.585937 0-7.210937-.898438-10.539062-2.796875l-197.953125-112.851563c-10.21875-5.824219-13.800781-18.859375-7.976563-29.101562 5.800782-10.238281 18.855469-13.84375 29.097657-7.976563l197.953125 112.851563c10.21875 5.824219 13.800781 18.859375 7.976562 29.101562-3.945312 6.910157-11.15625 10.773438-18.558594 10.773438zm0 0" />
		</symbol>
		<symbol id="arrow-left" viewBox="0 0 21 17" fill="none">
			<title>
				arrow-left
			</title>
			<path d="M19 9L2 9" stroke="#fff" stroke-width="1.5" stroke-linecap="round" stroke-linejoin="round" />
			<path d="M8.61499 1L0.999879 8.61511L8.61499 16.2302" stroke="#fff" stroke-width="1.5" stroke-linecap="round" stroke-linejoin="round" />
		</symbol>
		<symbol id="date" viewBox="0 0 512 512">
			<title>
				date
			</title>
			<path d="m453.332031 512h-394.664062c-32.363281 0-58.667969-26.304688-58.667969-58.667969v-352c0-32.363281 26.304688-58.664062 58.667969-58.664062h394.664062c32.363281 0 58.667969 26.300781 58.667969 58.664062v352c0 32.363281-26.304688 58.667969-58.667969 58.667969zm-394.664062-437.332031c-14.699219 0-26.667969 11.964843-26.667969 26.664062v352c0 14.699219 11.96875 26.667969 26.667969 26.667969h394.664062c14.699219 0 26.667969-11.96875 26.667969-26.667969v-352c0-14.699219-11.96875-26.664062-26.667969-26.664062zm0 0" />
			<path d="m496 202.667969h-480c-8.832031 0-16-7.167969-16-16s7.167969-16 16-16h480c8.832031 0 16 7.167969 16 16s-7.167969 16-16 16zm0 0" />
			<path d="m122.667969 128c-8.832031 0-16-7.167969-16-16v-96c0-8.832031 7.167969-16 16-16s16 7.167969 16 16v96c0 8.832031-7.167969 16-16 16zm0 0" />
			<path d="m389.332031 128c-8.832031 0-16-7.167969-16-16v-96c0-8.832031 7.167969-16 16-16s16 7.167969 16 16v96c0 8.832031-7.167969 16-16 16zm0 0" />
		</symbol>
		<symbol id="comment_date" viewBox="0 0 18 18" fill="none">
			<path d="M3.69375 0H4.11C4.21313 0.080625 4.4175 0.24375 4.51875 0.324375C4.50938 0.5925 4.50187 0.85875 4.49437 1.125C5.99625 1.125 7.49625 1.125 8.99813 1.125C9 0.871875 9 0.61875 9 0.36375C9.08062 0.27375 9.24188 0.091875 9.3225 0H9.735C9.83625 0.07875 10.0406 0.238125 10.1419 0.31875C10.1344 0.586875 10.1269 0.856875 10.1194 1.125C11.0794 1.19062 12.2475 0.8625 13.0144 1.60687C13.6031 2.15625 13.4925 3.01687 13.5075 3.7425C13.4812 4.61625 13.56 5.49562 13.4587 6.36375C13.3875 6.8175 12.6731 6.9075 12.4688 6.49875C12.3806 6.21562 12.36 5.91563 12.3169 5.625C8.58563 5.625 4.85625 5.625 1.125 5.625C1.13625 7.62937 1.10625 9.63375 1.1325 11.6381C1.10063 11.9738 1.28812 12.3694 1.67625 12.3506C3.23625 12.4594 4.8075 12.2775 6.3675 12.4181C6.96937 12.5213 6.83062 13.5525 6.20625 13.4813C4.69875 13.5262 3.18563 13.5037 1.67438 13.4906C0.85125 13.5356 0.195 12.8888 0 12.1294V2.46562C0.196875 1.905 0.568125 1.33687 1.185 1.19813C1.90688 1.06125 2.64562 1.13437 3.375 1.125C3.375 0.871875 3.375 0.620625 3.375 0.3675C3.45563 0.275625 3.615 0.091875 3.69375 0ZM1.14 2.81063C1.09875 3.37313 1.125 3.9375 1.12688 4.5C4.875 4.5 8.625 4.5 12.3731 4.5C12.375 3.93187 12.4012 3.36187 12.36 2.79375C12.3656 2.51437 12.0975 2.25375 11.8162 2.265C11.2631 2.22563 10.71 2.25 10.155 2.25C10.1438 2.50125 10.1194 2.75062 10.0856 2.99813C10.0125 3.3525 9.52125 3.51188 9.24563 3.28688C8.90625 3.06375 9.0375 2.59125 8.96813 2.25C7.48875 2.25 6.00938 2.25 4.53 2.25C4.50375 2.67 4.5525 3.3975 3.945 3.38063C3.32813 3.41438 3.3675 2.67563 3.345 2.25C2.78437 2.25 2.22375 2.22375 1.665 2.265C1.38375 2.26125 1.12688 2.53125 1.14 2.81063Z" fill="#01D1B2" />
			<path d="M10.4213 8.53309C12.1838 7.50559 14.565 7.69122 16.1344 8.99997C17.1994 9.84747 17.8538 11.1375 18 12.4818V13.38C17.8144 15.7706 15.78 17.8087 13.3894 18H12.4894C10.2225 17.8144 8.22379 15.9656 7.92566 13.7006C7.59379 11.6756 8.62691 9.52684 10.4213 8.53309ZM11.91 9.13872C10.5 9.52122 9.37129 10.725 9.08066 12.1556C8.69441 13.8731 9.66191 15.765 11.2613 16.4868C12.465 17.0962 13.9725 16.9706 15.0882 16.2225C16.83 15.1406 17.4263 12.6112 16.2863 10.8881C15.4238 9.43122 13.5413 8.66059 11.91 9.13872Z" fill="#01D1B2" />
			<path d="M12.4219 10.695C12.6038 10.2825 13.2751 10.2825 13.4532 10.6969C13.5413 11.2519 13.4963 11.8163 13.5001 12.375C14.0588 12.3806 14.6232 12.3319 15.1763 12.4219C15.5907 12.5963 15.5907 13.26 15.1894 13.4513C14.4413 13.5431 13.6801 13.5225 12.9282 13.4775C12.6488 13.4794 12.4032 13.26 12.4032 12.975C12.3507 12.2175 12.3319 11.4488 12.4219 10.695Z" fill="#01D1B2" />
		</symbol>
		<symbol id="vote_minus" viewBox="0 0 16 16">
			<g opacity="0.3">
				<path d="M9.88969 16H10.11C10.6641 15.9681 11.2006 15.7 11.5494 15.2669C11.8344 14.9219 11.995 14.4787 12 14.0316C12.0003 13.2709 11.9994 12.5103 12.0003 11.7497C11.9966 11.5272 12.1591 11.3128 12.3769 11.2625C12.6669 11.1962 12.9581 11.135 13.2487 11.0709C14.08 10.8947 14.8384 10.3987 15.3341 9.70844C15.7394 9.15562 15.9678 8.48031 16 7.79656V7.51313C15.9269 6.3625 15.8647 5.21125 15.7941 4.06031C15.6919 2.94344 15.1469 1.87531 14.3053 1.13437C13.5341 0.443438 12.5181 0.0393753 11.4841 0H7.89031C7.54063 0.0200005 7.19156 0.0684376 6.85375 0.163438C6.04438 0.394688 5.235 0.625625 4.42562 0.857187C4.28594 0.898749 4.14344 0.93 4 0.955313C3.99062 0.756563 4.02125 0.55375 3.98 0.357813C3.92656 0.163751 3.74688 0.0215626 3.54844 0H0.450938C0.2175 0.0228128 0.021875 0.218437 0 0.452188V9.54844C0.020625 9.71406 0.11875 9.87187 0.271562 9.94531C0.39875 10.0153 0.548437 9.99937 0.687813 10.0003C1.62531 9.99937 2.56281 10.0006 3.50031 9.99969C3.755 10.0069 3.98906 9.78969 3.99813 9.53469C4.00344 9.18687 3.99813 8.83906 4 8.49125C5.15562 8.61562 6.24781 9.21375 6.98063 10.115C7.62406 10.8934 7.98906 11.8947 8 12.9047C8.00031 13.28 7.99969 13.6553 8 14.0309C8.005 14.4934 8.17656 14.9516 8.47906 15.3019C8.82781 15.7153 9.35094 15.9684 9.88969 16ZM9.79719 14.9784C9.35656 14.8928 9.00906 14.4812 9.00062 14.0322C8.99906 13.6463 9.00031 13.2606 9.00031 12.875C8.99 12.3131 8.8975 11.7525 8.71813 11.2197C8.38281 10.2116 7.74687 9.30594 6.91219 8.64844C6.08313 7.98906 5.05844 7.57875 4.00313 7.48719C3.99625 5.64656 4.00187 3.80562 4 1.96469C4.23219 1.93687 4.46156 1.88906 4.68625 1.82531C5.49875 1.59313 6.31125 1.36094 7.12375 1.12906C7.40875 1.04813 7.70469 1.00656 8.00062 1C8.99031 1 9.98 1 10.9697 1C11.1891 1.00219 11.4087 0.992188 11.6275 1.01406C12.0772 1.05438 12.5184 1.18313 12.92 1.38969C13.8253 1.85344 14.5063 2.72844 14.7284 3.72188C14.8088 4.04813 14.8091 4.38531 14.8316 4.71844C14.8853 5.63437 14.9391 6.55062 14.9934 7.46688C15.03 7.95094 14.92 8.445 14.6828 8.86844C14.3531 9.46219 13.7728 9.9125 13.1122 10.0747C12.7722 10.1519 12.4303 10.2213 12.0909 10.3006C11.4784 10.4628 11.015 11.0519 11.0009 11.6856C10.9991 12.4566 11.0003 13.2275 11.0003 13.9987C10.9994 14.1547 10.9625 14.3103 10.8919 14.4494C10.6981 14.8428 10.2272 15.0778 9.79719 14.9784ZM1 9C1 6.33344 1 3.66656 1 1C1.66656 1 2.33344 1 3 1C3 3.66687 3 6.33344 3 9C2.33344 9 1.66656 9 1 9Z" fill="#454545" />
			</g>
		</symbol>
		<symbol id="vote_plus" viewBox="0 0 16 16">
			<g opacity="0.3">
				<path d="M9.88969 0H10.11C10.6641 0.031875 11.2006 0.3 11.5494 0.733125C11.8344 1.07812 11.995 1.52125 12 1.96844C12.0003 2.72906 11.9994 3.48969 12.0003 4.25031C11.9966 4.47281 12.1591 4.68719 12.3769 4.7375C12.6669 4.80375 12.9581 4.865 13.2487 4.92906C14.08 5.10531 14.8384 5.60125 15.3341 6.29156C15.7394 6.84438 15.9678 7.51969 16 8.20344V8.48687C15.9269 9.6375 15.8647 10.7887 15.7941 11.9397C15.6919 13.0566 15.1469 14.1247 14.3053 14.8656C13.5341 15.5566 12.5181 15.9606 11.4841 16H7.89031C7.54063 15.98 7.19156 15.9316 6.85375 15.8366C6.04438 15.6053 5.235 15.3744 4.42562 15.1428C4.28594 15.1013 4.14344 15.07 4 15.0447C3.99062 15.2434 4.02125 15.4462 3.98 15.6422C3.92656 15.8362 3.74688 15.9784 3.54844 16H0.450938C0.2175 15.9772 0.021875 15.7816 0 15.5478V6.45156C0.020625 6.28594 0.11875 6.12813 0.271562 6.05469C0.39875 5.98469 0.548437 6.00063 0.687813 5.99969C1.62531 6.00063 2.56281 5.99937 3.50031 6.00031C3.755 5.99312 3.98906 6.21031 3.99813 6.46531C4.00344 6.81313 3.99813 7.16094 4 7.50875C5.15562 7.38438 6.24781 6.78625 6.98063 5.885C7.62406 5.10656 7.98906 4.10531 8 3.09531C8.00031 2.72 7.99969 2.34469 8 1.96906C8.005 1.50656 8.17656 1.04844 8.47906 0.698125C8.82781 0.284688 9.35094 0.0315625 9.88969 0ZM9.79719 1.02156C9.35656 1.10719 9.00906 1.51875 9.00062 1.96781C8.99906 2.35375 9.00031 2.73938 9.00031 3.125C8.99 3.68687 8.8975 4.2475 8.71813 4.78031C8.38281 5.78844 7.74687 6.69406 6.91219 7.35156C6.08313 8.01094 5.05844 8.42125 4.00313 8.51281C3.99625 10.3534 4.00187 12.1944 4 14.0353C4.23219 14.0631 4.46156 14.1109 4.68625 14.1747C5.49875 14.4069 6.31125 14.6391 7.12375 14.8709C7.40875 14.9519 7.70469 14.9934 8.00062 15C8.99031 15 9.98 15 10.9697 15C11.1891 14.9978 11.4087 15.0078 11.6275 14.9859C12.0772 14.9456 12.5184 14.8169 12.92 14.6103C13.8253 14.1466 14.5063 13.2716 14.7284 12.2781C14.8088 11.9519 14.8091 11.6147 14.8316 11.2816C14.8853 10.3656 14.9391 9.44938 14.9934 8.53312C15.03 8.04906 14.92 7.555 14.6828 7.13156C14.3531 6.53781 13.7728 6.0875 13.1122 5.92531C12.7722 5.84812 12.4303 5.77875 12.0909 5.69938C11.4784 5.53719 11.015 4.94812 11.0009 4.31437C10.9991 3.54344 11.0003 2.7725 11.0003 2.00125C10.9994 1.84531 10.9625 1.68969 10.8919 1.55062C10.6981 1.15719 10.2272 0.922187 9.79719 1.02156ZM1 7C1 9.66656 1 12.3334 1 15C1.66656 15 2.33344 15 3 15C3 12.3331 3 9.66656 3 7C2.33344 7 1.66656 7 1 7Z" fill="#454545" />
			</g>
		</symbol>
		<symbol id="blockquote" viewBox="0 0 40 33" fill="none">
			<path d="M31.2278 0.400024C33.7878 0.400024 35.7878 1.12002 37.2278 2.56002C38.6678 4.08002 39.3878 6.52002 39.3878 9.88002C39.3878 14.28 39.2278 17.88 38.9078 20.68C38.5078 23.56 37.7878 25.8 36.7478 27.4C35.6278 29.08 34.0678 30.28 32.0678 31C29.9878 31.8 27.2678 32.4 23.9078 32.8V25.6C25.6678 25.28 27.0678 24.96 28.1078 24.64C29.0678 24.32 29.7878 23.88 30.2678 23.32C30.7478 22.76 31.0678 22 31.2278 21.04C31.3078 20.08 31.3478 18.84 31.3478 17.32C28.7078 17.32 26.6678 16.68 25.2278 15.4C23.7078 14.12 22.9478 11.92 22.9478 8.80002C22.9478 6.00002 23.7078 3.88002 25.2278 2.44002C26.6678 1.08002 28.6678 0.400024 31.2278 0.400024ZM9.26779 0.400024C11.8278 0.400024 13.8278 1.12002 15.2678 2.56002C16.7078 4.08002 17.4278 6.52002 17.4278 9.88002C17.4278 14.28 17.2678 17.88 16.9478 20.68C16.5478 23.56 15.8278 25.8 14.7878 27.4C13.6678 29.08 12.1078 30.28 10.1078 31C8.02779 31.8 5.30779 32.4 1.94779 32.8V25.6C3.70779 25.28 5.10779 24.96 6.14779 24.64C7.10779 24.32 7.82779 23.88 8.3078 23.32C8.78779 22.76 9.10779 22 9.26779 21.04C9.34779 20.08 9.38779 18.84 9.38779 17.32C6.74779 17.32 4.70779 16.68 3.26779 15.4C1.74779 14.12 0.987793 11.92 0.987793 8.80002C0.987793 6.00002 1.74779 3.88002 3.26779 2.44002C4.70779 1.08002 6.70779 0.400024 9.26779 0.400024Z" fill="#01D1B2" />
		</symbol>
		<symbol id="share-whatsapp" viewBox="0 0 32 32" fill="none">
			<rect x="0.408203" width="31.2424" height="31.2424" fill="#5EF579" />
			<path d="M7.49756 24.1005L8.78264 19.3099C8.05583 17.9938 7.67663 16.5303 7.67663 15.0352C7.67663 10.1603 11.6477 6.19096 16.5247 6.19096C21.4017 6.19096 25.3728 10.1603 25.3728 15.0352C25.3728 19.91 21.4017 23.8794 16.5247 23.8794C15.0606 23.8794 13.6175 23.5109 12.3219 22.8055L7.49756 24.1005ZM12.5431 21.0156L12.8486 21.1946C13.9651 21.8579 15.2291 22.2053 16.5142 22.2053C20.4748 22.2053 23.6875 18.9835 23.6875 15.0352C23.6875 11.0763 20.4642 7.86505 16.5142 7.86505C12.5536 7.86505 9.34091 11.0869 9.34091 15.0352C9.34091 16.3408 9.69905 17.6253 10.3943 18.7519L10.5839 19.0572L9.86758 21.7315L12.5431 21.0156Z" fill="white" />
			<path fill-rule="evenodd" clip-rule="evenodd" d="M19.8006 16.2672C19.432 16.0461 18.958 15.8039 18.5366 15.9829C18.2101 16.1198 17.9994 16.6357 17.7887 16.8989C17.6834 17.0358 17.5465 17.0568 17.3779 16.9831C16.1455 16.4883 15.1975 15.667 14.5128 14.5299C14.397 14.3509 14.418 14.2141 14.555 14.0456C14.7656 13.8034 15.0185 13.5297 15.0711 13.2033C15.1238 12.8769 14.9763 12.4979 14.8394 12.203C14.6708 11.8345 14.4707 11.2976 14.102 11.087C13.7544 10.8975 13.312 11.0028 13.0066 11.2449C12.4799 11.6766 12.2271 12.3399 12.2376 13.0138C12.2376 13.2033 12.2587 13.3928 12.3114 13.5718C12.4167 14.014 12.6168 14.4246 12.8486 14.8142C13.0171 15.109 13.2067 15.3933 13.4068 15.667C14.0704 16.562 14.892 17.3411 15.8401 17.9307C16.3141 18.2255 16.8302 18.4782 17.3569 18.6572C17.9467 18.8573 18.484 19.0573 19.1265 18.9415C19.8006 18.8152 20.4642 18.394 20.7276 17.7517C20.8118 17.5622 20.8434 17.3411 20.8013 17.1411C20.7065 16.7199 20.1482 16.4672 19.8006 16.2672Z" fill="white" />
		</symbol>
		<symbol id="share-linkedin" viewBox="0 0 32 32" fill="none">
			<rect x="0.0117188" width="31.2424" height="31.2424" fill="#0076B9" />
			<path d="M8.95499 12.5292H11.9359V22.1105H8.95499V12.5292ZM10.4507 7.77019C11.4093 7.77019 12.1782 8.53879 12.1782 9.49692C12.1782 10.4445 11.4093 11.2236 10.4507 11.2236C9.49219 11.2236 8.72325 10.4445 8.72325 9.49692C8.71272 8.53879 9.49219 7.77019 10.4507 7.77019Z" fill="white" />
			<path d="M13.8105 12.5293H16.6651V13.8348H16.7072C17.1075 13.0768 18.0766 12.2871 19.5302 12.2871C22.5428 12.2871 23.101 14.2665 23.101 16.8461V22.1H20.1201V17.4462C20.1201 16.3302 20.099 14.9088 18.5717 14.9088C17.0232 14.9088 16.781 16.1196 16.781 17.3725V22.1105H13.8105V12.5293Z" fill="white" />
		</symbol>
		<symbol id="share-instagram" viewBox="0 0 32 32">
<mask id="mask0" mask-type="alpha" maskUnits="userSpaceOnUse" x="0" y="0" width="32" height="32">
<rect x="0.396484" width="31.2424" height="31.2424" fill="#5EF579"/>
</mask>
<g mask="url(#mask0)">
<path d="M16.0179 39.053C28.5276 39.053 38.6687 28.9119 38.6687 16.4023C38.6687 3.8926 28.5276 -6.24849 16.0179 -6.24849C3.50828 -6.24849 -6.63281 3.8926 -6.63281 16.4023C-6.63281 28.9119 3.50828 39.053 16.0179 39.053Z" fill="url(#paint0_linear)"/>
</g>
<path d="M20.4097 9.49429C19.8248 9.49429 19.3652 9.96431 19.3652 10.5492C19.3652 11.1341 19.8352 11.6041 20.4097 11.6041C20.9946 11.6041 21.4646 11.1341 21.4646 10.5492C21.4646 9.96431 20.9946 9.49429 20.4097 9.49429Z" fill="white"/>
<path d="M15.7407 10.8417C13.3071 10.8417 11.333 12.8158 11.333 15.2494C11.333 17.683 13.3071 19.6571 15.7407 19.6571C18.1743 19.6571 20.1484 17.683 20.1484 15.2494C20.1484 12.8158 18.1743 10.8417 15.7407 10.8417ZM15.7407 18.0799C14.1844 18.0799 12.9206 16.8161 12.9206 15.2598C12.9206 13.7036 14.1844 12.4398 15.7407 12.4398C17.297 12.4398 18.5608 13.7036 18.5608 15.2598C18.5608 16.8161 17.297 18.0799 15.7407 18.0799Z" fill="white"/>
<path d="M19.2391 24.2004H12.0949C9.12856 24.2004 6.71582 21.7877 6.71582 18.8214V11.6772C6.71582 8.71086 9.12856 6.29813 12.0949 6.29813H19.2391C22.2054 6.29813 24.6181 8.71086 24.6181 11.6772V18.8214C24.6181 21.7877 22.2054 24.2004 19.2391 24.2004ZM12.0949 7.97973C10.0581 7.97973 8.39742 9.64045 8.39742 11.6772V18.8214C8.39742 20.8581 10.0581 22.5188 12.0949 22.5188H19.2391C21.2758 22.5188 22.9365 20.8581 22.9365 18.8214V11.6772C22.9365 9.64045 21.2758 7.97973 19.2391 7.97973H12.0949Z" fill="white"/>
<defs>
<linearGradient id="paint0_linear" x1="32.0382" y1="0.386384" x2="0.00206079" y2="32.4225" gradientUnits="userSpaceOnUse">
<stop offset="0.0011048" stop-color="#FBE18A"/>
<stop offset="0.2094" stop-color="#FCBB45"/>
<stop offset="0.3765" stop-color="#F75274"/>
<stop offset="0.5238" stop-color="#D53692"/>
<stop offset="0.7394" stop-color="#8F39CE"/>
<stop offset="1" stop-color="#5B4FE9"/>
</linearGradient>
</defs>

		</symbol>
		<symbol id="share-telegram" viewBox="0 0 32 32" fill="none">
			<rect width="31.2424" height="31.2424" fill="#33C8FF" />
			<g clip-path="url(#clip0)">
				<path d="M12.2097 17.8987L11.9255 21.8967C12.3322 21.8967 12.5083 21.722 12.7195 21.5123L14.6261 19.6901L18.5769 22.5834C19.3014 22.9872 19.8119 22.7745 20.0074 21.9168L22.6006 9.7653L22.6013 9.76459C22.8312 8.69349 22.214 8.27465 21.5081 8.53741L6.26501 14.3733C5.2247 14.7771 5.24045 15.357 6.08816 15.6198L9.9852 16.8319L19.0372 11.1679C19.4632 10.8858 19.8506 11.0419 19.532 11.324L12.2097 17.8987Z" fill="white" />
			</g>
			<defs>
				<clipPath id="clip0">
					<rect width="17.1833" height="17.1833" fill="white" transform="translate(5.46729 7.02954)" />
				</clipPath>
			</defs>
		</symbol>
	</defs>
</svg>
