<svg style="position: absolute; width: 0; height: 0; overflow: hidden;" version="1.1"
    xmlns="http://www.w3.org/2000/svg">
    <defs>
        <symbol id="services-delivery" viewBox="0 0 77 62" fill="none">
            <title>services-delivery</title>
            <g clip-path="url(#clip0)">
                <path
                    d="M13.0999 18.751V34.6813C13.0999 35.4529 13.4069 36.1928 13.9533 36.7384C14.4998 37.284 15.241 37.5905 16.0138 37.5905H31.4772C32.25 37.5905 32.9912 37.284 33.5377 36.7384C34.0842 36.1928 34.3912 35.4529 34.3912 34.6813V18.751H13.0999Z"
                    fill="#FFFF8B" />
                <path
                    d="M68.5136 31.9768L64.7546 19.2875C64.736 19.2247 64.7133 19.1631 64.6866 19.1033C64.4666 18.6109 64.1926 18.1444 63.8696 17.7123H64.2182C64.6145 17.7123 64.9946 17.5551 65.2748 17.2753C65.555 16.9956 65.7124 16.6162 65.7124 16.2205C65.7124 15.8249 65.555 15.4455 65.2748 15.1657C64.9946 14.8859 64.6145 14.7288 64.2182 14.7288H54.9238V10.8359C54.9221 8.12336 53.8426 5.52228 51.9223 3.60332C50.002 1.68436 47.3977 0.604255 44.6807 0.599976H1.49367C1.29743 0.599976 1.10311 0.638583 0.92182 0.71359C0.740529 0.788598 0.57582 0.898536 0.437105 1.03712C0.298391 1.17571 0.18839 1.34023 0.11339 1.52127C0.0383889 1.70232 -0.000141404 1.89635 3.89936e-07 2.09226V53.1803C0.00028625 53.5757 0.157747 53.9548 0.437803 54.2344C0.717859 54.514 1.09761 54.6712 1.49367 54.6715H9.79305C10.1391 56.6738 11.1826 58.4898 12.7394 59.7987C14.2961 61.1077 16.266 61.8255 18.3013 61.8255C20.3366 61.8255 22.3064 61.1077 23.8632 59.7987C25.4199 58.4898 26.4634 56.6738 26.8095 54.6715H52.0638C52.4099 56.6738 53.4534 58.4898 55.0101 59.7987C56.5668 61.1077 58.5367 61.8255 60.572 61.8255C62.6073 61.8255 64.5772 61.1077 66.1339 59.7987C67.6906 58.4898 68.7341 56.6738 69.0802 54.6715H75.0074C75.4033 54.6709 75.7828 54.5136 76.0626 54.234C76.3424 53.9544 76.4997 53.5755 76.5 53.1803V42.1018C76.498 39.7643 75.7096 37.4953 74.2614 35.6587C72.8131 33.8221 70.789 32.5243 68.5136 31.9736V31.9768ZM65.3115 31.687H54.9238V17.7187L57.9867 17.7349C58.8116 17.7383 59.6187 17.9748 60.3146 18.417C61.0106 18.8591 61.567 19.4889 61.9194 20.2335L65.3115 31.687ZM2.98843 3.58348H43.1816V19.2304C43.1816 19.6261 43.339 20.0055 43.6192 20.2852C43.8995 20.565 44.2795 20.7222 44.6758 20.7222C45.0721 20.7222 45.4522 20.565 45.7324 20.2852C46.0126 20.0055 46.17 19.6261 46.17 19.2304V3.73863C47.7999 4.08343 49.2618 4.97644 50.3112 6.26831C51.3606 7.56018 51.934 9.17259 51.9353 10.8359V51.6858H46.17V32.7224C46.17 32.3268 46.0126 31.9474 45.7324 31.6676C45.4522 31.3878 45.0721 31.2307 44.6758 31.2307C44.2795 31.2307 43.8995 31.3878 43.6192 31.6676C43.339 31.9474 43.1816 32.3268 43.1816 32.7224V51.6858H26.8106C26.4645 49.6835 25.421 47.8675 23.8642 46.5586C22.3075 45.2496 20.3376 44.5318 18.3023 44.5318C16.267 44.5318 14.2972 45.2496 12.7404 46.5586C11.1837 47.8675 10.1402 49.6835 9.79413 51.6858H2.98843V3.58348ZM18.3018 58.8176C17.1842 58.8176 16.0918 58.4867 15.1626 57.8667C14.2334 57.2468 13.5093 56.3657 13.0817 55.3348C12.6542 54.304 12.5425 53.1697 12.7608 52.0754C12.979 50.9812 13.5174 49.9761 14.3079 49.1874C15.0984 48.3987 16.1054 47.8618 17.2016 47.6445C18.2977 47.4272 19.4338 47.5394 20.4661 47.9668C21.4985 48.3942 22.3806 49.1177 23.001 50.0457C23.6215 50.9737 23.9523 52.0645 23.9516 53.1803C23.9494 54.6752 23.3533 56.1083 22.2941 57.1651C21.235 58.2218 19.7992 58.8161 18.3018 58.8176ZM60.5736 58.8176C59.4561 58.8173 58.3637 58.4863 57.4347 57.8662C56.5056 57.2461 55.7817 56.3649 55.3543 55.3341C54.9269 54.3032 54.8154 53.1689 55.0338 52.0748C55.2522 50.9806 55.7907 49.9757 56.5812 49.187C57.3717 48.3984 58.3787 47.8616 59.4748 47.6444C60.571 47.4272 61.707 47.5394 62.7393 47.9669C63.7715 48.3943 64.6536 49.1178 65.274 50.0458C65.8944 50.9738 66.2252 52.0646 66.2245 53.1803C66.2219 54.6753 65.6256 56.1083 64.5663 57.1651C63.507 58.2219 62.0711 58.8161 60.5736 58.8176ZM73.5116 51.6858H69.0867C68.8229 50.1832 68.1645 48.7775 67.1786 47.612C66.1927 46.4465 64.9147 45.5632 63.475 45.0521C62.0353 44.541 60.4856 44.4205 58.984 44.7029C57.4824 44.9853 56.0828 45.6604 54.9281 46.6594V34.6705H66.0691C68.0441 34.6705 69.9382 35.4538 71.3348 36.848C72.7313 38.2422 73.5159 40.1332 73.5159 42.105L73.5116 51.6858Z"
                    fill="#454545" />
                <path
                    d="M16.016 39.0881H31.474C32.6435 39.087 33.7647 38.6226 34.5917 37.7971C35.4186 36.9715 35.8837 35.8521 35.8849 34.6845V18.7553C35.8849 18.3598 35.7275 17.9805 35.4474 17.7008C35.1673 17.4212 34.7873 17.264 34.3912 17.264H30.2696C30.1714 15.6026 29.4412 14.0413 28.2282 12.8996C27.0151 11.7578 25.411 11.1219 23.7439 11.1219C22.0768 11.1219 20.4727 11.7578 19.2597 12.8996C18.0466 14.0413 17.3164 15.6026 17.2183 17.264H13.0999C12.7037 17.264 12.3238 17.4212 12.0437 17.7008C11.7636 17.9805 11.6062 18.3598 11.6062 18.7553V34.6856C11.6073 35.8531 12.0724 36.9725 12.8994 37.7981C13.7263 38.6237 14.8476 39.088 16.0171 39.0892L16.016 39.0881ZM23.7445 14.1114C24.6176 14.1126 25.4598 14.4346 26.1103 15.0161C26.7608 15.5976 27.1741 16.3978 27.2714 17.264H20.2175C20.3148 16.3978 20.7281 15.5976 21.3786 15.0161C22.0292 14.4346 22.8713 14.1126 23.7445 14.1114ZM14.5936 20.2465H17.2075V23.5812C17.2075 23.9769 17.3649 24.3563 17.6451 24.636C17.9253 24.9158 18.3054 25.073 18.7017 25.073C19.098 25.073 19.478 24.9158 19.7583 24.636C20.0385 24.3563 20.1959 23.9769 20.1959 23.5812V20.2465H27.2941V23.5812C27.2941 23.9769 27.4515 24.3563 27.7317 24.636C28.0119 24.9158 28.392 25.073 28.7883 25.073C29.1846 25.073 29.5646 24.9158 29.8449 24.636C30.1251 24.3563 30.2825 23.9769 30.2825 23.5812V20.2465H32.8975V34.6845C32.8972 35.061 32.7473 35.4221 32.4806 35.6883C32.2139 35.9546 31.8522 36.1043 31.4751 36.1046H16.016C15.6388 36.1043 15.2772 35.9546 15.0105 35.6883C14.7438 35.4221 14.5938 35.061 14.5936 34.6845V20.2465Z"
                    fill="#454545" />
                <path
                    d="M44.6763 27.4407C44.3704 27.441 44.0718 27.3476 43.8208 27.1731C43.5698 26.9985 43.3785 26.7512 43.2729 26.4646C43.1672 26.178 43.1522 25.866 43.2299 25.5706C43.3076 25.2753 43.4743 25.0108 43.7074 24.8131C43.9405 24.6153 44.2288 24.4938 44.5333 24.4649C44.8378 24.4361 45.1439 24.5012 45.4101 24.6516C45.6763 24.802 45.8899 25.0303 46.0219 25.3058C46.154 25.5813 46.1981 25.8906 46.1484 26.1919C46.0877 26.5389 45.9072 26.8537 45.6384 27.0818C45.3695 27.3099 45.0291 27.4369 44.6763 27.4407Z"
                    fill="#454545" />
            </g>
            <defs>
                <clipPath id="clip0">
                    <rect width="76.5" height="61.2" fill="white" transform="translate(0 0.599976)" />
                </clipPath>
            </defs>
        </symbol>
        <symbol id="services-quality" viewBox="0 0 69 63" fill="none">
            <title>services-quality</title>
            <circle cx="34.5" cy="15.5" r="12.5" fill="#FFFF8B" />
            <path
                d="M29.3264 3.15747C30.2648 1.54357 32.023 0.491027 33.8549 0.346112C35.3574 0.214926 36.896 0.725943 38.0616 1.68848C38.7971 2.26509 39.2392 3.10408 39.7912 3.84238C40.3943 4.57306 41.3433 4.96204 42.2728 4.96967C43.5001 5.00781 44.7454 5.36018 45.723 6.13204C46.3637 6.62018 46.9081 7.23645 47.3157 7.93509C48.1279 9.37967 48.373 11.172 47.8226 12.7554C47.5729 13.6036 46.9863 14.3342 46.9036 15.2342C46.8239 15.907 46.9984 16.5842 47.3172 17.1715C47.6677 17.8671 47.9414 18.6054 48.0692 19.3773C48.3264 21.3146 47.5985 23.3556 46.1456 24.6461C45.2056 25.5675 43.9317 26.0022 42.6578 26.1731C42.6413 28.6442 42.6518 31.1139 42.6533 33.5851C42.6488 34.5446 42.6473 35.5041 42.6548 36.4636C42.6398 38.4878 42.6608 40.512 42.6458 42.5363C42.6458 43.4714 41.5103 44.1868 40.7071 43.6712C39.7777 43.0351 38.8843 42.3425 37.9623 41.6927C37.3622 41.2641 36.7712 40.8217 36.1666 40.3976C35.6131 39.9858 35.0641 39.5648 34.4791 39.1956C32.4111 40.6554 30.3957 42.1931 28.3172 43.6361C27.6359 44.1197 26.6462 43.6803 26.392 42.9176C26.4672 38.4207 26.4056 33.9207 26.4251 29.4237C26.3935 28.3392 26.4973 27.25 26.359 26.1715C25.1648 26.112 23.9465 25.7978 22.9825 25.0549C22.1297 24.4264 21.4499 23.5692 21.0092 22.6005C20.6708 21.7554 20.4843 20.8478 20.5099 19.9341C20.5685 18.9517 20.8814 18.0044 21.3386 17.141C21.8304 16.2288 21.8785 15.0863 21.4108 14.1527C20.9806 13.2954 20.6016 12.3878 20.5294 11.4161C20.4151 10.0997 20.8077 8.79391 21.4589 7.66509C21.7627 7.23187 22.1132 6.82916 22.4892 6.45848C23.2066 5.85594 24.0293 5.35408 24.9497 5.15425C25.7634 4.93764 26.6252 5.04442 27.4328 4.8034C28.2465 4.51815 28.9067 3.91103 29.3264 3.15747ZM32.375 3.65781C31.7087 4.12306 31.4169 4.91781 30.898 5.5173C29.8197 6.82306 28.1743 7.61933 26.4943 7.64374C25.5829 7.59798 24.685 7.97933 24.0669 8.65662C23.0095 9.70611 22.9374 11.5092 23.6803 12.7585C24.0293 13.3641 24.1932 14.0475 24.3601 14.7202C24.294 15.5805 24.4338 16.4729 24.1375 17.3012C23.9586 17.9541 23.5465 18.5063 23.3329 19.1454L23.3284 19.0341C23.2442 19.5954 23.0577 20.1705 23.2021 20.741C23.3855 21.9659 24.3346 23.0337 25.5047 23.3739C26.4748 23.6149 27.502 23.4471 28.4405 23.8468C29.1158 24.1549 29.7595 24.5348 30.3235 25.0244C31.1477 25.8909 31.6711 27.07 32.7134 27.7046C33.8745 28.3666 35.4567 28.2354 36.4508 27.3156C37.0118 26.8458 37.2675 26.1273 37.7593 25.5964C38.606 24.582 39.8017 23.891 41.0741 23.5997C41.6276 23.4929 42.1976 23.557 42.7556 23.4792C43.5166 23.3144 44.237 22.9163 44.7303 22.2985C45.4628 21.4046 45.6598 20.1217 45.2628 19.0356C44.9484 18.2958 44.5138 17.5987 44.3709 16.7917C44.1739 15.4295 44.2415 13.962 44.9574 12.7509C45.4763 11.892 45.6403 10.8242 45.3139 9.8617C45.0748 9.18442 44.6085 8.63221 44.0611 8.18831C42.9857 7.39967 41.5975 7.79628 40.4093 7.35543C39.4588 7.02442 38.594 6.45391 37.8946 5.7217C37.3728 5.12679 37.0389 4.38848 36.4839 3.82103C35.3559 2.8295 33.5661 2.72577 32.375 3.65781ZM38.8963 28.5848C38.3564 29.3048 37.5954 29.7837 36.8794 30.2948C36.2658 30.3939 35.7048 30.7219 35.0762 30.7509C34.5919 30.7814 34.1046 30.7585 33.6203 30.7844C32.4712 30.6014 31.3492 30.1346 30.4724 29.3505C29.8588 28.8105 29.5008 28.0509 28.9534 27.4514C28.9654 31.5715 28.9594 35.6932 28.9624 39.8134C29.5098 39.6181 29.9204 39.1864 30.3897 38.86C31.3883 38.1476 32.387 37.4353 33.3706 36.7015C33.7722 36.3965 34.2535 36.1127 34.7754 36.2348C35.4236 36.4315 35.8943 36.9593 36.4538 37.3193C37.645 38.1324 38.7579 39.0675 39.9897 39.8134C39.9897 35.5849 40.0123 31.3549 39.9867 27.1264C39.5385 27.5444 39.2603 28.0981 38.8963 28.5848Z"
                fill="#454545" />
            <path
                d="M37.7637 12.1758C38.2119 11.7456 38.618 11.1552 39.2797 11.0775C39.746 11.021 40.131 11.3413 40.4664 11.622C40.6378 12.0186 40.7958 12.4839 40.5957 12.9003C40.3446 13.4327 39.8738 13.8034 39.4768 14.2183C37.5125 16.1952 35.5709 18.1981 33.5976 20.1675C33.2337 20.5915 32.6576 20.5473 32.1568 20.5397C30.916 19.4947 29.8572 18.2515 28.6871 17.1303C28.2615 16.7551 28.0148 16.1998 28.0855 15.6217C28.3306 14.9063 29.0541 14.5081 29.7835 14.6607C30.0136 14.7629 30.2182 14.9154 30.4032 15.0878C31.1582 15.8322 31.8696 16.6224 32.6531 17.3363C34.3797 15.6415 36.0597 13.8964 37.7637 12.1758Z"
                fill="#454545" />
            <path
                d="M10.9926 12.8867C12.4019 12.5038 13.9976 12.7357 15.1783 13.6296C15.6987 14.0002 16.1333 14.4792 16.5033 15.0024C17.3516 16.3646 17.5847 18.125 17.0207 19.6428C16.2115 21.7906 15.3227 23.9079 14.5285 26.0602C13.8999 27.5704 13.3058 29.0989 12.7448 30.6365C12.632 30.8928 12.5222 31.149 12.4109 31.4068C13.4532 30.9736 14.6113 30.8913 15.7152 31.0941C17.0944 31.4816 18.3307 32.4045 19.0902 33.6401C19.4211 34.2929 19.6482 34.9931 19.8798 35.6887C20.5942 37.9082 21.3507 40.114 22.0816 42.3289C22.3148 43.0718 22.5659 43.8085 22.7705 44.5591C23.2894 46.6443 23.336 48.9157 22.5734 50.946C22.0922 52.3158 21.3597 53.5941 20.4483 54.7153C19.3459 55.9829 18.1457 57.2262 17.5245 58.8248C17.135 59.795 16.9695 60.8368 16.6537 61.8299C16.4717 62.434 15.84 62.8779 15.2129 62.7696C14.7752 62.7223 14.4473 62.3836 14.2022 62.0404L14.1255 61.926C13.9976 61.2838 14.2458 60.6675 14.4173 60.0604C14.6519 59.2763 14.8083 58.4663 15.1271 57.7113C15.7408 56.2499 16.6748 54.9518 17.7411 53.7985C19.0797 52.3402 20.2197 50.557 20.4453 48.5374C20.6243 47.3185 20.4543 46.0753 20.1234 44.8992C19.4662 42.6645 18.6615 40.477 17.9471 38.2591C17.702 37.4231 17.3831 36.6116 17.1199 35.7818C16.8537 34.508 15.5859 33.5318 14.3045 33.6584C12.8802 33.7865 11.7176 35.3013 12.056 36.7336C12.2966 37.6779 12.6155 38.5992 12.8651 39.5404C13.0862 40.3565 13.3449 41.1604 13.581 41.9704C13.7435 42.6431 14.1345 43.4028 13.7044 44.0557C13.3223 44.7741 12.3056 44.8336 11.7116 44.3607C11.2002 43.6423 11.0784 42.7392 10.8077 41.9155C10.2662 39.8516 9.48413 37.8457 9.18784 35.7223C9.07955 34.3189 9.25552 32.914 9.54579 31.5426C10.9806 27.8053 12.4545 24.0818 13.9149 20.3536C14.2623 19.3316 14.9602 18.3157 14.6383 17.1853C14.315 15.9482 12.9163 15.0406 11.6815 15.4555C10.8859 15.666 10.2587 16.3036 9.97744 17.0785C9.0585 19.4582 8.0809 21.8165 7.17699 24.2038C6.57539 25.5416 6.0911 26.9297 5.52109 28.2813C4.9992 29.7411 4.23968 31.1323 4.02912 32.6882C3.87872 33.9619 3.94189 35.2723 4.34195 36.4957C4.56905 37.4079 4.82774 38.3109 5.08042 39.2155C5.65946 41.4319 6.30467 43.6285 6.89274 45.8435C7.30333 46.9524 7.39658 48.1316 7.36349 49.3077C7.25671 49.9743 7.04765 50.6165 6.81002 51.2465C5.66698 54.6482 4.49987 58.0407 3.33728 61.4363C3.18989 62.0633 2.79283 62.6018 2.17619 62.8138C1.26928 62.916 0.377405 61.9977 0.685725 61.0779C1.62272 58.207 2.66048 55.3697 3.58845 52.4958C4.07273 50.9384 4.98115 49.3672 4.63673 47.6816C3.92985 44.8748 3.12672 42.0924 2.35366 39.304C2.03181 37.8365 1.4648 36.424 1.33395 34.9168C1.26326 33.9192 1.28131 32.9094 1.47081 31.924C1.81523 30.1194 2.64544 28.4689 3.27862 26.7604C4.78262 23.0887 6.22045 19.3911 7.7049 15.7118C8.31402 14.3374 9.5488 13.2574 10.9926 12.8867Z"
                fill="#454545" />
            <path
                d="M54.165 13.1886C56.4751 12.0354 59.5358 13.0239 60.748 15.3318C61.0864 16 61.3075 16.7184 61.6098 17.4033C62.4249 19.4383 63.2236 21.4823 64.0538 23.5111C64.3847 24.3745 64.7231 25.2349 65.0795 26.0861C65.9924 28.6137 67.4032 31.0742 67.3355 33.8474C67.4032 35.4552 66.8963 36.9959 66.4752 38.5228C65.6721 41.5874 64.7667 44.6261 63.9921 47.6983C63.7379 48.76 64.1049 49.8201 64.4463 50.8132C65.0133 52.3706 65.5097 53.954 66.0601 55.5161C66.3233 56.2178 65.7954 56.8447 65.2525 57.2017C64.8659 57.2078 64.4403 57.2505 64.1049 57.0156C63.6131 56.7105 63.4642 56.111 63.2943 55.5939C63.025 54.6908 62.6851 53.8137 62.3783 52.9259C62.1437 52.1784 61.9031 51.4325 61.6263 50.7018C61.13 49.2496 61.1721 47.6311 61.6429 46.1805C62.2204 44.1684 62.7483 42.1411 63.3078 40.1245C63.6417 38.8401 64.0568 37.5771 64.3425 36.2789C64.887 34.4622 64.7727 32.4501 64.0703 30.6913C63.75 29.8798 63.4071 29.0789 63.1063 28.2613C62.834 27.5566 62.5287 26.8686 62.252 26.1669C61.4037 23.952 60.4998 21.76 59.626 19.5557C59.3463 18.8678 59.08 18.1752 58.8108 17.4842C58.5476 16.691 58.0859 15.8978 57.2782 15.5805C56.254 15.0542 54.947 15.5195 54.3289 16.4622C53.8536 17.1425 53.798 18.0669 54.1123 18.8281C54.4206 19.5939 54.7305 20.3596 55.0192 21.1345C55.287 21.8286 55.5802 22.512 55.8464 23.2076C56.612 25.1906 57.3895 27.1691 58.1746 29.143C58.507 30.0598 58.9251 30.9476 59.1402 31.904C59.3929 32.9337 59.5102 34.003 59.4696 35.0647C59.3583 37.4978 58.3641 39.7539 57.7791 42.0862C57.5339 42.7971 57.4392 43.5812 57.0241 44.2173C56.7052 44.7008 56.0961 44.6505 55.5953 44.6734C55.1381 44.3728 54.6478 43.9228 54.7245 43.3111C54.9666 42.0023 55.4629 40.7576 55.7953 39.4717C56.0164 38.5884 56.3112 37.7266 56.5533 36.8479C56.7398 36.2149 56.5984 35.5376 56.2961 34.9671C55.7397 33.9908 54.5304 33.4081 53.443 33.73C52.6504 33.9954 51.906 34.5735 51.6382 35.4034C50.9479 37.4245 50.2831 39.4564 49.6319 41.4913C48.925 43.5583 48.0452 45.6496 48.1204 47.8813C48.1866 49.03 48.4663 50.1771 49.0273 51.1854C49.48 52.0381 50.0154 52.8496 50.6862 53.5452C51.9932 54.9959 53.2084 56.5991 53.804 58.4952C53.995 59.2442 54.186 59.9932 54.4191 60.73C54.4838 60.9664 54.535 61.2089 54.5695 61.453C54.559 62.3103 53.6536 63.0044 52.8354 62.7435C52.1616 62.472 51.8834 61.7688 51.7631 61.0961C51.5239 60.1396 51.3059 59.1664 50.8607 58.2817C50.3298 57.1483 49.498 56.201 48.6724 55.2812C48.1023 54.6466 47.588 53.9617 47.1518 53.2264C46.3607 51.9832 45.8463 50.5676 45.5696 49.12C45.4613 47.9332 45.4433 46.725 45.6553 45.5474C45.8478 44.3835 46.2599 43.2761 46.5983 42.1503C47.1924 40.5166 47.6782 38.8462 48.2678 37.211C48.6919 36.0135 48.9611 34.7474 49.5717 33.6262C50.2997 32.38 51.56 31.4983 52.9166 31.091C54.0176 30.8988 55.1742 30.9644 56.2134 31.4037C55.4569 29.445 54.6884 27.494 53.9168 25.543C53.6521 24.8184 53.3633 24.103 53.064 23.3922C52.7467 22.5837 52.4609 21.7615 52.1225 20.9622C51.8097 20.1461 51.4187 19.3391 51.3405 18.4559C51.2186 17.5208 51.4036 16.5674 51.7405 15.6964C52.2744 14.6317 53.1107 13.7301 54.165 13.1886Z"
                fill="#454545" />
            <path
                d="M66.2588 60.1428C66.8393 60.0512 67.5131 60.1809 67.8064 60.7575C68.3794 61.5873 67.6364 62.8626 66.6498 62.7802C66.0918 62.8016 65.6902 62.35 65.409 61.9183C65.409 61.5812 65.3203 61.2121 65.4932 60.9024C65.6526 60.5653 65.976 60.3624 66.2588 60.1428Z"
                fill="#454545" />
            <path
                d="M26.2356 26.6491C26.2717 26.4874 26.3123 26.3287 26.3589 26.1716C26.4973 27.2501 26.3935 28.3393 26.4251 29.4238C26.4056 33.9208 26.4672 38.4208 26.392 42.9177C26.1905 42.4464 26.2567 41.9216 26.2461 41.4243C26.2687 40.471 26.2536 39.5176 26.2536 38.5642C26.2642 35.5011 26.2747 32.4381 26.2476 29.375C26.2657 28.4659 26.2612 27.5567 26.2356 26.6491Z"
                fill="#454545" />
        </symbol>
        <symbol id="services-speciality" viewBox="0 0 66 66" fill="none">
            <title>services-speciality</title>
                <path
                    d="M44.8723 56.1212H37.7821C36.9571 56.1212 36.4189 55.2551 36.7842 54.5154L39.2905 49.4409H43.3639L45.8702 54.5154C46.2355 55.2551 45.6972 56.1212 44.8723 56.1212Z"
                    fill="#FFFF8B" />
                <path
                    d="M41.327 49.4408C50.5393 49.4408 58.0073 40.875 58.0073 30.3085C58.0073 19.742 50.5393 11.1761 41.327 11.1761C32.1148 11.1761 24.6467 19.742 24.6467 30.3085C24.6467 40.875 32.1148 49.4408 41.327 49.4408Z"
                    fill="#FFFF8B" />
                <path
                    d="M28.2183 46.234H21.128C20.303 46.234 19.7648 45.3679 20.1302 44.6282L22.6365 39.5537H26.7098L29.2161 44.6282C29.5814 45.3679 29.0431 46.234 28.2183 46.234Z"
                    fill="white" />
                <path
                    d="M24.673 39.5537C33.8853 39.5537 41.3533 30.9879 41.3533 20.4214C41.3533 9.8549 33.8853 1.28906 24.673 1.28906C15.4607 1.28906 7.99268 9.8549 7.99268 20.4214C7.99268 30.9879 15.4607 39.5537 24.673 39.5537Z"
                    fill="white" />
                <path
                    d="M59.2965 30.3085C59.2965 19.0482 51.2355 9.88714 41.3272 9.88714C40.9143 9.88714 40.5 9.90519 40.0877 9.93716C36.9434 3.98896 31.2106 0 24.673 0C22.3424 0 20.0744 0.499378 17.9321 1.48421C17.2852 1.7816 17.002 2.54703 17.2993 3.19388C17.5967 3.84085 18.3622 4.1238 19.009 3.82667C20.8111 2.9982 22.7167 2.5781 24.673 2.5781C33.1597 2.5781 40.0641 10.5826 40.0641 20.4214C40.0641 30.2602 33.1596 38.2647 24.673 38.2647C16.1864 38.2647 9.28184 30.2602 9.28184 20.4214C9.28184 17.1906 10.0352 14.0258 11.4603 11.2689C11.7874 10.6365 11.5396 9.85878 10.9073 9.53175C10.2751 9.20498 9.49724 9.45235 9.17021 10.0849C7.55645 13.2061 6.70361 16.7803 6.70361 20.4214C6.70361 30.1705 12.7464 38.3445 20.7987 40.3632L18.9743 44.0573C18.604 44.807 18.6464 45.6786 19.0878 46.3888C19.5291 47.0989 20.2919 47.5229 21.128 47.5229H22.2493C21.7455 48.5659 21.4783 49.7169 21.4783 50.9094C21.4783 52.9914 22.2891 54.9489 23.7614 56.4212C24.7468 57.4066 25.2894 58.7166 25.2894 60.1099C25.2894 61.5034 24.7468 62.8135 23.7614 63.7987C23.258 64.3021 23.258 65.1183 23.7614 65.6217C24.0131 65.8734 24.343 65.9992 24.6728 65.9992C25.0027 65.9992 25.3326 65.8733 25.5843 65.6217C27.0566 64.1494 27.8674 62.192 27.8674 60.1098C27.8674 58.0277 27.0566 56.0703 25.5843 54.598C24.5988 53.6126 24.0563 52.3027 24.0563 50.9092C24.0563 49.6536 24.4982 48.4665 25.3064 47.5228H28.2179C29.0521 47.5228 29.8131 47.1006 30.2549 46.3933C32.361 48.2633 34.8206 49.5858 37.4544 50.2469L35.6282 53.9443C35.2579 54.694 35.3003 55.5655 35.7417 56.2757C36.183 56.9859 36.9458 57.4099 37.7818 57.4099H38.9125C37.6813 59.9781 37.9116 63.1179 39.701 65.4875C39.9544 65.8231 40.3402 65.9999 40.7307 65.9999C41.0012 65.9999 41.274 65.9151 41.5065 65.7395C42.0746 65.3105 42.1874 64.5021 41.7584 63.934C40.2846 61.9824 40.3922 59.2489 41.9607 57.41H44.8719C45.7079 57.41 46.4707 56.9861 46.912 56.2759C47.3534 55.5658 47.3958 54.6941 47.0255 53.9444L45.2011 50.2504C53.2535 48.2316 59.2965 40.0576 59.2965 30.3085ZM21.4113 44.9449L23.4373 40.8428H25.9087L27.9348 44.9449H21.4113ZM42.5628 50.7299L44.5888 54.8321H38.0654L40.0915 50.7299H42.5628ZM41.3271 48.1518C36.2243 48.1518 31.4612 45.195 28.6071 40.3484C36.6294 38.3041 42.6422 30.1462 42.6422 20.4214C42.6422 17.6012 42.1364 14.9128 41.2228 12.4669C41.2576 12.4667 41.2924 12.4652 41.3271 12.4652C49.8138 12.4652 56.7182 20.4697 56.7182 30.3085C56.7182 40.1473 49.8138 48.1518 41.3271 48.1518Z"
                    fill="#454545" />
                <path
                    d="M13.7238 7.27832C14.0628 7.27832 14.3954 7.14039 14.6352 6.90062C14.8748 6.65957 15.0129 6.32828 15.0129 5.98926C15.0129 5.65023 14.8749 5.31766 14.6352 5.0766C14.3941 4.83684 14.0628 4.7002 13.7238 4.7002C13.3834 4.7002 13.0509 4.83684 12.8124 5.0766C12.5714 5.31766 12.4336 5.64895 12.4336 5.98926C12.4336 6.32828 12.5714 6.66086 12.8124 6.90062C13.0509 7.14039 13.3834 7.27832 13.7238 7.27832Z"
                    fill="#454545" />
        </symbol>
        <symbol id="services-variety" viewBox="0 0 61 61" fill="none">
            <title>services-variety</title>
                <path fill-rule="evenodd" clip-rule="evenodd"
                    d="M1.19141 4.44359V56.5564C1.19141 58.3429 2.65374 59.8086 4.44359 59.8086H56.5564C58.3429 59.8086 59.8086 58.3429 59.8086 56.5564V4.44359C59.8086 2.65374 58.3429 1.19141 56.5564 1.19141H38.1171V18.4182L30.4983 12.0894L22.8829 18.4182V1.19141H4.44359C2.65374 1.19141 1.19141 2.65374 1.19141 4.44359ZM7.57079 38.1105H26.8611C27.4791 38.1105 27.9857 38.6171 27.9857 39.235V52.5342C27.9857 53.1522 27.4791 53.6588 26.8611 53.6588H7.57079C6.95281 53.6588 6.44622 53.1522 6.44622 52.5342V39.235C6.44622 38.6169 6.95281 38.1105 7.57079 38.1105Z"
                    fill="white" />
                <path fill-rule="evenodd" clip-rule="evenodd"
                    d="M22.8831 1.19141V18.4182L30.4985 12.0894L38.1173 18.4182V1.19141H22.8831Z" fill="#FFFF8B" />
                <path fill-rule="evenodd" clip-rule="evenodd"
                    d="M26.8612 38.1105H7.57086C6.95287 38.1105 6.44629 38.6171 6.44629 39.235V52.5342C6.44629 53.1522 6.95287 53.6588 7.57086 53.6588H26.8612C27.4791 53.6588 27.9857 53.1522 27.9857 52.5342V39.235C27.9857 38.6169 27.4793 38.1105 26.8612 38.1105Z"
                    fill="#FFFF8B" />
                <path
                    d="M56.5564 0H4.44359C1.99334 0 0 1.99334 0 4.44359V56.5564C0 59.0067 1.99334 61 4.44359 61H25.1489C25.8068 61 26.3403 60.4665 26.3403 59.8086C26.3403 59.1507 25.8068 58.6172 25.1489 58.6172H4.44359C3.30734 58.6172 2.38281 57.6927 2.38281 56.5564V4.44359C2.38281 3.30734 3.30734 2.38281 4.44359 2.38281H21.6915V18.4183C21.6915 18.8803 21.9586 19.3007 22.3768 19.4969C22.7953 19.6932 23.2891 19.6301 23.6444 19.3346L30.4986 13.6385L37.3561 19.3349C37.5742 19.5161 37.8445 19.6098 38.1176 19.6098C38.2893 19.6098 38.4622 19.5727 38.6236 19.497C39.0418 19.3008 39.3088 18.8803 39.3088 18.4184V2.38281H56.5566C57.6927 2.38281 58.6172 3.30734 58.6172 4.44359V56.5564C58.6172 57.6927 57.6927 58.6172 56.5564 58.6172H35.8477C35.1898 58.6172 34.6563 59.1507 34.6563 59.8086C34.6563 60.4665 35.1898 61 35.8477 61H56.5564C59.0067 61 61 59.0067 61 56.5564V4.44359C61 1.99334 59.0067 0 56.5564 0V0ZM36.9258 15.8798L31.2595 11.173C30.818 10.8065 30.1781 10.8064 29.7368 11.1732L24.0743 15.8791V2.38281H36.9258V15.8798Z"
                    fill="#454545" />
                <path
                    d="M26.861 36.9191H7.57086C6.29379 36.9191 5.25488 37.958 5.25488 39.2349V52.5342C5.25488 53.8113 6.29391 54.8501 7.57086 54.8501H26.861C28.1381 54.8501 29.177 53.8112 29.177 52.5342V39.2349C29.177 37.958 28.1381 36.9191 26.861 36.9191ZM26.7942 52.4674H7.63758V39.3019H26.7942V52.4674Z"
                    fill="#454545" />
                <path
                    d="M17.6787 44.4858H23.4502C24.1081 44.4858 24.6416 43.9523 24.6416 43.2944C24.6416 42.6365 24.1081 42.103 23.4502 42.103H17.6787C17.0208 42.103 16.4873 42.6365 16.4873 43.2944C16.4873 43.9523 17.0207 44.4858 17.6787 44.4858Z"
                    fill="#454545" />
                <path
                    d="M10.9817 44.4858H12.8391C13.497 44.4858 14.0305 43.9523 14.0305 43.2944C14.0305 42.6365 13.497 42.103 12.8391 42.103H10.9817C10.3238 42.103 9.79028 42.6365 9.79028 43.2944C9.79028 43.9523 10.3237 44.4858 10.9817 44.4858Z"
                    fill="#454545" />
                <path
                    d="M10.9817 49.6661H23.4501C24.108 49.6661 24.6415 49.1326 24.6415 48.4747C24.6415 47.8168 24.108 47.2833 23.4501 47.2833H10.9817C10.3238 47.2833 9.79028 47.8168 9.79028 48.4747C9.79028 49.1326 10.3237 49.6661 10.9817 49.6661Z"
                    fill="#454545" />
                <path
                    d="M34.8969 36.2004L36.7433 34.3539V48.3498C36.7433 49.0077 37.2768 49.5412 37.9347 49.5412C38.5926 49.5412 39.1261 49.0077 39.1261 48.3498V34.3521L40.9762 36.2007C41.2089 36.4331 41.5137 36.5493 41.8183 36.5493C42.1234 36.5493 42.4284 36.4327 42.6611 36.1999C43.1261 35.7345 43.1258 34.9801 42.6604 34.5149L38.7767 30.6346C38.3187 30.1767 37.5499 30.1771 37.092 30.635L33.2117 34.5153C32.7465 34.9805 32.7465 35.7349 33.2117 36.2003C33.6773 36.6655 34.4315 36.6655 34.8969 36.2004Z"
                    fill="#454545" />
                <path
                    d="M50.6632 49.5414C51.3211 49.5414 51.8546 49.0079 51.8546 48.35V34.354L53.7011 36.2006C54.1664 36.6657 54.9206 36.6657 55.3861 36.2006C55.8513 35.7353 55.8513 34.9809 55.3861 34.5156L51.5058 30.6353C51.0467 30.1776 50.2804 30.1767 49.8211 30.6349L45.9374 34.5152C45.472 34.9802 45.4717 35.7346 45.9367 36.2002C46.1693 36.433 46.4745 36.5496 46.7795 36.5496C47.0842 36.5496 47.3889 36.4333 47.6216 36.2009L49.4717 34.3524V48.3501C49.4718 49.008 50.0053 49.5414 50.6632 49.5414Z"
                    fill="#454545" />
                <path
                    d="M55.2251 53.6587C55.2251 53.0008 54.6916 52.4673 54.0337 52.4673H34.5645C33.9066 52.4673 33.373 53.0008 33.373 53.6587C33.373 54.3166 33.9066 54.8501 34.5645 54.8501H54.0337C54.6917 54.8501 55.2251 54.3166 55.2251 53.6587Z"
                    fill="#454545" />
                <path
                    d="M30.498 58.6172C29.8401 58.6172 29.3066 59.1507 29.3066 59.8086C29.3066 60.4665 29.8401 61 30.498 61H30.5049C31.1628 61 31.693 60.4665 31.693 59.8086C31.693 59.1507 31.156 58.6172 30.498 58.6172Z"
                    fill="#454545" />
        </symbol>
        <symbol id="services-sending" viewBox="0 0 53 74" fill="none">
            <title>services-sending</title>
                <path
                    d="M25.094 1.77784C25.0875 1.05492 25.6665 0.371434 26.3879 0.295856C27.2188 0.192347 28.0235 0.941556 27.9957 1.78113C27.9123 2.50405 27.3055 3.18425 26.5465 3.15797C25.7892 3.17275 25.1693 2.51227 25.094 1.77784Z"
                    fill="#454545" />
                <path
                    d="M8.22515 7.8388C11.4654 4.59387 15.5907 2.26738 20.0152 1.11399C20.7431 0.905332 21.4906 1.43931 21.713 2.12772C21.8439 2.83586 21.5151 3.65407 20.7889 3.87095C19.6406 4.2242 18.4711 4.52322 17.385 5.05227C10.5478 7.92752 5.31526 14.3319 3.85459 21.6334C4.7166 21.1323 5.54589 20.5491 6.50931 20.2533C8.77147 19.4154 11.3101 19.3891 13.5837 20.1991C15.4843 20.8054 17.0873 22.0869 18.3468 23.6133C19.7895 21.7435 21.8717 20.393 24.1764 19.8853C26.4614 19.3152 28.915 19.6372 31.0495 20.6C32.4889 21.3114 33.755 22.3498 34.7462 23.6149C35.883 22.2561 37.2701 21.0683 38.9336 20.4209C41.2301 19.4647 43.8619 19.3185 46.2222 20.1334C47.3165 20.4439 48.2766 21.06 49.2433 21.6384C48.2684 16.8934 45.7462 12.4836 42.1706 9.23371C39.457 6.72484 36.1267 4.89618 32.5593 3.95803C31.7349 3.79866 31.2327 2.94265 31.3996 2.1343C31.5975 1.6414 32.0113 1.11564 32.5936 1.13207C33.1645 1.07949 33.7124 1.26679 34.2457 1.44588C39.7138 3.12503 44.593 6.68377 47.8628 11.3975C50.7547 15.4788 52.3871 20.4275 52.5981 25.4239C52.5948 26.1008 52.724 26.8516 52.2726 27.4234C48.6675 32.7352 45.069 38.052 41.4689 43.3654C41.1712 43.7828 40.8866 44.2083 40.6265 44.6503C41.127 45.1612 41.6128 45.7281 41.8124 46.4329C42.0708 47.1805 41.9727 47.979 41.9874 48.7545C41.9759 55.9853 41.9956 63.2178 41.9776 70.4487C41.9203 72.2708 40.3173 73.8694 38.5001 73.8875C30.531 73.8957 22.5636 73.8957 14.5945 73.8875C12.7135 73.8776 11.0712 72.1656 11.1072 70.2827C11.104 62.7775 11.1089 55.2723 11.104 47.7687C11.0222 46.5709 11.5963 45.4373 12.4665 44.647C8.59972 38.8538 4.65444 33.1098 0.763142 27.3297C0.269164 26.5132 0.530874 25.4945 0.545595 24.5925C0.969238 18.3195 3.75645 12.242 8.22515 7.8388ZM4.83437 24.6484C4.36002 25.1659 3.80716 25.7114 3.61087 26.3932C5.74218 29.6266 7.9618 32.8026 10.1046 36.0294C11.912 38.6204 13.6213 41.2821 15.4467 43.86C17.3408 43.9503 19.2497 43.8928 21.1504 43.8781C21.0996 43.3901 20.9851 42.9152 20.8527 42.447C19.5507 37.283 18.2846 32.1109 16.9646 26.9551C15.8556 24.1719 12.8214 22.3449 9.86084 22.519C7.98798 22.4927 6.156 23.334 4.83437 24.6484ZM23.6808 23.0514C22.1236 23.7053 20.7611 24.8702 19.9661 26.3735C19.8042 26.6413 19.9498 26.9502 20.0005 27.2295C21.1814 31.9416 22.3428 36.6587 23.5466 41.3659C23.7724 42.2153 23.8901 43.096 24.2124 43.9175C25.7532 43.8633 27.2973 43.9503 28.8381 43.8715C30.2497 38.236 31.712 32.6136 33.1449 26.9831C33.1907 26.7826 33.2479 26.5608 33.1252 26.3751C32.1683 24.581 30.4198 23.2419 28.4602 22.7408C26.8883 22.3728 25.1791 22.4106 23.6808 23.0514ZM39.7203 23.2321C38.1075 24.0092 36.6959 25.3581 36.0973 27.0751C34.8149 31.9531 33.5799 36.8444 32.3286 41.729C32.152 42.4486 31.8788 43.1518 31.833 43.8978C33.7697 43.8682 35.7162 43.9635 37.6463 43.8583C41.5392 38.213 45.3389 32.5003 49.204 26.8352C49.3104 26.6232 49.6097 26.3867 49.4069 26.1386C48.3584 24.3181 46.4888 23.0004 44.4311 22.6192C42.8494 22.3761 41.1728 22.5174 39.7203 23.2321ZM14.0008 47.4384C13.9746 54.9995 14.0024 62.5623 13.9877 70.1234C13.9108 70.585 14.2707 71.0747 14.763 71.0106C22.6176 71.0139 30.4738 71.0155 38.33 71.0106C38.7389 71.0615 39.1315 70.6935 39.0938 70.2762C39.102 62.72 39.0955 55.1622 39.0971 47.6044C39.1053 47.3234 39.0104 47.0047 38.7471 46.8683C37.9636 46.6909 37.1556 46.7615 36.3606 46.75C35.3449 46.7648 34.3242 46.6958 33.3133 46.8338C33.3297 49.7764 33.3182 52.7174 33.3231 55.6584C33.3804 56.5029 32.5985 57.2192 31.7807 57.1798C30.8075 56.9646 30.0943 56.171 29.1636 55.8555C28.1658 56.1283 27.469 57.1831 26.3813 57.1732C25.4915 56.9777 24.8863 56.2154 24.0684 55.8654C23.1181 56.0757 22.436 56.9317 21.4791 57.1469C20.6989 57.2784 19.8614 56.6327 19.8712 55.8194C19.8173 52.8176 19.9285 49.8126 19.8156 46.8125C18.301 46.704 16.7765 46.9275 15.257 46.778C14.7777 46.7467 13.9877 46.7796 14.0008 47.4384ZM22.6797 46.8305C22.6944 48.9484 22.6863 51.0662 22.6846 53.1824C23.2768 52.954 23.8918 52.4529 24.551 52.7503C25.2707 53.0509 25.8121 53.6671 26.5449 53.9447C27.3284 53.6588 27.9205 53.0148 28.704 52.7322C29.319 52.5087 29.8931 52.9458 30.4345 53.1807C30.5686 51.0645 30.4999 48.9401 30.428 46.8223C27.8469 46.8141 25.2576 46.6383 22.6797 46.8305Z"
                    fill="#454545" />
                <path
                    d="M18.754 64.6143C20.0331 64.4566 21.3335 64.5864 22.6208 64.547C23.3748 64.5634 24.137 64.4303 24.8846 64.5864C25.7171 64.7688 26.2258 65.8318 25.8136 66.5908C25.5715 67.1149 25.004 67.4616 24.4266 67.4173C22.6829 67.4205 20.9376 67.4271 19.1924 67.4123C18.6133 67.4288 18.0834 67.0081 17.8838 66.4742C17.5943 65.748 18.0114 64.8525 18.754 64.6143Z"
                    fill="#454545" />
                <path
                    d="M21.7129 2.12779C22.8399 2.01278 23.9604 1.82219 25.0939 1.77783C25.1691 2.51225 25.7891 3.17274 26.5464 3.15795C27.3053 3.18424 27.9122 2.50404 27.9956 1.78112C29.1373 1.81398 30.261 2.04728 31.3995 2.13436C31.2326 2.94272 31.7348 3.79872 32.5592 3.9581C36.1266 4.89625 39.4569 6.72491 42.1705 9.23377C45.7461 12.4836 48.2683 16.8935 49.2432 21.6384C48.2765 21.0601 47.3164 20.444 46.2221 20.1335C43.8618 19.3185 41.23 19.4647 38.9335 20.421C37.27 21.0683 35.8829 22.2562 34.7461 23.615C33.7549 22.3499 32.4888 21.3115 31.0494 20.6001C28.9149 19.6373 26.4613 19.3152 24.1763 19.8854C21.8716 20.393 19.7894 21.7436 18.3467 23.6133C17.0872 22.087 15.4842 20.8054 13.5836 20.1992C11.31 19.3892 8.77137 19.4155 6.50921 20.2534C5.54579 20.5491 4.7165 21.1324 3.85449 21.6335C5.31516 14.332 10.5477 7.92759 17.3849 5.05233C18.471 4.52329 19.6405 4.22426 20.7888 3.87102C21.515 3.65414 21.8438 2.83593 21.7129 2.12779Z"
                    fill="#FFFF8B" />
        </symbol>
        <symbol id="services-easiness" viewBox="0 0 68 68" fill="none">
            <title>services-easiness</title>
                <path
                    d="M3.7434 1.18591C4.50874 0.879994 5.33081 0.707919 6.15771 0.715089C12.1548 0.710309 18.1508 0.713894 24.1467 0.712699C25.0134 0.699554 25.879 0.851315 26.6781 1.18232C26.8869 1.28748 27.0958 1.39383 27.3058 1.49899C27.9492 1.88616 28.5335 2.36534 29.014 2.94132C29.4135 3.45396 29.7334 4.02396 29.9531 4.63459C29.9893 4.75528 30.0268 4.87597 30.0654 4.99666C30.1088 5.15679 30.1547 5.31811 30.2066 5.47704C30.2525 5.91559 30.2742 6.35654 30.2742 6.79748C30.2742 9.18742 30.273 11.5785 30.2754 13.9685C30.2754 14.4285 30.2428 14.8874 30.2211 15.3463L30.1402 15.3511C30.1233 15.4909 30.1052 15.6307 30.0871 15.7705C29.7226 16.8507 29.119 17.8653 28.2305 18.6026C27.8032 18.9742 27.3022 19.2455 26.8109 19.5239C26.7783 19.5275 26.7143 19.5335 26.6817 19.537C26.5296 19.6123 26.3739 19.6792 26.2206 19.7497C25.5881 19.9529 24.9265 20.0497 24.2614 20.0377C18.2268 20.0365 12.1911 20.0401 6.1565 20.0365C5.59035 20.0401 5.02178 19.9804 4.48218 19.8047C4.41337 19.7916 4.27696 19.7665 4.20816 19.7545C4.05243 19.6804 3.89671 19.6099 3.7434 19.5335C3.71202 19.5311 3.64804 19.5239 3.61544 19.5203C2.97445 19.1642 2.32983 18.7866 1.81558 18.2572C1.4812 17.9011 1.20355 17.4984 0.933149 17.0945C0.848648 16.9356 0.76294 16.7779 0.676025 16.6213C0.311465 15.8279 0.115906 14.9603 0.123149 14.088C0.120734 11.6192 0.120734 9.14918 0.123149 6.67918C0.113491 5.85943 0.288529 5.04685 0.602389 4.28924C0.71224 4.07893 0.82209 3.86742 0.930734 3.65591C1.57898 2.56012 2.58091 1.7105 3.7434 1.18591ZM4.06571 4.00484C3.85325 4.19723 3.64804 4.39679 3.45369 4.6071C3.00825 5.20459 2.77164 5.93232 2.76199 6.6732C2.75354 9.10496 2.76319 11.5367 2.75716 13.9673C2.74871 14.7775 2.99497 15.596 3.52129 16.2246C3.63959 16.3453 3.75789 16.4648 3.8774 16.5855C3.92085 16.6094 4.00777 16.6572 4.05123 16.6811L4.0464 16.7348C4.18643 16.8185 4.32525 16.9057 4.46407 16.993C4.52322 17.0264 4.63911 17.0921 4.69826 17.1244C5.1606 17.318 5.65674 17.4351 6.16012 17.4196C12.1971 17.4196 18.2341 17.4184 24.271 17.4196C24.9664 17.4423 25.6436 17.2188 26.2291 16.8579L26.2484 16.7659L26.3474 16.7826C26.8664 16.3441 27.2696 15.786 27.5123 15.1539C27.6221 14.7667 27.6221 14.3628 27.6233 13.9649C27.6221 12.0553 27.6233 10.147 27.6221 8.23861C27.6185 7.38301 27.645 6.52503 27.5666 5.67062L27.5014 5.66226C27.237 4.78754 26.596 4.01918 25.7498 3.64276C25.2162 3.38704 24.6139 3.32729 24.0284 3.31415C21.8543 3.31773 19.679 3.31534 17.505 3.31654C13.8014 3.31654 10.0967 3.31295 6.3931 3.31773C5.56862 3.31654 4.73206 3.50295 4.06571 4.00484Z"
                    fill="#454545" />
                <path
                    d="M6.64928 9.90199C6.89433 9.40728 7.38685 9.03325 7.96507 9.07149C12.7551 9.0452 17.5463 9.07149 22.3374 9.06552C22.935 9.01533 23.5591 9.33558 23.7728 9.90677C24.1108 10.6943 23.4553 11.6968 22.5813 11.6753C17.6706 11.6825 12.7599 11.6825 7.84919 11.6753C7.36753 11.698 6.98124 11.3718 6.71929 11.0049C6.57323 10.6548 6.54667 10.2688 6.64928 9.90199Z"
                    fill="#454545" />
                <path
                    d="M46.717 15.7095C47.4329 15.6772 48.057 16.3177 48.0377 17.0216C48.0232 17.7111 47.4305 18.3073 46.7339 18.3193C45.6016 18.3444 44.4681 18.3109 43.337 18.3289C42.6465 18.3396 41.9826 18.618 41.437 19.0231C40.6137 19.666 40.1537 20.7068 40.1537 21.7369C40.1537 24.1663 40.155 26.5957 40.1562 29.025C40.1682 29.9977 40.5835 30.98 41.3452 31.6085C41.9596 32.1367 42.7684 32.4283 43.5821 32.4199C49.6601 32.4152 55.7369 32.4235 61.8137 32.4163C63.179 32.3889 64.4839 31.4508 64.904 30.1602C65.143 29.4457 65.0815 28.6833 65.0863 27.9436C65.0863 25.9934 65.0827 24.0432 65.0899 22.093C65.102 21.3748 65.0296 20.6244 64.6541 19.9934C64.1133 19.0243 63.0462 18.3707 61.9284 18.3336C60.7248 18.3133 59.5201 18.342 58.3178 18.3205C57.6333 18.299 57.0056 17.7134 57.0116 17.0228C57.0068 16.8268 57.0503 16.632 57.1396 16.4575C57.142 16.4277 57.1468 16.3691 57.1493 16.3404C57.439 16.007 57.8265 15.6868 58.2973 15.7107C59.5467 15.7083 60.7961 15.7023 62.0455 15.7143C64.0337 15.7752 65.9023 16.9367 66.8994 18.6288C66.9332 18.685 67.0008 18.7973 67.0346 18.8534C67.0926 18.9789 67.1541 19.1044 67.2145 19.2311C67.2652 19.347 67.3147 19.4629 67.3654 19.5788C67.5923 20.2324 67.7215 20.9195 67.7203 21.6114C67.7263 23.4851 67.7215 25.3589 67.7227 27.2326C67.7046 28.5482 67.841 29.9081 67.3557 31.1664C67.2435 31.4186 67.1216 31.6683 67.0141 31.9228L66.9743 31.9431C66.291 33.211 65.1129 34.1801 63.7572 34.6784C63.2043 34.8529 62.637 34.9987 62.0515 34.9712C55.7731 34.9784 49.4935 34.9772 43.2151 34.9712C42.6284 34.9963 42.0574 34.8636 41.5082 34.6748C41.3573 34.6091 41.2052 34.5458 41.0555 34.4836C38.978 33.5838 37.4871 31.3994 37.5729 29.135C37.568 26.7462 37.5729 24.3587 37.5704 21.9699C37.568 21.4537 37.5789 20.9375 37.6453 20.4248C37.6972 20.2635 37.737 20.0998 37.7805 19.9361C37.9664 19.3362 38.2392 18.765 38.5869 18.2404C38.7329 18.06 38.8802 17.8819 39.0275 17.7015C39.3534 17.337 39.7288 17.018 40.1308 16.7372L40.1501 16.6559C40.1888 16.6511 40.2672 16.6428 40.3058 16.638C41.012 16.1217 41.8776 15.9031 42.7262 15.7394C44.0553 15.6784 45.3868 15.719 46.717 15.7095Z"
                    fill="#454545" />
                <path
                    d="M52.2399 15.7191C52.4909 15.7143 52.742 15.7155 52.9931 15.7203C53.5219 15.9354 53.9685 16.4158 53.9323 17.0133C53.9202 17.5151 53.6269 18.0063 53.1488 18.1999C52.3509 18.6061 51.2283 17.8928 51.3369 16.9894C51.3405 16.8448 51.3478 16.7002 51.3574 16.5556C51.5494 16.1839 51.8644 15.9031 52.2399 15.7191Z"
                    fill="#454545" />
                <path
                    d="M14.1686 22.2843C14.6636 22.0668 15.3263 22.0106 15.7548 22.3942C15.9914 22.5818 16.1037 22.8686 16.2304 23.1315C16.2304 24.8511 16.2377 26.5706 16.2304 28.2902C16.292 28.2806 16.4151 28.2627 16.4767 28.2543L16.4731 28.1671C16.5129 28.1265 16.5926 28.0476 16.6324 28.0082L16.7242 28.0153L16.7109 27.8839H16.7978C17.2179 27.437 17.6283 26.9482 18.209 26.6973C18.9477 26.5623 19.7771 27.0558 19.8459 27.8301C19.9461 28.3798 19.5791 28.8339 19.2169 29.1972L19.165 29.2008C19.1264 29.239 19.0504 29.3155 19.0117 29.3537L18.9997 29.3991C18.5916 29.7708 18.2162 30.1782 17.807 30.5499L17.7985 30.5977C17.7599 30.6359 17.6839 30.7112 17.6452 30.7494L17.5981 30.7578C17.2215 31.1629 16.8111 31.5345 16.4332 31.9396L16.3886 31.9504C16.3499 31.9886 16.2739 32.0639 16.2353 32.1021L16.228 32.1499C15.8514 32.5168 15.4216 32.9386 14.8446 32.8789C14.2628 32.8765 13.8837 32.4033 13.5107 32.0328C13.4769 32.0018 13.4105 31.9396 13.3767 31.9097C12.4146 30.9514 11.4549 29.9918 10.488 29.0394C10.0703 28.7025 9.85666 28.1301 10.0269 27.6126C10.1391 27.1574 10.5556 26.8861 10.9588 26.7045C11.1773 26.7033 11.397 26.7033 11.6179 26.7045C12.2408 26.9721 12.6633 27.5135 13.1353 27.9735C13.1655 28.0118 13.227 28.0882 13.2584 28.1265L13.2995 28.1492C13.3936 28.2173 13.4902 28.283 13.5868 28.3499C13.6049 26.6113 13.5735 24.8726 13.6025 23.1351C13.6507 23.0204 13.6942 22.9057 13.7377 22.7898C13.8729 22.6141 14.0177 22.4468 14.1686 22.2843Z"
                    fill="#454545" />
                <path
                    d="M43.9913 25.4438C43.9104 24.7292 44.549 24.0445 45.2733 24.0636C50.0609 24.0576 54.8485 24.0624 59.6372 24.0588C59.9583 24.0636 60.3036 24.0517 60.5885 24.2273C60.9229 24.3887 61.0943 24.7304 61.2536 25.0447C61.2512 25.2646 61.25 25.4832 61.2512 25.7031C61.0834 26.0473 60.8323 26.3424 60.5148 26.5587C60.3796 26.5934 60.2468 26.6292 60.1165 26.6699C55.2082 26.6985 50.2999 26.6734 45.3928 26.6806C44.7035 26.7021 44.0215 26.1393 43.9913 25.4438Z"
                    fill="#454545" />
                <path
                    d="M4.23979 35.5174C4.90011 35.3178 5.59301 35.2139 6.28351 35.2079C12.236 35.2091 18.1885 35.2091 24.1409 35.2079C25.3131 35.2139 26.4985 35.4899 27.4992 36.1113C28.0944 36.4973 28.6146 36.9848 29.0734 37.5213C29.6455 38.2503 29.9884 39.1166 30.2141 40.0057C30.3203 41.2019 30.2576 42.4052 30.2745 43.6061C30.2491 45.6961 30.3312 47.7885 30.2189 49.8761L30.1369 49.8749C30.12 50.0159 30.1019 50.1569 30.085 50.2991C29.8592 50.8895 29.6105 51.4726 29.252 51.9972C28.535 52.9472 27.5898 53.7311 26.4623 54.1541C26.2872 54.2091 26.1146 54.2712 25.9408 54.3322C25.6897 54.411 25.4253 54.4337 25.1646 54.4481L25.1803 54.5246C21.3367 54.5747 17.4919 54.5293 13.6483 54.5485C10.8526 54.5305 8.05681 54.5771 5.26105 54.5198L5.2538 54.4349C5.05342 54.4254 4.85424 54.4146 4.65385 54.4051L4.65264 54.3357C4.41966 54.2915 4.19272 54.2234 3.96698 54.1541C3.28735 53.8661 2.62945 53.5112 2.08985 53.0046C2.05726 52.9759 1.99328 52.9197 1.9619 52.891C1.50801 52.4441 1.12896 51.9315 0.80665 51.3878C0.695592 51.1452 0.583326 50.9062 0.477097 50.6624C0.188587 49.8558 0.0944293 48.9966 0.122194 48.1434C0.124608 45.7917 0.117365 43.44 0.125815 41.0895C0.123401 40.4012 0.262223 39.7201 0.487961 39.0712C0.577291 38.8729 0.66662 38.6745 0.755949 38.4761C1.47783 37.0971 2.73689 35.987 4.23979 35.5174ZM5.78374 37.8308C5.05583 37.9659 4.31705 38.2132 3.79315 38.7569C3.09783 39.3747 2.76586 40.3044 2.76103 41.2162C2.76224 43.7256 2.75017 46.2351 2.76586 48.7445C2.7888 50.0721 3.7183 51.2587 4.95202 51.7283C5.07635 51.7678 5.20069 51.8096 5.32382 51.8514C5.83444 51.953 6.35835 51.9303 6.87622 51.9315C12.5921 51.9315 18.308 51.9267 24.0238 51.9327C24.3872 51.9351 24.753 51.9255 25.1079 51.8419C25.1743 51.8251 25.307 51.7917 25.3734 51.7749C25.5219 51.7092 25.6728 51.6471 25.8225 51.5825C26.554 51.2133 27.1141 50.5835 27.4461 49.8451C27.7238 49.0683 27.5946 48.2318 27.6236 47.4264C27.6224 45.3161 27.6296 43.2058 27.6187 41.0967C27.6187 40.7752 27.597 40.4526 27.5185 40.1407C27.4691 40.0224 27.4196 39.9041 27.3713 39.787C26.9162 38.7295 25.8768 38.028 24.7505 37.8368C18.4287 37.8153 12.1056 37.8225 5.78374 37.8308Z"
                    fill="#454545" />
                <path
                    d="M51.7606 37.8153C52.1107 37.8129 52.4982 37.7436 52.8096 37.9491C53.249 38.2251 53.5822 38.6326 53.9407 38.9995L53.9854 39.0054C54.024 39.0449 54.1001 39.1226 54.1387 39.1608L54.1315 39.2504L54.263 39.2397L54.2546 39.3675L54.3391 39.3723C54.7024 39.7511 55.0767 40.1215 55.4617 40.4812L55.4642 40.5649L55.5511 40.5613C55.5897 40.5995 55.6657 40.6772 55.7044 40.7154L55.7128 40.7609C56.1667 41.2078 56.6834 41.6141 57.019 42.1638C57.1023 42.49 57.0648 42.8293 57.0431 43.1604C56.8125 43.5893 56.4094 43.949 55.8975 43.967C55.3241 44.041 54.8823 43.6348 54.5117 43.2655L54.5057 43.2153C54.4683 43.1783 54.391 43.103 54.3524 43.0648L54.3077 43.0552C54.0482 42.7792 53.7766 42.5151 53.5086 42.2462C53.4917 47.2794 53.5122 52.3126 53.4989 57.3458C53.4627 58.1046 53.4241 58.8694 53.2237 59.6067C53.1971 59.7286 53.1718 59.8529 53.1476 59.9772C53.1042 60.099 53.0643 60.2233 53.0257 60.35C52.9835 60.4683 52.9424 60.589 52.905 60.7109C52.8422 60.859 52.7819 61.0084 52.7215 61.159C52.4933 61.7338 52.2048 62.2834 51.8825 62.8128C51.8004 62.9347 51.7159 63.0566 51.6351 63.1797C51.5131 63.3386 51.39 63.4963 51.2705 63.6565C50.7442 64.3185 50.1273 64.9016 49.473 65.437C48.7777 65.9783 48.0039 66.4133 47.1951 66.7622C46.9923 66.8434 46.7895 66.9271 46.5867 67.0072C46.466 67.049 46.3453 67.0896 46.2258 67.1314C45.1756 67.4648 44.071 67.6178 42.9701 67.613C36.6543 67.6154 30.3397 67.6154 24.0238 67.613C23.0871 67.619 22.1515 67.4983 21.245 67.2677C21.0892 67.2187 20.9335 67.1757 20.779 67.1255C20.6559 67.0848 20.5339 67.0442 20.4132 67.0012C20.2068 66.9211 20.0028 66.8375 19.8 66.755C18.5204 66.2125 17.37 65.3987 16.4031 64.4117C15.8188 63.8405 15.3685 63.1606 14.9183 62.4878C14.911 62.4603 14.8953 62.4053 14.8881 62.3778C14.2386 61.3072 13.8173 60.0883 13.6713 58.8491L13.5952 58.8384C13.5964 58.5994 13.5964 58.3592 13.5952 58.1214L13.652 58.1034C13.757 57.7199 14.0431 57.439 14.375 57.2335C14.7263 57.1331 15.0969 57.1379 15.4506 57.2263C15.9866 57.5275 16.3077 58.1106 16.2642 58.7224L16.3234 58.7153C16.3475 58.934 16.3825 59.155 16.4562 59.3653C16.4707 59.4299 16.4984 59.5613 16.5129 59.627C16.5769 59.7752 16.6348 59.9258 16.6952 60.0763C16.939 60.7336 17.2939 61.343 17.7116 61.9058C18.39 62.7519 19.2 63.4963 20.1573 64.0209C20.3203 64.1046 20.4832 64.1882 20.6462 64.2707C21.7701 64.8144 23.0267 64.9936 24.2653 65.0116C30.5026 65.0092 36.74 65.0116 42.9761 65.0104C44.0493 64.9901 45.1176 64.7953 46.1135 64.395C46.4045 64.2528 46.693 64.1058 46.9779 63.9504C47.5718 63.5955 48.1283 63.1809 48.6111 62.6862C49.3608 61.9524 49.9185 61.0467 50.3229 60.0871C50.3675 59.9676 50.4122 59.8481 50.4581 59.7298C50.7176 58.9196 50.8589 58.0712 50.8528 57.2204C50.8492 52.2326 50.8577 47.246 50.8492 42.2593C50.312 42.7445 49.8461 43.3073 49.2787 43.7578C48.7234 44.1546 47.9605 43.9801 47.4993 43.5236L47.5138 43.4543C47.4655 43.4005 47.369 43.2942 47.3207 43.2404C47.2374 42.9202 47.2398 42.588 47.2603 42.2605C47.6044 41.6583 48.1633 41.2257 48.6425 40.7346C49.4417 39.9304 50.2601 39.1441 51.0556 38.3351C51.2584 38.1212 51.5083 37.9646 51.7606 37.8153Z"
                    fill="#454545" />
                <path
                    d="M6.58887 44.5464C6.79288 44.0684 7.18158 43.6908 7.70066 43.5677C12.7091 43.5701 17.7164 43.5773 22.7249 43.5677C23.3019 43.7088 23.8475 44.1748 23.8536 44.7998C23.9115 45.3136 23.5771 45.7593 23.1812 46.0497C22.9494 46.1274 22.7104 46.1955 22.4629 46.1883C17.714 46.1835 12.9638 46.1859 8.2137 46.1883C7.87811 46.1871 7.51596 46.2026 7.22987 45.9983C6.72286 45.7079 6.50678 45.1033 6.58887 44.5464Z"
                    fill="#454545" />
                <path
                    d="M48.0377 17.0216C49.1374 17.0145 50.2384 17.0312 51.3369 16.9894C51.2282 17.8928 52.3509 18.6062 53.1488 18.1999C53.6268 18.0063 53.9202 17.5152 53.9323 17.0133C54.9583 17.0276 55.9856 17.0133 57.0117 17.0228C57.0057 17.7135 57.6334 18.2991 58.3179 18.3206C59.5202 18.3421 60.7249 18.3134 61.9284 18.3337C63.0463 18.3708 64.1134 19.0244 64.6542 19.9935C65.0296 20.6245 65.1021 21.3749 65.09 22.0931C65.0827 24.0433 65.0864 25.9935 65.0864 27.9437C65.0815 28.6833 65.1431 29.4457 64.9041 30.1603C64.484 31.4509 63.1791 32.3889 61.8138 32.4164C55.737 32.4236 49.6601 32.4152 43.5821 32.42C42.7685 32.4284 41.9597 32.1368 41.3453 31.6086C40.5836 30.9801 40.1683 29.9978 40.1562 29.0251C40.155 26.5957 40.1538 24.1664 40.1538 21.737C40.1538 20.7069 40.6137 19.6661 41.437 19.0232C41.9826 18.6181 42.6466 18.3397 43.3371 18.3289C44.4682 18.311 45.6017 18.3445 46.734 18.3194C47.4305 18.3074 48.0232 17.7111 48.0377 17.0216ZM43.9914 25.4438C44.0215 26.1393 44.7036 26.7021 45.3929 26.6806C50.2999 26.6734 55.2082 26.6985 60.1165 26.6698C60.2469 26.6292 60.3797 26.5933 60.5149 26.5587C60.8323 26.3424 61.0834 26.0472 61.2512 25.7031C61.25 25.4832 61.2512 25.2645 61.2536 25.0447C61.0943 24.7304 60.9229 24.3886 60.5885 24.2273C60.3036 24.0516 59.9584 24.0636 59.6373 24.0588C54.8485 24.0624 50.0609 24.0576 45.2733 24.0636C44.5491 24.0445 43.9105 24.7292 43.9914 25.4438Z"
                    fill="#FFFF8B" />
        </symbol>
    </defs>
</svg>